<?xml version="1.0" encoding="utf-8" standalone="no"?>
<!DOCTYPE svg PUBLIC "-//W3C//DTD SVG 1.1//EN"
  "http://www.w3.org/Graphics/SVG/1.1/DTD/svg11.dtd">
<!-- Created with matplotlib (http://matplotlib.org/) -->
<svg height="504pt" version="1.1" viewBox="0 0 504 504" width="504pt" xmlns="http://www.w3.org/2000/svg" xmlns:xlink="http://www.w3.org/1999/xlink">
 <defs>
  <style type="text/css">
*{stroke-linecap:butt;stroke-linejoin:round;stroke-miterlimit:100000;}
  </style>
 </defs>
 <g id="figure_1">
  <g id="patch_1">
   <path d="M 0 504 
L 504 504 
L 504 0 
L 0 0 
z
" style="fill:#ffffff;"/>
  </g>
  <g id="axes_1">
   <g id="patch_2">
    <path d="M 44.054646 460.485354 
L 501.165354 460.485354 
L 501.165354 2.834646 
L 44.054646 2.834646 
z
" style="fill:#ffffff;"/>
   </g>
   <g id="matplotlib.axis_1">
    <g id="xtick_1">
     <g id="line2d_1">
      <path clip-path="url(#p4841723a49)" d="M 44.054646 460.485354 
L 44.054646 2.834646 
" style="fill:none;stroke:#000000;stroke-dasharray:1.000000,3.000000;stroke-dashoffset:0.0;stroke-width:0.5;"/>
     </g>
     <g id="line2d_2">
      <defs>
       <path d="M 0 0 
L 0 -4 
" id="m1c6337e5e6" style="stroke:#000000;stroke-width:0.5;"/>
      </defs>
      <g>
       <use style="stroke:#000000;stroke-width:0.5;" x="44.0546456693" xlink:href="#m1c6337e5e6" y="460.485354331"/>
      </g>
     </g>
     <g id="line2d_3">
      <defs>
       <path d="M 0 0 
L 0 4 
" id="m187470fde8" style="stroke:#000000;stroke-width:0.5;"/>
      </defs>
      <g>
       <use style="stroke:#000000;stroke-width:0.5;" x="44.0546456693" xlink:href="#m187470fde8" y="2.83464566929"/>
      </g>
     </g>
     <g id="text_1">
      <!-- 0 -->
      <defs>
       <path d="M 31.78125 66.40625 
Q 24.171875 66.40625 20.328125 58.90625 
Q 16.5 51.421875 16.5 36.375 
Q 16.5 21.390625 20.328125 13.890625 
Q 24.171875 6.390625 31.78125 6.390625 
Q 39.453125 6.390625 43.28125 13.890625 
Q 47.125 21.390625 47.125 36.375 
Q 47.125 51.421875 43.28125 58.90625 
Q 39.453125 66.40625 31.78125 66.40625 
M 31.78125 74.21875 
Q 44.046875 74.21875 50.515625 64.515625 
Q 56.984375 54.828125 56.984375 36.375 
Q 56.984375 17.96875 50.515625 8.265625 
Q 44.046875 -1.421875 31.78125 -1.421875 
Q 19.53125 -1.421875 13.0625 8.265625 
Q 6.59375 17.96875 6.59375 36.375 
Q 6.59375 54.828125 13.0625 64.515625 
Q 19.53125 74.21875 31.78125 74.21875 
" id="BitstreamVeraSans-Roman-30"/>
      </defs>
      <g transform="translate(39.2827706693 475.883010581)scale(0.15 -0.15)">
       <use xlink:href="#BitstreamVeraSans-Roman-30"/>
      </g>
     </g>
    </g>
    <g id="xtick_2">
     <g id="line2d_4">
      <path clip-path="url(#p4841723a49)" d="M 127.165684 460.485354 
L 127.165684 2.834646 
" style="fill:none;stroke:#000000;stroke-dasharray:1.000000,3.000000;stroke-dashoffset:0.0;stroke-width:0.5;"/>
     </g>
     <g id="line2d_5">
      <g>
       <use style="stroke:#000000;stroke-width:0.5;" x="127.165683608" xlink:href="#m1c6337e5e6" y="460.485354331"/>
      </g>
     </g>
     <g id="line2d_6">
      <g>
       <use style="stroke:#000000;stroke-width:0.5;" x="127.165683608" xlink:href="#m187470fde8" y="2.83464566929"/>
      </g>
     </g>
     <g id="text_2">
      <!-- 2 -->
      <defs>
       <path d="M 19.1875 8.296875 
L 53.609375 8.296875 
L 53.609375 0 
L 7.328125 0 
L 7.328125 8.296875 
Q 12.9375 14.109375 22.625 23.890625 
Q 32.328125 33.6875 34.8125 36.53125 
Q 39.546875 41.84375 41.421875 45.53125 
Q 43.3125 49.21875 43.3125 52.78125 
Q 43.3125 58.59375 39.234375 62.25 
Q 35.15625 65.921875 28.609375 65.921875 
Q 23.96875 65.921875 18.8125 64.3125 
Q 13.671875 62.703125 7.8125 59.421875 
L 7.8125 69.390625 
Q 13.765625 71.78125 18.9375 73 
Q 24.125 74.21875 28.421875 74.21875 
Q 39.75 74.21875 46.484375 68.546875 
Q 53.21875 62.890625 53.21875 53.421875 
Q 53.21875 48.921875 51.53125 44.890625 
Q 49.859375 40.875 45.40625 35.40625 
Q 44.1875 33.984375 37.640625 27.21875 
Q 31.109375 20.453125 19.1875 8.296875 
" id="BitstreamVeraSans-Roman-32"/>
      </defs>
      <g transform="translate(122.393808608 475.883010581)scale(0.15 -0.15)">
       <use xlink:href="#BitstreamVeraSans-Roman-32"/>
      </g>
     </g>
    </g>
    <g id="xtick_3">
     <g id="line2d_7">
      <path clip-path="url(#p4841723a49)" d="M 210.276722 460.485354 
L 210.276722 2.834646 
" style="fill:none;stroke:#000000;stroke-dasharray:1.000000,3.000000;stroke-dashoffset:0.0;stroke-width:0.5;"/>
     </g>
     <g id="line2d_8">
      <g>
       <use style="stroke:#000000;stroke-width:0.5;" x="210.276721546" xlink:href="#m1c6337e5e6" y="460.485354331"/>
      </g>
     </g>
     <g id="line2d_9">
      <g>
       <use style="stroke:#000000;stroke-width:0.5;" x="210.276721546" xlink:href="#m187470fde8" y="2.83464566929"/>
      </g>
     </g>
     <g id="text_3">
      <!-- 4 -->
      <defs>
       <path d="M 37.796875 64.3125 
L 12.890625 25.390625 
L 37.796875 25.390625 
z
M 35.203125 72.90625 
L 47.609375 72.90625 
L 47.609375 25.390625 
L 58.015625 25.390625 
L 58.015625 17.1875 
L 47.609375 17.1875 
L 47.609375 0 
L 37.796875 0 
L 37.796875 17.1875 
L 4.890625 17.1875 
L 4.890625 26.703125 
z
" id="BitstreamVeraSans-Roman-34"/>
      </defs>
      <g transform="translate(205.504846546 475.883010581)scale(0.15 -0.15)">
       <use xlink:href="#BitstreamVeraSans-Roman-34"/>
      </g>
     </g>
    </g>
    <g id="xtick_4">
     <g id="line2d_10">
      <path clip-path="url(#p4841723a49)" d="M 293.387759 460.485354 
L 293.387759 2.834646 
" style="fill:none;stroke:#000000;stroke-dasharray:1.000000,3.000000;stroke-dashoffset:0.0;stroke-width:0.5;"/>
     </g>
     <g id="line2d_11">
      <g>
       <use style="stroke:#000000;stroke-width:0.5;" x="293.387759485" xlink:href="#m1c6337e5e6" y="460.485354331"/>
      </g>
     </g>
     <g id="line2d_12">
      <g>
       <use style="stroke:#000000;stroke-width:0.5;" x="293.387759485" xlink:href="#m187470fde8" y="2.83464566929"/>
      </g>
     </g>
     <g id="text_4">
      <!-- 6 -->
      <defs>
       <path d="M 33.015625 40.375 
Q 26.375 40.375 22.484375 35.828125 
Q 18.609375 31.296875 18.609375 23.390625 
Q 18.609375 15.53125 22.484375 10.953125 
Q 26.375 6.390625 33.015625 6.390625 
Q 39.65625 6.390625 43.53125 10.953125 
Q 47.40625 15.53125 47.40625 23.390625 
Q 47.40625 31.296875 43.53125 35.828125 
Q 39.65625 40.375 33.015625 40.375 
M 52.59375 71.296875 
L 52.59375 62.3125 
Q 48.875 64.0625 45.09375 64.984375 
Q 41.3125 65.921875 37.59375 65.921875 
Q 27.828125 65.921875 22.671875 59.328125 
Q 17.53125 52.734375 16.796875 39.40625 
Q 19.671875 43.65625 24.015625 45.921875 
Q 28.375 48.1875 33.59375 48.1875 
Q 44.578125 48.1875 50.953125 41.515625 
Q 57.328125 34.859375 57.328125 23.390625 
Q 57.328125 12.15625 50.6875 5.359375 
Q 44.046875 -1.421875 33.015625 -1.421875 
Q 20.359375 -1.421875 13.671875 8.265625 
Q 6.984375 17.96875 6.984375 36.375 
Q 6.984375 53.65625 15.1875 63.9375 
Q 23.390625 74.21875 37.203125 74.21875 
Q 40.921875 74.21875 44.703125 73.484375 
Q 48.484375 72.75 52.59375 71.296875 
" id="BitstreamVeraSans-Roman-36"/>
      </defs>
      <g transform="translate(288.615884485 475.883010581)scale(0.15 -0.15)">
       <use xlink:href="#BitstreamVeraSans-Roman-36"/>
      </g>
     </g>
    </g>
    <g id="xtick_5">
     <g id="line2d_13">
      <path clip-path="url(#p4841723a49)" d="M 376.498797 460.485354 
L 376.498797 2.834646 
" style="fill:none;stroke:#000000;stroke-dasharray:1.000000,3.000000;stroke-dashoffset:0.0;stroke-width:0.5;"/>
     </g>
     <g id="line2d_14">
      <g>
       <use style="stroke:#000000;stroke-width:0.5;" x="376.498797423" xlink:href="#m1c6337e5e6" y="460.485354331"/>
      </g>
     </g>
     <g id="line2d_15">
      <g>
       <use style="stroke:#000000;stroke-width:0.5;" x="376.498797423" xlink:href="#m187470fde8" y="2.83464566929"/>
      </g>
     </g>
     <g id="text_5">
      <!-- 8 -->
      <defs>
       <path d="M 31.78125 34.625 
Q 24.75 34.625 20.71875 30.859375 
Q 16.703125 27.09375 16.703125 20.515625 
Q 16.703125 13.921875 20.71875 10.15625 
Q 24.75 6.390625 31.78125 6.390625 
Q 38.8125 6.390625 42.859375 10.171875 
Q 46.921875 13.96875 46.921875 20.515625 
Q 46.921875 27.09375 42.890625 30.859375 
Q 38.875 34.625 31.78125 34.625 
M 21.921875 38.8125 
Q 15.578125 40.375 12.03125 44.71875 
Q 8.5 49.078125 8.5 55.328125 
Q 8.5 64.0625 14.71875 69.140625 
Q 20.953125 74.21875 31.78125 74.21875 
Q 42.671875 74.21875 48.875 69.140625 
Q 55.078125 64.0625 55.078125 55.328125 
Q 55.078125 49.078125 51.53125 44.71875 
Q 48 40.375 41.703125 38.8125 
Q 48.828125 37.15625 52.796875 32.3125 
Q 56.78125 27.484375 56.78125 20.515625 
Q 56.78125 9.90625 50.3125 4.234375 
Q 43.84375 -1.421875 31.78125 -1.421875 
Q 19.734375 -1.421875 13.25 4.234375 
Q 6.78125 9.90625 6.78125 20.515625 
Q 6.78125 27.484375 10.78125 32.3125 
Q 14.796875 37.15625 21.921875 38.8125 
M 18.3125 54.390625 
Q 18.3125 48.734375 21.84375 45.5625 
Q 25.390625 42.390625 31.78125 42.390625 
Q 38.140625 42.390625 41.71875 45.5625 
Q 45.3125 48.734375 45.3125 54.390625 
Q 45.3125 60.0625 41.71875 63.234375 
Q 38.140625 66.40625 31.78125 66.40625 
Q 25.390625 66.40625 21.84375 63.234375 
Q 18.3125 60.0625 18.3125 54.390625 
" id="BitstreamVeraSans-Roman-38"/>
      </defs>
      <g transform="translate(371.726922423 475.883010581)scale(0.15 -0.15)">
       <use xlink:href="#BitstreamVeraSans-Roman-38"/>
      </g>
     </g>
    </g>
    <g id="xtick_6">
     <g id="line2d_16">
      <path clip-path="url(#p4841723a49)" d="M 459.609835 460.485354 
L 459.609835 2.834646 
" style="fill:none;stroke:#000000;stroke-dasharray:1.000000,3.000000;stroke-dashoffset:0.0;stroke-width:0.5;"/>
     </g>
     <g id="line2d_17">
      <g>
       <use style="stroke:#000000;stroke-width:0.5;" x="459.609835361" xlink:href="#m1c6337e5e6" y="460.485354331"/>
      </g>
     </g>
     <g id="line2d_18">
      <g>
       <use style="stroke:#000000;stroke-width:0.5;" x="459.609835361" xlink:href="#m187470fde8" y="2.83464566929"/>
      </g>
     </g>
     <g id="text_6">
      <!-- 10 -->
      <defs>
       <path d="M 12.40625 8.296875 
L 28.515625 8.296875 
L 28.515625 63.921875 
L 10.984375 60.40625 
L 10.984375 69.390625 
L 28.421875 72.90625 
L 38.28125 72.90625 
L 38.28125 8.296875 
L 54.390625 8.296875 
L 54.390625 0 
L 12.40625 0 
z
" id="BitstreamVeraSans-Roman-31"/>
      </defs>
      <g transform="translate(450.066085361 475.883010581)scale(0.15 -0.15)">
       <use xlink:href="#BitstreamVeraSans-Roman-31"/>
       <use x="63.623046875" xlink:href="#BitstreamVeraSans-Roman-30"/>
      </g>
     </g>
    </g>
    <g id="text_7">
     <!-- time (s) -->
     <defs>
      <path d="M 18.3125 70.21875 
L 18.3125 54.6875 
L 36.8125 54.6875 
L 36.8125 47.703125 
L 18.3125 47.703125 
L 18.3125 18.015625 
Q 18.3125 11.328125 20.140625 9.421875 
Q 21.96875 7.515625 27.59375 7.515625 
L 36.8125 7.515625 
L 36.8125 0 
L 27.59375 0 
Q 17.1875 0 13.234375 3.875 
Q 9.28125 7.765625 9.28125 18.015625 
L 9.28125 47.703125 
L 2.6875 47.703125 
L 2.6875 54.6875 
L 9.28125 54.6875 
L 9.28125 70.21875 
z
" id="BitstreamVeraSans-Roman-74"/>
      <path d="M 52 44.1875 
Q 55.375 50.25 60.0625 53.125 
Q 64.75 56 71.09375 56 
Q 79.640625 56 84.28125 50.015625 
Q 88.921875 44.046875 88.921875 33.015625 
L 88.921875 0 
L 79.890625 0 
L 79.890625 32.71875 
Q 79.890625 40.578125 77.09375 44.375 
Q 74.3125 48.1875 68.609375 48.1875 
Q 61.625 48.1875 57.5625 43.546875 
Q 53.515625 38.921875 53.515625 30.90625 
L 53.515625 0 
L 44.484375 0 
L 44.484375 32.71875 
Q 44.484375 40.625 41.703125 44.40625 
Q 38.921875 48.1875 33.109375 48.1875 
Q 26.21875 48.1875 22.15625 43.53125 
Q 18.109375 38.875 18.109375 30.90625 
L 18.109375 0 
L 9.078125 0 
L 9.078125 54.6875 
L 18.109375 54.6875 
L 18.109375 46.1875 
Q 21.1875 51.21875 25.484375 53.609375 
Q 29.78125 56 35.6875 56 
Q 41.65625 56 45.828125 52.96875 
Q 50 49.953125 52 44.1875 
" id="BitstreamVeraSans-Roman-6d"/>
      <path d="M 8.015625 75.875 
L 15.828125 75.875 
Q 23.140625 64.359375 26.78125 53.3125 
Q 30.421875 42.28125 30.421875 31.390625 
Q 30.421875 20.453125 26.78125 9.375 
Q 23.140625 -1.703125 15.828125 -13.1875 
L 8.015625 -13.1875 
Q 14.5 -2 17.703125 9.0625 
Q 20.90625 20.125 20.90625 31.390625 
Q 20.90625 42.671875 17.703125 53.65625 
Q 14.5 64.65625 8.015625 75.875 
" id="BitstreamVeraSans-Roman-29"/>
      <path d="M 9.421875 54.6875 
L 18.40625 54.6875 
L 18.40625 0 
L 9.421875 0 
z
M 9.421875 75.984375 
L 18.40625 75.984375 
L 18.40625 64.59375 
L 9.421875 64.59375 
z
" id="BitstreamVeraSans-Roman-69"/>
      <path d="M 31 75.875 
Q 24.46875 64.65625 21.28125 53.65625 
Q 18.109375 42.671875 18.109375 31.390625 
Q 18.109375 20.125 21.3125 9.0625 
Q 24.515625 -2 31 -13.1875 
L 23.1875 -13.1875 
Q 15.875 -1.703125 12.234375 9.375 
Q 8.59375 20.453125 8.59375 31.390625 
Q 8.59375 42.28125 12.203125 53.3125 
Q 15.828125 64.359375 23.1875 75.875 
z
" id="BitstreamVeraSans-Roman-28"/>
      <path d="M 56.203125 29.59375 
L 56.203125 25.203125 
L 14.890625 25.203125 
Q 15.484375 15.921875 20.484375 11.0625 
Q 25.484375 6.203125 34.421875 6.203125 
Q 39.59375 6.203125 44.453125 7.46875 
Q 49.3125 8.734375 54.109375 11.28125 
L 54.109375 2.78125 
Q 49.265625 0.734375 44.1875 -0.34375 
Q 39.109375 -1.421875 33.890625 -1.421875 
Q 20.796875 -1.421875 13.15625 6.1875 
Q 5.515625 13.8125 5.515625 26.8125 
Q 5.515625 40.234375 12.765625 48.109375 
Q 20.015625 56 32.328125 56 
Q 43.359375 56 49.78125 48.890625 
Q 56.203125 41.796875 56.203125 29.59375 
M 47.21875 32.234375 
Q 47.125 39.59375 43.09375 43.984375 
Q 39.0625 48.390625 32.421875 48.390625 
Q 24.90625 48.390625 20.390625 44.140625 
Q 15.875 39.890625 15.1875 32.171875 
z
" id="BitstreamVeraSans-Roman-65"/>
      <path id="BitstreamVeraSans-Roman-20"/>
      <path d="M 44.28125 53.078125 
L 44.28125 44.578125 
Q 40.484375 46.53125 36.375 47.5 
Q 32.28125 48.484375 27.875 48.484375 
Q 21.1875 48.484375 17.84375 46.4375 
Q 14.5 44.390625 14.5 40.28125 
Q 14.5 37.15625 16.890625 35.375 
Q 19.28125 33.59375 26.515625 31.984375 
L 29.59375 31.296875 
Q 39.15625 29.25 43.1875 25.515625 
Q 47.21875 21.78125 47.21875 15.09375 
Q 47.21875 7.46875 41.1875 3.015625 
Q 35.15625 -1.421875 24.609375 -1.421875 
Q 20.21875 -1.421875 15.453125 -0.5625 
Q 10.6875 0.296875 5.421875 2 
L 5.421875 11.28125 
Q 10.40625 8.6875 15.234375 7.390625 
Q 20.0625 6.109375 24.8125 6.109375 
Q 31.15625 6.109375 34.5625 8.28125 
Q 37.984375 10.453125 37.984375 14.40625 
Q 37.984375 18.0625 35.515625 20.015625 
Q 33.0625 21.96875 24.703125 23.78125 
L 21.578125 24.515625 
Q 13.234375 26.265625 9.515625 29.90625 
Q 5.8125 33.546875 5.8125 39.890625 
Q 5.8125 47.609375 11.28125 51.796875 
Q 16.75 56 26.8125 56 
Q 31.78125 56 36.171875 55.265625 
Q 40.578125 54.546875 44.28125 53.078125 
" id="BitstreamVeraSans-Roman-73"/>
     </defs>
     <g transform="translate(239.644609375 496.919885581)scale(0.17 -0.17)">
      <use xlink:href="#BitstreamVeraSans-Roman-74"/>
      <use x="39.208984375" xlink:href="#BitstreamVeraSans-Roman-69"/>
      <use x="66.9921875" xlink:href="#BitstreamVeraSans-Roman-6d"/>
      <use x="164.404296875" xlink:href="#BitstreamVeraSans-Roman-65"/>
      <use x="225.927734375" xlink:href="#BitstreamVeraSans-Roman-20"/>
      <use x="257.71484375" xlink:href="#BitstreamVeraSans-Roman-28"/>
      <use x="296.728515625" xlink:href="#BitstreamVeraSans-Roman-73"/>
      <use x="348.828125" xlink:href="#BitstreamVeraSans-Roman-29"/>
     </g>
    </g>
   </g>
   <g id="matplotlib.axis_2">
    <g id="ytick_1">
     <g id="line2d_19">
      <path clip-path="url(#p4841723a49)" d="M 44.054646 421.347225 
L 501.165354 421.347225 
" style="fill:none;stroke:#000000;stroke-dasharray:1.000000,3.000000;stroke-dashoffset:0.0;stroke-width:0.5;"/>
     </g>
     <g id="line2d_20">
      <defs>
       <path d="M 0 0 
L 4 0 
" id="mc26f782d00" style="stroke:#000000;stroke-width:0.5;"/>
      </defs>
      <g>
       <use style="stroke:#000000;stroke-width:0.5;" x="44.0546456693" xlink:href="#mc26f782d00" y="421.347224552"/>
      </g>
     </g>
     <g id="line2d_21">
      <defs>
       <path d="M 0 0 
L -4 0 
" id="m2bebc10e1f" style="stroke:#000000;stroke-width:0.5;"/>
      </defs>
      <g>
       <use style="stroke:#000000;stroke-width:0.5;" x="501.165354331" xlink:href="#m2bebc10e1f" y="421.347224552"/>
      </g>
     </g>
     <g id="text_8">
      <!-- -4 -->
      <defs>
       <path d="M 4.890625 31.390625 
L 31.203125 31.390625 
L 31.203125 23.390625 
L 4.890625 23.390625 
z
" id="BitstreamVeraSans-Roman-2d"/>
      </defs>
      <g transform="translate(25.0991769193 425.486287052)scale(0.15 -0.15)">
       <use xlink:href="#BitstreamVeraSans-Roman-2d"/>
       <use x="36.083984375" xlink:href="#BitstreamVeraSans-Roman-34"/>
      </g>
     </g>
    </g>
    <g id="ytick_2">
     <g id="line2d_22">
      <path clip-path="url(#p4841723a49)" d="M 44.054646 271.600806 
L 501.165354 271.600806 
" style="fill:none;stroke:#000000;stroke-dasharray:1.000000,3.000000;stroke-dashoffset:0.0;stroke-width:0.5;"/>
     </g>
     <g id="line2d_23">
      <g>
       <use style="stroke:#000000;stroke-width:0.5;" x="44.0546456693" xlink:href="#mc26f782d00" y="271.600806065"/>
      </g>
     </g>
     <g id="line2d_24">
      <g>
       <use style="stroke:#000000;stroke-width:0.5;" x="501.165354331" xlink:href="#m2bebc10e1f" y="271.600806065"/>
      </g>
     </g>
     <g id="text_9">
      <!-- -2 -->
      <g transform="translate(25.0991769193 275.739868565)scale(0.15 -0.15)">
       <use xlink:href="#BitstreamVeraSans-Roman-2d"/>
       <use x="36.083984375" xlink:href="#BitstreamVeraSans-Roman-32"/>
      </g>
     </g>
    </g>
    <g id="ytick_3">
     <g id="line2d_25">
      <path clip-path="url(#p4841723a49)" d="M 44.054646 121.854388 
L 501.165354 121.854388 
" style="fill:none;stroke:#000000;stroke-dasharray:1.000000,3.000000;stroke-dashoffset:0.0;stroke-width:0.5;"/>
     </g>
     <g id="line2d_26">
      <g>
       <use style="stroke:#000000;stroke-width:0.5;" x="44.0546456693" xlink:href="#mc26f782d00" y="121.854387578"/>
      </g>
     </g>
     <g id="line2d_27">
      <g>
       <use style="stroke:#000000;stroke-width:0.5;" x="501.165354331" xlink:href="#m2bebc10e1f" y="121.854387578"/>
      </g>
     </g>
     <g id="text_10">
      <!-- 0 -->
      <g transform="translate(30.5108956693 125.993450078)scale(0.15 -0.15)">
       <use xlink:href="#BitstreamVeraSans-Roman-30"/>
      </g>
     </g>
    </g>
    <g id="text_11">
     <!-- Longitudinal Acceleration (m/s^2) -->
     <defs>
      <path d="M 48.78125 52.59375 
L 48.78125 44.1875 
Q 44.96875 46.296875 41.140625 47.34375 
Q 37.3125 48.390625 33.40625 48.390625 
Q 24.65625 48.390625 19.8125 42.84375 
Q 14.984375 37.3125 14.984375 27.296875 
Q 14.984375 17.28125 19.8125 11.734375 
Q 24.65625 6.203125 33.40625 6.203125 
Q 37.3125 6.203125 41.140625 7.25 
Q 44.96875 8.296875 48.78125 10.40625 
L 48.78125 2.09375 
Q 45.015625 0.34375 40.984375 -0.53125 
Q 36.96875 -1.421875 32.421875 -1.421875 
Q 20.0625 -1.421875 12.78125 6.34375 
Q 5.515625 14.109375 5.515625 27.296875 
Q 5.515625 40.671875 12.859375 48.328125 
Q 20.21875 56 33.015625 56 
Q 37.15625 56 41.109375 55.140625 
Q 45.0625 54.296875 48.78125 52.59375 
" id="BitstreamVeraSans-Roman-63"/>
      <path d="M 30.609375 48.390625 
Q 23.390625 48.390625 19.1875 42.75 
Q 14.984375 37.109375 14.984375 27.296875 
Q 14.984375 17.484375 19.15625 11.84375 
Q 23.34375 6.203125 30.609375 6.203125 
Q 37.796875 6.203125 41.984375 11.859375 
Q 46.1875 17.53125 46.1875 27.296875 
Q 46.1875 37.015625 41.984375 42.703125 
Q 37.796875 48.390625 30.609375 48.390625 
M 30.609375 56 
Q 42.328125 56 49.015625 48.375 
Q 55.71875 40.765625 55.71875 27.296875 
Q 55.71875 13.875 49.015625 6.21875 
Q 42.328125 -1.421875 30.609375 -1.421875 
Q 18.84375 -1.421875 12.171875 6.21875 
Q 5.515625 13.875 5.515625 27.296875 
Q 5.515625 40.765625 12.171875 48.375 
Q 18.84375 56 30.609375 56 
" id="BitstreamVeraSans-Roman-6f"/>
      <path d="M 45.40625 46.390625 
L 45.40625 75.984375 
L 54.390625 75.984375 
L 54.390625 0 
L 45.40625 0 
L 45.40625 8.203125 
Q 42.578125 3.328125 38.25 0.953125 
Q 33.9375 -1.421875 27.875 -1.421875 
Q 17.96875 -1.421875 11.734375 6.484375 
Q 5.515625 14.40625 5.515625 27.296875 
Q 5.515625 40.1875 11.734375 48.09375 
Q 17.96875 56 27.875 56 
Q 33.9375 56 38.25 53.625 
Q 42.578125 51.265625 45.40625 46.390625 
M 14.796875 27.296875 
Q 14.796875 17.390625 18.875 11.75 
Q 22.953125 6.109375 30.078125 6.109375 
Q 37.203125 6.109375 41.296875 11.75 
Q 45.40625 17.390625 45.40625 27.296875 
Q 45.40625 37.203125 41.296875 42.84375 
Q 37.203125 48.484375 30.078125 48.484375 
Q 22.953125 48.484375 18.875 42.84375 
Q 14.796875 37.203125 14.796875 27.296875 
" id="BitstreamVeraSans-Roman-64"/>
      <path d="M 8.5 21.578125 
L 8.5 54.6875 
L 17.484375 54.6875 
L 17.484375 21.921875 
Q 17.484375 14.15625 20.5 10.265625 
Q 23.53125 6.390625 29.59375 6.390625 
Q 36.859375 6.390625 41.078125 11.03125 
Q 45.3125 15.671875 45.3125 23.6875 
L 45.3125 54.6875 
L 54.296875 54.6875 
L 54.296875 0 
L 45.3125 0 
L 45.3125 8.40625 
Q 42.046875 3.421875 37.71875 1 
Q 33.40625 -1.421875 27.6875 -1.421875 
Q 18.265625 -1.421875 13.375 4.4375 
Q 8.5 10.296875 8.5 21.578125 
" id="BitstreamVeraSans-Roman-75"/>
      <path d="M 34.1875 63.1875 
L 20.796875 26.90625 
L 47.609375 26.90625 
z
M 28.609375 72.90625 
L 39.796875 72.90625 
L 67.578125 0 
L 57.328125 0 
L 50.6875 18.703125 
L 17.828125 18.703125 
L 11.1875 0 
L 0.78125 0 
z
" id="BitstreamVeraSans-Roman-41"/>
      <path d="M 45.40625 27.984375 
Q 45.40625 37.75 41.375 43.109375 
Q 37.359375 48.484375 30.078125 48.484375 
Q 22.859375 48.484375 18.828125 43.109375 
Q 14.796875 37.75 14.796875 27.984375 
Q 14.796875 18.265625 18.828125 12.890625 
Q 22.859375 7.515625 30.078125 7.515625 
Q 37.359375 7.515625 41.375 12.890625 
Q 45.40625 18.265625 45.40625 27.984375 
M 54.390625 6.78125 
Q 54.390625 -7.171875 48.1875 -13.984375 
Q 42 -20.796875 29.203125 -20.796875 
Q 24.46875 -20.796875 20.265625 -20.09375 
Q 16.0625 -19.390625 12.109375 -17.921875 
L 12.109375 -9.1875 
Q 16.0625 -11.328125 19.921875 -12.34375 
Q 23.78125 -13.375 27.78125 -13.375 
Q 36.625 -13.375 41.015625 -8.765625 
Q 45.40625 -4.15625 45.40625 5.171875 
L 45.40625 9.625 
Q 42.625 4.78125 38.28125 2.390625 
Q 33.9375 0 27.875 0 
Q 17.828125 0 11.671875 7.65625 
Q 5.515625 15.328125 5.515625 27.984375 
Q 5.515625 40.671875 11.671875 48.328125 
Q 17.828125 56 27.875 56 
Q 33.9375 56 38.28125 53.609375 
Q 42.625 51.21875 45.40625 46.390625 
L 45.40625 54.6875 
L 54.390625 54.6875 
z
" id="BitstreamVeraSans-Roman-67"/>
      <path d="M 25.390625 72.90625 
L 33.6875 72.90625 
L 8.296875 -9.28125 
L 0 -9.28125 
z
" id="BitstreamVeraSans-Roman-2f"/>
      <path d="M 9.8125 72.90625 
L 19.671875 72.90625 
L 19.671875 8.296875 
L 55.171875 8.296875 
L 55.171875 0 
L 9.8125 0 
z
" id="BitstreamVeraSans-Roman-4c"/>
      <path d="M 54.890625 33.015625 
L 54.890625 0 
L 45.90625 0 
L 45.90625 32.71875 
Q 45.90625 40.484375 42.875 44.328125 
Q 39.84375 48.1875 33.796875 48.1875 
Q 26.515625 48.1875 22.3125 43.546875 
Q 18.109375 38.921875 18.109375 30.90625 
L 18.109375 0 
L 9.078125 0 
L 9.078125 54.6875 
L 18.109375 54.6875 
L 18.109375 46.1875 
Q 21.34375 51.125 25.703125 53.5625 
Q 30.078125 56 35.796875 56 
Q 45.21875 56 50.046875 50.171875 
Q 54.890625 44.34375 54.890625 33.015625 
" id="BitstreamVeraSans-Roman-6e"/>
      <path d="M 34.28125 27.484375 
Q 23.390625 27.484375 19.1875 25 
Q 14.984375 22.515625 14.984375 16.5 
Q 14.984375 11.71875 18.140625 8.90625 
Q 21.296875 6.109375 26.703125 6.109375 
Q 34.1875 6.109375 38.703125 11.40625 
Q 43.21875 16.703125 43.21875 25.484375 
L 43.21875 27.484375 
z
M 52.203125 31.203125 
L 52.203125 0 
L 43.21875 0 
L 43.21875 8.296875 
Q 40.140625 3.328125 35.546875 0.953125 
Q 30.953125 -1.421875 24.3125 -1.421875 
Q 15.921875 -1.421875 10.953125 3.296875 
Q 6 8.015625 6 15.921875 
Q 6 25.140625 12.171875 29.828125 
Q 18.359375 34.515625 30.609375 34.515625 
L 43.21875 34.515625 
L 43.21875 35.40625 
Q 43.21875 41.609375 39.140625 45 
Q 35.0625 48.390625 27.6875 48.390625 
Q 23 48.390625 18.546875 47.265625 
Q 14.109375 46.140625 10.015625 43.890625 
L 10.015625 52.203125 
Q 14.9375 54.109375 19.578125 55.046875 
Q 24.21875 56 28.609375 56 
Q 40.484375 56 46.34375 49.84375 
Q 52.203125 43.703125 52.203125 31.203125 
" id="BitstreamVeraSans-Roman-61"/>
      <path d="M 9.421875 75.984375 
L 18.40625 75.984375 
L 18.40625 0 
L 9.421875 0 
z
" id="BitstreamVeraSans-Roman-6c"/>
      <path d="M 41.109375 46.296875 
Q 39.59375 47.171875 37.8125 47.578125 
Q 36.03125 48 33.890625 48 
Q 26.265625 48 22.1875 43.046875 
Q 18.109375 38.09375 18.109375 28.8125 
L 18.109375 0 
L 9.078125 0 
L 9.078125 54.6875 
L 18.109375 54.6875 
L 18.109375 46.1875 
Q 20.953125 51.171875 25.484375 53.578125 
Q 30.03125 56 36.53125 56 
Q 37.453125 56 38.578125 55.875 
Q 39.703125 55.765625 41.0625 55.515625 
z
" id="BitstreamVeraSans-Roman-72"/>
      <path d="M 46.6875 72.90625 
L 73.1875 45.703125 
L 63.375 45.703125 
L 41.890625 64.984375 
L 20.40625 45.703125 
L 10.59375 45.703125 
L 37.109375 72.90625 
z
" id="BitstreamVeraSans-Roman-5e"/>
     </defs>
     <g transform="translate(16.5637081693 377.27828125)rotate(-90.0)scale(0.17 -0.17)">
      <use xlink:href="#BitstreamVeraSans-Roman-4c"/>
      <use x="55.697265625" xlink:href="#BitstreamVeraSans-Roman-6f"/>
      <use x="116.87890625" xlink:href="#BitstreamVeraSans-Roman-6e"/>
      <use x="180.2578125" xlink:href="#BitstreamVeraSans-Roman-67"/>
      <use x="243.734375" xlink:href="#BitstreamVeraSans-Roman-69"/>
      <use x="271.517578125" xlink:href="#BitstreamVeraSans-Roman-74"/>
      <use x="310.7265625" xlink:href="#BitstreamVeraSans-Roman-75"/>
      <use x="374.10546875" xlink:href="#BitstreamVeraSans-Roman-64"/>
      <use x="437.58203125" xlink:href="#BitstreamVeraSans-Roman-69"/>
      <use x="465.365234375" xlink:href="#BitstreamVeraSans-Roman-6e"/>
      <use x="528.744140625" xlink:href="#BitstreamVeraSans-Roman-61"/>
      <use x="590.0234375" xlink:href="#BitstreamVeraSans-Roman-6c"/>
      <use x="617.806640625" xlink:href="#BitstreamVeraSans-Roman-20"/>
      <use x="649.59375" xlink:href="#BitstreamVeraSans-Roman-41"/>
      <use x="717.986328125" xlink:href="#BitstreamVeraSans-Roman-63"/>
      <use x="772.966796875" xlink:href="#BitstreamVeraSans-Roman-63"/>
      <use x="827.947265625" xlink:href="#BitstreamVeraSans-Roman-65"/>
      <use x="889.470703125" xlink:href="#BitstreamVeraSans-Roman-6c"/>
      <use x="917.25390625" xlink:href="#BitstreamVeraSans-Roman-65"/>
      <use x="978.77734375" xlink:href="#BitstreamVeraSans-Roman-72"/>
      <use x="1019.890625" xlink:href="#BitstreamVeraSans-Roman-61"/>
      <use x="1081.169921875" xlink:href="#BitstreamVeraSans-Roman-74"/>
      <use x="1120.37890625" xlink:href="#BitstreamVeraSans-Roman-69"/>
      <use x="1148.162109375" xlink:href="#BitstreamVeraSans-Roman-6f"/>
      <use x="1209.34375" xlink:href="#BitstreamVeraSans-Roman-6e"/>
      <use x="1272.72265625" xlink:href="#BitstreamVeraSans-Roman-20"/>
      <use x="1304.509765625" xlink:href="#BitstreamVeraSans-Roman-28"/>
      <use x="1343.5234375" xlink:href="#BitstreamVeraSans-Roman-6d"/>
      <use x="1440.935546875" xlink:href="#BitstreamVeraSans-Roman-2f"/>
      <use x="1474.626953125" xlink:href="#BitstreamVeraSans-Roman-73"/>
      <use x="1526.7265625" xlink:href="#BitstreamVeraSans-Roman-5e"/>
      <use x="1610.515625" xlink:href="#BitstreamVeraSans-Roman-32"/>
      <use x="1674.138671875" xlink:href="#BitstreamVeraSans-Roman-29"/>
     </g>
    </g>
   </g>
   <g id="line2d_28">
    <path clip-path="url(#p4841723a49)" d="M 44.054646 444.36007 
L 85.610165 444.250445 
L 85.610165 444.250445 
L 97.48317 444.036427 
L 109.356175 443.595725 
L 124.197432 443.047918 
L 135.476787 442.865153 
L 187.124361 442.473124 
L 209.089421 442.340999 
L 227.492579 442.435566 
L 236.990984 442.205313 
L 245.895738 441.764405 
L 253.613191 441.152952 
L 275.578251 439.134217 
L 283.889355 438.665366 
L 291.606809 438.44521 
L 299.917912 438.437747 
L 307.041716 438.64568 
L 343.254382 440.166118 
L 396.682907 441.545953 
L 406.774961 441.724797 
L 429.333672 442.249151 
L 450.111431 442.383067 
L 491.0733 442.509409 
L 501.165354 442.500729 
L 501.165354 442.500729 
" style="fill:none;stroke:#009afa;stroke-linecap:round;stroke-width:3.0;"/>
   </g>
   <g id="line2d_29">
    <path clip-path="url(#p4841723a49)" d="M 44.054646 39.558928 
L 73.143509 39.450976 
L 82.641913 39.066784 
L 89.765717 38.616302 
L 94.514919 38.069896 
L 99.264121 37.287845 
L 104.013323 36.25504 
L 108.762525 34.970414 
L 116.479979 32.856291 
L 121.229181 31.804501 
L 125.978383 30.997817 
L 130.727585 30.429567 
L 134.883137 30.144024 
L 140.22599 30.028845 
L 147.349793 29.845741 
L 172.283104 28.602351 
L 192.467213 27.325293 
L 198.403716 26.811451 
L 202.559268 26.709299 
L 207.30847 26.847004 
L 213.244973 27.274527 
L 218.587825 27.663478 
L 222.743377 27.720056 
L 226.898929 27.549015 
L 231.054481 27.147598 
L 231.054481 27.147598 
L 235.210033 26.510086 
L 239.365585 25.625837 
L 242.927486 24.660551 
L 246.489388 23.49152 
L 250.05129 22.104209 
L 254.206842 20.227415 
L 264.298896 15.375943 
L 268.454448 13.697919 
L 272.61 12.277905 
L 272.61 12.277905 
L 277.952852 10.746205 
L 282.108404 9.815221 
L 286.263956 9.134745 
L 290.419508 8.702753 
L 294.57506 8.519069 
L 298.730612 8.544766 
L 302.292514 8.771105 
L 305.854415 9.218578 
L 310.009967 9.985949 
L 321.289322 12.235052 
L 340.286131 15.434905 
L 348.597235 16.462702 
L 361.06389 17.941776 
L 381.84165 21.389259 
L 387.184502 21.958344 
L 393.121005 22.373361 
L 403.21306 23.004171 
L 408.555912 23.756901 
L 422.209868 25.714271 
L 427.552721 26.278144 
L 432.895573 26.621808 
L 441.206677 26.888124 
L 479.200294 27.922425 
L 492.2606 27.938597 
L 501.165354 27.893587 
L 501.165354 27.893587 
" style="fill:none;stroke:#e36f47;stroke-linecap:round;stroke-width:3.0;"/>
   </g>
   <g id="patch_3">
    <path d="M 44.054646 460.485354 
L 44.054646 2.834646 
" style="fill:none;stroke:#000000;stroke-linecap:square;stroke-linejoin:miter;"/>
   </g>
   <g id="patch_4">
    <path d="M 501.165354 460.485354 
L 501.165354 2.834646 
" style="fill:none;stroke:#000000;stroke-linecap:square;stroke-linejoin:miter;"/>
   </g>
   <g id="patch_5">
    <path d="M 44.054646 460.485354 
L 501.165354 460.485354 
" style="fill:none;stroke:#000000;stroke-linecap:square;stroke-linejoin:miter;"/>
   </g>
   <g id="patch_6">
    <path d="M 44.054646 2.834646 
L 501.165354 2.834646 
" style="fill:none;stroke:#000000;stroke-linecap:square;stroke-linejoin:miter;"/>
   </g>
   <g id="line2d_30">
    <path clip-path="url(#p4841723a49)" d="M 44.054646 121.854388 
L 64.832405 121.854388 
L 64.832405 121.854388 
L 65.426055 122.680378 
L 66.613356 125.759424 
L 68.394307 131.560567 
L 74.330809 151.689347 
L 76.11176 156.761055 
L 77.299061 159.588863 
L 78.486361 161.748459 
L 79.080012 162.400908 
L 80.267312 163.078721 
L 80.860962 163.625842 
L 82.048263 165.393611 
L 84.422864 169.50104 
L 85.610165 171.606819 
L 85.610165 171.606819 
L 86.797465 179.570099 
L 87.984766 188.806429 
L 95.108569 251.45596 
L 105.794274 345.286377 
L 106.387924 350.103615 
L 106.387924 350.103615 
L 106.981574 353.420211 
L 107.575225 355.668409 
L 108.168875 356.968709 
L 108.762525 357.25396 
L 109.356175 356.388523 
L 109.949826 354.965514 
L 110.543476 353.12775 
L 111.730777 348.261351 
L 112.918077 341.644643 
L 114.105378 333.157242 
L 115.886328 317.908362 
L 126.572033 223.129428 
L 127.165684 218.470793 
L 127.165684 218.470793 
L 128.352984 210.683952 
L 129.540285 200.830234 
L 135.476787 148.801672 
L 136.664088 140.203203 
L 137.257738 136.764007 
L 137.851388 133.997735 
L 138.445039 131.85626 
L 139.038689 130.339585 
L 139.632339 129.447708 
L 140.22599 129.186383 
L 140.81964 129.704551 
L 141.41329 130.93995 
L 142.00694 132.730211 
L 143.194241 137.393788 
L 146.162492 150.012567 
L 147.349793 153.775975 
L 147.943443 155.274287 
L 147.943443 155.274287 
L 149.130744 155.15941 
L 150.318044 155.281762 
L 153.879946 155.861371 
L 159.222798 156.679171 
L 161.597399 157.309165 
L 163.37835 157.923177 
L 165.159301 158.710395 
L 165.752951 158.825551 
L 166.346601 158.79438 
L 166.940252 158.593848 
L 167.533902 158.21464 
L 168.127552 157.66117 
L 168.721203 156.951571 
L 168.721203 156.951571 
L 169.314853 158.568083 
L 169.908503 159.853087 
L 170.502153 160.788741 
L 171.689454 162.020575 
L 172.283104 162.423244 
L 172.876754 162.684079 
L 173.470405 162.808498 
L 174.064055 162.785356 
L 174.657705 162.62061 
L 175.845006 161.991096 
L 177.032306 161.366365 
L 178.219607 161.07274 
L 179.406907 161.086554 
L 180.594208 161.42615 
L 181.781509 162.036726 
L 184.15611 163.666749 
L 186.530711 165.19802 
L 188.905312 166.46714 
L 189.498962 166.744262 
L 189.498962 166.744262 
L 191.873563 186.303917 
L 192.467213 189.690467 
L 193.060864 191.547048 
L 193.654514 191.927005 
L 194.248164 190.834001 
L 194.841815 188.032464 
L 195.435465 183.772294 
L 197.216416 167.546751 
L 200.778317 135.746788 
L 203.152918 115.068336 
L 204.933869 101.76589 
L 206.12117 94.154602 
L 207.30847 87.568171 
L 208.495771 82.002624 
L 209.683071 77.427575 
L 210.276722 75.522229 
L 210.276722 75.522229 
L 211.464022 66.643867 
L 212.057672 63.060312 
L 212.651323 60.526949 
L 213.244973 59.345592 
L 213.838623 59.483963 
L 214.432273 61.095137 
L 215.025924 64.071318 
L 216.213224 72.720895 
L 218.587825 93.837762 
L 249.457639 371.31506 
L 250.64494 379.684573 
L 251.832241 386.15888 
L 251.832241 386.15888 
L 253.613191 401.056206 
L 254.206842 404.784401 
L 254.800492 407.299333 
L 255.394142 408.484406 
L 255.987792 408.300295 
L 256.581443 407.009786 
L 257.175093 404.890776 
L 258.362393 399.109799 
L 259.549694 391.820085 
L 260.736995 383.019473 
L 263.111596 362.305148 
L 272.61 277.167983 
L 272.61 277.167983 
L 273.20365 276.012076 
L 273.797301 273.714014 
L 274.984601 267.045371 
L 276.765552 255.06739 
L 286.263956 185.7401 
L 292.794109 139.811928 
L 293.387759 135.517433 
L 293.387759 135.517433 
L 293.98141 134.624038 
L 294.57506 131.708898 
L 298.136962 109.580781 
L 299.917912 96.663696 
L 301.698863 82.095388 
L 305.854415 47.305996 
L 307.635366 34.072025 
L 308.822667 27.042401 
L 310.009967 21.88312 
L 310.603617 19.989061 
L 311.197268 18.552057 
L 311.790918 17.572107 
L 312.384568 17.032253 
L 314.165519 16.29064 
L 314.165519 16.29064 
L 314.759169 17.599785 
L 315.94647 21.636049 
L 317.727421 27.769176 
L 318.914721 31.067083 
L 319.508371 32.343309 
L 320.102022 33.303497 
L 320.695672 33.889854 
L 321.289322 34.14897 
L 322.476623 34.278754 
L 323.663923 34.188911 
L 324.851224 33.84196 
L 326.632175 32.81425 
L 327.819475 32.181092 
L 329.006776 31.785163 
L 330.194076 31.624401 
L 331.381377 31.686543 
L 334.349628 31.967903 
L 334.943278 31.986679 
L 334.943278 31.986679 
L 335.536929 33.263161 
L 336.724229 37.317257 
L 338.50518 43.41993 
L 339.692481 46.947407 
L 340.879781 49.911064 
L 342.067082 52.245678 
L 343.848033 55.134586 
L 345.628983 57.4935 
L 348.003584 60.016643 
L 352.159136 64.416177 
L 355.721038 68.084718 
L 355.721038 68.084718 
L 357.501989 53.297665 
L 359.28294 38.593505 
L 360.47024 30.945334 
L 361.657541 25.426787 
L 362.251191 23.498363 
L 362.844841 22.137077 
L 363.438491 21.343741 
L 364.032142 21.091725 
L 364.625792 21.294235 
L 366.406743 22.8443 
L 367.000393 22.997241 
L 368.187694 23.013097 
L 368.781344 22.857001 
L 369.968644 22.270128 
L 370.562295 22.18899 
L 371.155945 22.25856 
L 371.749595 22.484241 
L 372.343246 22.952523 
L 374.124196 24.719063 
L 374.717847 25.081366 
L 375.311497 25.243109 
L 375.905147 25.203677 
L 376.498797 24.996965 
L 376.498797 24.996965 
L 377.092448 26.650313 
L 378.279748 32.084266 
L 381.84165 46.334685 
L 385.403551 61.95116 
L 387.778153 71.372693 
L 390.152754 79.696155 
L 393.121005 89.200527 
L 395.495606 96.167609 
L 397.276557 100.923014 
L 397.276557 100.923014 
L 399.651158 80.513791 
L 403.21306 50.183604 
L 404.40036 40.901826 
L 405.587661 33.656129 
L 406.181311 30.941389 
L 406.774961 28.832751 
L 407.368612 27.366506 
L 407.962262 26.655141 
L 408.555912 26.667393 
L 409.149562 27.157978 
L 410.930513 29.219567 
L 411.524163 29.40461 
L 412.117814 28.987837 
L 413.305114 27.750866 
L 413.898764 27.5743 
L 414.492415 27.851618 
L 415.086065 28.509401 
L 415.679715 29.376994 
L 416.273366 29.845586 
L 416.867016 29.650036 
L 417.460666 29.076945 
L 418.054316 28.964656 
L 418.054316 28.964656 
L 418.647967 30.066505 
L 419.835267 33.686192 
L 420.428917 34.75169 
L 421.022568 35.551129 
L 421.616218 36.817387 
L 422.209868 38.636972 
L 422.803519 41.08382 
L 423.990819 47.541823 
L 425.77177 57.387503 
L 428.740021 72.446921 
L 430.520972 80.715213 
L 432.895573 90.562603 
L 434.082874 94.84886 
L 435.863825 100.247205 
L 436.457475 101.839752 
L 437.051125 102.93364 
L 437.644775 103.4814 
L 438.832076 103.893037 
L 438.832076 103.893037 
L 439.425726 103.837984 
L 440.019376 103.585531 
L 440.613027 102.94891 
L 442.393978 100.443821 
L 443.581278 99.163531 
L 444.768579 98.133137 
L 445.955879 97.498738 
L 447.14318 97.316859 
L 448.33048 97.567079 
L 449.517781 98.222327 
L 451.298732 99.59409 
L 451.892382 100.147261 
L 452.486032 100.485518 
L 453.079682 100.446123 
L 455.454283 99.372155 
L 456.641584 99.002068 
L 457.828885 98.891133 
L 459.016185 99.11467 
L 459.609835 99.365768 
L 459.609835 99.365768 
L 460.797136 99.506825 
L 461.390786 99.752619 
L 462.578087 100.601465 
L 463.765387 101.809848 
L 464.952688 103.386075 
L 466.733639 105.903403 
L 467.920939 107.009595 
L 468.514589 107.302328 
L 469.70189 107.659525 
L 470.889191 108.380233 
L 472.076491 109.389358 
L 473.857442 111.359037 
L 476.232043 114.13506 
L 476.825693 114.53927 
L 478.606644 114.858216 
L 480.387595 115.854898 
L 480.387595 115.854898 
L 480.981245 116.154138 
L 482.168546 117.544624 
L 483.949496 119.790867 
L 484.543147 120.112249 
L 485.730447 121.245494 
L 487.511398 123.200844 
L 488.698699 123.745928 
L 489.885999 124.664097 
L 491.0733 125.593786 
L 494.635201 127.013904 
L 495.228852 127.139024 
L 495.822502 127.11218 
L 496.416152 126.922 
L 497.009802 126.567539 
L 497.603453 126.048745 
L 498.790753 124.518159 
L 499.978054 122.330243 
L 501.165354 119.484995 
L 501.165354 119.484995 
" style="fill:none;stroke:#3ea44e;stroke-linecap:round;stroke-width:3.0;"/>
   </g>
   <g id="legend_1">
    <g id="patch_7">
     <path d="M 390.875979 259.880625 
L 495.165354 259.880625 
L 495.165354 203.439375 
L 390.875979 203.439375 
z
" style="fill:#ffffff;stroke:#000000;stroke-linejoin:miter;"/>
    </g>
    <g id="line2d_31">
     <path d="M 399.275979 213.1575 
L 416.075979 213.1575 
" style="fill:none;stroke:#009afa;stroke-linecap:round;stroke-width:3.0;"/>
    </g>
    <g id="line2d_32"/>
    <g id="text_12">
     <!-- min-plant -->
     <defs>
      <path d="M 18.109375 8.203125 
L 18.109375 -20.796875 
L 9.078125 -20.796875 
L 9.078125 54.6875 
L 18.109375 54.6875 
L 18.109375 46.390625 
Q 20.953125 51.265625 25.265625 53.625 
Q 29.59375 56 35.59375 56 
Q 45.5625 56 51.78125 48.09375 
Q 58.015625 40.1875 58.015625 27.296875 
Q 58.015625 14.40625 51.78125 6.484375 
Q 45.5625 -1.421875 35.59375 -1.421875 
Q 29.59375 -1.421875 25.265625 0.953125 
Q 20.953125 3.328125 18.109375 8.203125 
M 48.6875 27.296875 
Q 48.6875 37.203125 44.609375 42.84375 
Q 40.53125 48.484375 33.40625 48.484375 
Q 26.265625 48.484375 22.1875 42.84375 
Q 18.109375 37.203125 18.109375 27.296875 
Q 18.109375 17.390625 22.1875 11.75 
Q 26.265625 6.109375 33.40625 6.109375 
Q 40.53125 6.109375 44.609375 11.75 
Q 48.6875 17.390625 48.6875 27.296875 
" id="BitstreamVeraSans-Roman-70"/>
     </defs>
     <g transform="translate(429.275979331 217.3575)scale(0.12 -0.12)">
      <use xlink:href="#BitstreamVeraSans-Roman-6d"/>
      <use x="97.412109375" xlink:href="#BitstreamVeraSans-Roman-69"/>
      <use x="125.1953125" xlink:href="#BitstreamVeraSans-Roman-6e"/>
      <use x="188.57421875" xlink:href="#BitstreamVeraSans-Roman-2d"/>
      <use x="224.658203125" xlink:href="#BitstreamVeraSans-Roman-70"/>
      <use x="288.134765625" xlink:href="#BitstreamVeraSans-Roman-6c"/>
      <use x="315.91796875" xlink:href="#BitstreamVeraSans-Roman-61"/>
      <use x="377.197265625" xlink:href="#BitstreamVeraSans-Roman-6e"/>
      <use x="440.576171875" xlink:href="#BitstreamVeraSans-Roman-74"/>
     </g>
    </g>
    <g id="line2d_33">
     <path d="M 399.275979 230.77125 
L 416.075979 230.77125 
" style="fill:none;stroke:#e36f47;stroke-linecap:round;stroke-width:3.0;"/>
    </g>
    <g id="line2d_34"/>
    <g id="text_13">
     <!-- max-plant -->
     <defs>
      <path d="M 54.890625 54.6875 
L 35.109375 28.078125 
L 55.90625 0 
L 45.3125 0 
L 29.390625 21.484375 
L 13.484375 0 
L 2.875 0 
L 24.125 28.609375 
L 4.6875 54.6875 
L 15.28125 54.6875 
L 29.78125 35.203125 
L 44.28125 54.6875 
z
" id="BitstreamVeraSans-Roman-78"/>
     </defs>
     <g transform="translate(429.275979331 234.97125)scale(0.12 -0.12)">
      <use xlink:href="#BitstreamVeraSans-Roman-6d"/>
      <use x="97.412109375" xlink:href="#BitstreamVeraSans-Roman-61"/>
      <use x="158.69140625" xlink:href="#BitstreamVeraSans-Roman-78"/>
      <use x="217.87109375" xlink:href="#BitstreamVeraSans-Roman-2d"/>
      <use x="253.955078125" xlink:href="#BitstreamVeraSans-Roman-70"/>
      <use x="317.431640625" xlink:href="#BitstreamVeraSans-Roman-6c"/>
      <use x="345.21484375" xlink:href="#BitstreamVeraSans-Roman-61"/>
      <use x="406.494140625" xlink:href="#BitstreamVeraSans-Roman-6e"/>
      <use x="469.873046875" xlink:href="#BitstreamVeraSans-Roman-74"/>
     </g>
    </g>
    <g id="line2d_35">
     <path d="M 399.275979 248.385 
L 416.075979 248.385 
" style="fill:none;stroke:#3ea44e;stroke-linecap:round;stroke-width:3.0;"/>
    </g>
    <g id="line2d_36"/>
    <g id="text_14">
     <!-- plant -->
     <g transform="translate(429.275979331 252.585)scale(0.12 -0.12)">
      <use xlink:href="#BitstreamVeraSans-Roman-70"/>
      <use x="63.4765625" xlink:href="#BitstreamVeraSans-Roman-6c"/>
      <use x="91.259765625" xlink:href="#BitstreamVeraSans-Roman-61"/>
      <use x="152.5390625" xlink:href="#BitstreamVeraSans-Roman-6e"/>
      <use x="215.91796875" xlink:href="#BitstreamVeraSans-Roman-74"/>
     </g>
    </g>
   </g>
  </g>
 </g>
 <defs>
  <clipPath id="p4841723a49">
   <rect height="457.650708661" width="457.110708661" x="44.0546456693" y="2.83464566929"/>
  </clipPath>
 </defs>
</svg>
