<?xml version="1.0" encoding="utf-8" standalone="no"?>
<!DOCTYPE svg PUBLIC "-//W3C//DTD SVG 1.1//EN"
  "http://www.w3.org/Graphics/SVG/1.1/DTD/svg11.dtd">
<!-- Created with matplotlib (http://matplotlib.org/) -->
<svg height="504pt" version="1.1" viewBox="0 0 504 504" width="504pt" xmlns="http://www.w3.org/2000/svg" xmlns:xlink="http://www.w3.org/1999/xlink">
 <defs>
  <style type="text/css">
*{stroke-linecap:butt;stroke-linejoin:round;stroke-miterlimit:100000;}
  </style>
 </defs>
 <g id="figure_1">
  <g id="patch_1">
   <path d="M 0 504 
L 504 504 
L 504 0 
L 0 0 
z
" style="fill:#ffffff;"/>
  </g>
  <g id="axes_1">
   <g id="patch_2">
    <path d="M 58.364646 460.485354 
L 501.165354 460.485354 
L 501.165354 2.834646 
L 58.364646 2.834646 
z
" style="fill:#ffffff;"/>
   </g>
   <g id="matplotlib.axis_1">
    <g id="xtick_1">
     <g id="line2d_1">
      <path clip-path="url(#paf58967072)" d="M 58.364646 460.485354 
L 58.364646 2.834646 
" style="fill:none;stroke:#000000;stroke-dasharray:1.000000,3.000000;stroke-dashoffset:0.0;stroke-width:0.5;"/>
     </g>
     <g id="line2d_2">
      <defs>
       <path d="M 0 0 
L 0 -4 
" id="m49cb852458" style="stroke:#000000;stroke-width:0.5;"/>
      </defs>
      <g>
       <use style="stroke:#000000;stroke-width:0.5;" x="58.3646456693" xlink:href="#m49cb852458" y="460.485354331"/>
      </g>
     </g>
     <g id="line2d_3">
      <defs>
       <path d="M 0 0 
L 0 4 
" id="mef5ad5779a" style="stroke:#000000;stroke-width:0.5;"/>
      </defs>
      <g>
       <use style="stroke:#000000;stroke-width:0.5;" x="58.3646456693" xlink:href="#mef5ad5779a" y="2.83464566929"/>
      </g>
     </g>
     <g id="text_1">
      <!-- 0 -->
      <defs>
       <path d="M 31.78125 66.40625 
Q 24.171875 66.40625 20.328125 58.90625 
Q 16.5 51.421875 16.5 36.375 
Q 16.5 21.390625 20.328125 13.890625 
Q 24.171875 6.390625 31.78125 6.390625 
Q 39.453125 6.390625 43.28125 13.890625 
Q 47.125 21.390625 47.125 36.375 
Q 47.125 51.421875 43.28125 58.90625 
Q 39.453125 66.40625 31.78125 66.40625 
M 31.78125 74.21875 
Q 44.046875 74.21875 50.515625 64.515625 
Q 56.984375 54.828125 56.984375 36.375 
Q 56.984375 17.96875 50.515625 8.265625 
Q 44.046875 -1.421875 31.78125 -1.421875 
Q 19.53125 -1.421875 13.0625 8.265625 
Q 6.59375 17.96875 6.59375 36.375 
Q 6.59375 54.828125 13.0625 64.515625 
Q 19.53125 74.21875 31.78125 74.21875 
" id="BitstreamVeraSans-Roman-30"/>
      </defs>
      <g transform="translate(53.5927706693 475.883010581)scale(0.15 -0.15)">
       <use xlink:href="#BitstreamVeraSans-Roman-30"/>
      </g>
     </g>
    </g>
    <g id="xtick_2">
     <g id="line2d_4">
      <path clip-path="url(#paf58967072)" d="M 138.873865 460.485354 
L 138.873865 2.834646 
" style="fill:none;stroke:#000000;stroke-dasharray:1.000000,3.000000;stroke-dashoffset:0.0;stroke-width:0.5;"/>
     </g>
     <g id="line2d_5">
      <g>
       <use style="stroke:#000000;stroke-width:0.5;" x="138.873865426" xlink:href="#m49cb852458" y="460.485354331"/>
      </g>
     </g>
     <g id="line2d_6">
      <g>
       <use style="stroke:#000000;stroke-width:0.5;" x="138.873865426" xlink:href="#mef5ad5779a" y="2.83464566929"/>
      </g>
     </g>
     <g id="text_2">
      <!-- 2 -->
      <defs>
       <path d="M 19.1875 8.296875 
L 53.609375 8.296875 
L 53.609375 0 
L 7.328125 0 
L 7.328125 8.296875 
Q 12.9375 14.109375 22.625 23.890625 
Q 32.328125 33.6875 34.8125 36.53125 
Q 39.546875 41.84375 41.421875 45.53125 
Q 43.3125 49.21875 43.3125 52.78125 
Q 43.3125 58.59375 39.234375 62.25 
Q 35.15625 65.921875 28.609375 65.921875 
Q 23.96875 65.921875 18.8125 64.3125 
Q 13.671875 62.703125 7.8125 59.421875 
L 7.8125 69.390625 
Q 13.765625 71.78125 18.9375 73 
Q 24.125 74.21875 28.421875 74.21875 
Q 39.75 74.21875 46.484375 68.546875 
Q 53.21875 62.890625 53.21875 53.421875 
Q 53.21875 48.921875 51.53125 44.890625 
Q 49.859375 40.875 45.40625 35.40625 
Q 44.1875 33.984375 37.640625 27.21875 
Q 31.109375 20.453125 19.1875 8.296875 
" id="BitstreamVeraSans-Roman-32"/>
      </defs>
      <g transform="translate(134.101990426 475.883010581)scale(0.15 -0.15)">
       <use xlink:href="#BitstreamVeraSans-Roman-32"/>
      </g>
     </g>
    </g>
    <g id="xtick_3">
     <g id="line2d_7">
      <path clip-path="url(#paf58967072)" d="M 219.383085 460.485354 
L 219.383085 2.834646 
" style="fill:none;stroke:#000000;stroke-dasharray:1.000000,3.000000;stroke-dashoffset:0.0;stroke-width:0.5;"/>
     </g>
     <g id="line2d_8">
      <g>
       <use style="stroke:#000000;stroke-width:0.5;" x="219.383085183" xlink:href="#m49cb852458" y="460.485354331"/>
      </g>
     </g>
     <g id="line2d_9">
      <g>
       <use style="stroke:#000000;stroke-width:0.5;" x="219.383085183" xlink:href="#mef5ad5779a" y="2.83464566929"/>
      </g>
     </g>
     <g id="text_3">
      <!-- 4 -->
      <defs>
       <path d="M 37.796875 64.3125 
L 12.890625 25.390625 
L 37.796875 25.390625 
z
M 35.203125 72.90625 
L 47.609375 72.90625 
L 47.609375 25.390625 
L 58.015625 25.390625 
L 58.015625 17.1875 
L 47.609375 17.1875 
L 47.609375 0 
L 37.796875 0 
L 37.796875 17.1875 
L 4.890625 17.1875 
L 4.890625 26.703125 
z
" id="BitstreamVeraSans-Roman-34"/>
      </defs>
      <g transform="translate(214.611210183 475.883010581)scale(0.15 -0.15)">
       <use xlink:href="#BitstreamVeraSans-Roman-34"/>
      </g>
     </g>
    </g>
    <g id="xtick_4">
     <g id="line2d_10">
      <path clip-path="url(#paf58967072)" d="M 299.892305 460.485354 
L 299.892305 2.834646 
" style="fill:none;stroke:#000000;stroke-dasharray:1.000000,3.000000;stroke-dashoffset:0.0;stroke-width:0.5;"/>
     </g>
     <g id="line2d_11">
      <g>
       <use style="stroke:#000000;stroke-width:0.5;" x="299.892304939" xlink:href="#m49cb852458" y="460.485354331"/>
      </g>
     </g>
     <g id="line2d_12">
      <g>
       <use style="stroke:#000000;stroke-width:0.5;" x="299.892304939" xlink:href="#mef5ad5779a" y="2.83464566929"/>
      </g>
     </g>
     <g id="text_4">
      <!-- 6 -->
      <defs>
       <path d="M 33.015625 40.375 
Q 26.375 40.375 22.484375 35.828125 
Q 18.609375 31.296875 18.609375 23.390625 
Q 18.609375 15.53125 22.484375 10.953125 
Q 26.375 6.390625 33.015625 6.390625 
Q 39.65625 6.390625 43.53125 10.953125 
Q 47.40625 15.53125 47.40625 23.390625 
Q 47.40625 31.296875 43.53125 35.828125 
Q 39.65625 40.375 33.015625 40.375 
M 52.59375 71.296875 
L 52.59375 62.3125 
Q 48.875 64.0625 45.09375 64.984375 
Q 41.3125 65.921875 37.59375 65.921875 
Q 27.828125 65.921875 22.671875 59.328125 
Q 17.53125 52.734375 16.796875 39.40625 
Q 19.671875 43.65625 24.015625 45.921875 
Q 28.375 48.1875 33.59375 48.1875 
Q 44.578125 48.1875 50.953125 41.515625 
Q 57.328125 34.859375 57.328125 23.390625 
Q 57.328125 12.15625 50.6875 5.359375 
Q 44.046875 -1.421875 33.015625 -1.421875 
Q 20.359375 -1.421875 13.671875 8.265625 
Q 6.984375 17.96875 6.984375 36.375 
Q 6.984375 53.65625 15.1875 63.9375 
Q 23.390625 74.21875 37.203125 74.21875 
Q 40.921875 74.21875 44.703125 73.484375 
Q 48.484375 72.75 52.59375 71.296875 
" id="BitstreamVeraSans-Roman-36"/>
      </defs>
      <g transform="translate(295.120429939 475.883010581)scale(0.15 -0.15)">
       <use xlink:href="#BitstreamVeraSans-Roman-36"/>
      </g>
     </g>
    </g>
    <g id="xtick_5">
     <g id="line2d_13">
      <path clip-path="url(#paf58967072)" d="M 380.401525 460.485354 
L 380.401525 2.834646 
" style="fill:none;stroke:#000000;stroke-dasharray:1.000000,3.000000;stroke-dashoffset:0.0;stroke-width:0.5;"/>
     </g>
     <g id="line2d_14">
      <g>
       <use style="stroke:#000000;stroke-width:0.5;" x="380.401524696" xlink:href="#m49cb852458" y="460.485354331"/>
      </g>
     </g>
     <g id="line2d_15">
      <g>
       <use style="stroke:#000000;stroke-width:0.5;" x="380.401524696" xlink:href="#mef5ad5779a" y="2.83464566929"/>
      </g>
     </g>
     <g id="text_5">
      <!-- 8 -->
      <defs>
       <path d="M 31.78125 34.625 
Q 24.75 34.625 20.71875 30.859375 
Q 16.703125 27.09375 16.703125 20.515625 
Q 16.703125 13.921875 20.71875 10.15625 
Q 24.75 6.390625 31.78125 6.390625 
Q 38.8125 6.390625 42.859375 10.171875 
Q 46.921875 13.96875 46.921875 20.515625 
Q 46.921875 27.09375 42.890625 30.859375 
Q 38.875 34.625 31.78125 34.625 
M 21.921875 38.8125 
Q 15.578125 40.375 12.03125 44.71875 
Q 8.5 49.078125 8.5 55.328125 
Q 8.5 64.0625 14.71875 69.140625 
Q 20.953125 74.21875 31.78125 74.21875 
Q 42.671875 74.21875 48.875 69.140625 
Q 55.078125 64.0625 55.078125 55.328125 
Q 55.078125 49.078125 51.53125 44.71875 
Q 48 40.375 41.703125 38.8125 
Q 48.828125 37.15625 52.796875 32.3125 
Q 56.78125 27.484375 56.78125 20.515625 
Q 56.78125 9.90625 50.3125 4.234375 
Q 43.84375 -1.421875 31.78125 -1.421875 
Q 19.734375 -1.421875 13.25 4.234375 
Q 6.78125 9.90625 6.78125 20.515625 
Q 6.78125 27.484375 10.78125 32.3125 
Q 14.796875 37.15625 21.921875 38.8125 
M 18.3125 54.390625 
Q 18.3125 48.734375 21.84375 45.5625 
Q 25.390625 42.390625 31.78125 42.390625 
Q 38.140625 42.390625 41.71875 45.5625 
Q 45.3125 48.734375 45.3125 54.390625 
Q 45.3125 60.0625 41.71875 63.234375 
Q 38.140625 66.40625 31.78125 66.40625 
Q 25.390625 66.40625 21.84375 63.234375 
Q 18.3125 60.0625 18.3125 54.390625 
" id="BitstreamVeraSans-Roman-38"/>
      </defs>
      <g transform="translate(375.629649696 475.883010581)scale(0.15 -0.15)">
       <use xlink:href="#BitstreamVeraSans-Roman-38"/>
      </g>
     </g>
    </g>
    <g id="xtick_6">
     <g id="line2d_16">
      <path clip-path="url(#paf58967072)" d="M 460.910744 460.485354 
L 460.910744 2.834646 
" style="fill:none;stroke:#000000;stroke-dasharray:1.000000,3.000000;stroke-dashoffset:0.0;stroke-width:0.5;"/>
     </g>
     <g id="line2d_17">
      <g>
       <use style="stroke:#000000;stroke-width:0.5;" x="460.910744452" xlink:href="#m49cb852458" y="460.485354331"/>
      </g>
     </g>
     <g id="line2d_18">
      <g>
       <use style="stroke:#000000;stroke-width:0.5;" x="460.910744452" xlink:href="#mef5ad5779a" y="2.83464566929"/>
      </g>
     </g>
     <g id="text_6">
      <!-- 10 -->
      <defs>
       <path d="M 12.40625 8.296875 
L 28.515625 8.296875 
L 28.515625 63.921875 
L 10.984375 60.40625 
L 10.984375 69.390625 
L 28.421875 72.90625 
L 38.28125 72.90625 
L 38.28125 8.296875 
L 54.390625 8.296875 
L 54.390625 0 
L 12.40625 0 
z
" id="BitstreamVeraSans-Roman-31"/>
      </defs>
      <g transform="translate(451.366994452 475.883010581)scale(0.15 -0.15)">
       <use xlink:href="#BitstreamVeraSans-Roman-31"/>
       <use x="63.623046875" xlink:href="#BitstreamVeraSans-Roman-30"/>
      </g>
     </g>
    </g>
    <g id="text_7">
     <!-- time (s) -->
     <defs>
      <path d="M 18.3125 70.21875 
L 18.3125 54.6875 
L 36.8125 54.6875 
L 36.8125 47.703125 
L 18.3125 47.703125 
L 18.3125 18.015625 
Q 18.3125 11.328125 20.140625 9.421875 
Q 21.96875 7.515625 27.59375 7.515625 
L 36.8125 7.515625 
L 36.8125 0 
L 27.59375 0 
Q 17.1875 0 13.234375 3.875 
Q 9.28125 7.765625 9.28125 18.015625 
L 9.28125 47.703125 
L 2.6875 47.703125 
L 2.6875 54.6875 
L 9.28125 54.6875 
L 9.28125 70.21875 
z
" id="BitstreamVeraSans-Roman-74"/>
      <path d="M 52 44.1875 
Q 55.375 50.25 60.0625 53.125 
Q 64.75 56 71.09375 56 
Q 79.640625 56 84.28125 50.015625 
Q 88.921875 44.046875 88.921875 33.015625 
L 88.921875 0 
L 79.890625 0 
L 79.890625 32.71875 
Q 79.890625 40.578125 77.09375 44.375 
Q 74.3125 48.1875 68.609375 48.1875 
Q 61.625 48.1875 57.5625 43.546875 
Q 53.515625 38.921875 53.515625 30.90625 
L 53.515625 0 
L 44.484375 0 
L 44.484375 32.71875 
Q 44.484375 40.625 41.703125 44.40625 
Q 38.921875 48.1875 33.109375 48.1875 
Q 26.21875 48.1875 22.15625 43.53125 
Q 18.109375 38.875 18.109375 30.90625 
L 18.109375 0 
L 9.078125 0 
L 9.078125 54.6875 
L 18.109375 54.6875 
L 18.109375 46.1875 
Q 21.1875 51.21875 25.484375 53.609375 
Q 29.78125 56 35.6875 56 
Q 41.65625 56 45.828125 52.96875 
Q 50 49.953125 52 44.1875 
" id="BitstreamVeraSans-Roman-6d"/>
      <path d="M 8.015625 75.875 
L 15.828125 75.875 
Q 23.140625 64.359375 26.78125 53.3125 
Q 30.421875 42.28125 30.421875 31.390625 
Q 30.421875 20.453125 26.78125 9.375 
Q 23.140625 -1.703125 15.828125 -13.1875 
L 8.015625 -13.1875 
Q 14.5 -2 17.703125 9.0625 
Q 20.90625 20.125 20.90625 31.390625 
Q 20.90625 42.671875 17.703125 53.65625 
Q 14.5 64.65625 8.015625 75.875 
" id="BitstreamVeraSans-Roman-29"/>
      <path d="M 9.421875 54.6875 
L 18.40625 54.6875 
L 18.40625 0 
L 9.421875 0 
z
M 9.421875 75.984375 
L 18.40625 75.984375 
L 18.40625 64.59375 
L 9.421875 64.59375 
z
" id="BitstreamVeraSans-Roman-69"/>
      <path d="M 31 75.875 
Q 24.46875 64.65625 21.28125 53.65625 
Q 18.109375 42.671875 18.109375 31.390625 
Q 18.109375 20.125 21.3125 9.0625 
Q 24.515625 -2 31 -13.1875 
L 23.1875 -13.1875 
Q 15.875 -1.703125 12.234375 9.375 
Q 8.59375 20.453125 8.59375 31.390625 
Q 8.59375 42.28125 12.203125 53.3125 
Q 15.828125 64.359375 23.1875 75.875 
z
" id="BitstreamVeraSans-Roman-28"/>
      <path d="M 56.203125 29.59375 
L 56.203125 25.203125 
L 14.890625 25.203125 
Q 15.484375 15.921875 20.484375 11.0625 
Q 25.484375 6.203125 34.421875 6.203125 
Q 39.59375 6.203125 44.453125 7.46875 
Q 49.3125 8.734375 54.109375 11.28125 
L 54.109375 2.78125 
Q 49.265625 0.734375 44.1875 -0.34375 
Q 39.109375 -1.421875 33.890625 -1.421875 
Q 20.796875 -1.421875 13.15625 6.1875 
Q 5.515625 13.8125 5.515625 26.8125 
Q 5.515625 40.234375 12.765625 48.109375 
Q 20.015625 56 32.328125 56 
Q 43.359375 56 49.78125 48.890625 
Q 56.203125 41.796875 56.203125 29.59375 
M 47.21875 32.234375 
Q 47.125 39.59375 43.09375 43.984375 
Q 39.0625 48.390625 32.421875 48.390625 
Q 24.90625 48.390625 20.390625 44.140625 
Q 15.875 39.890625 15.1875 32.171875 
z
" id="BitstreamVeraSans-Roman-65"/>
      <path id="BitstreamVeraSans-Roman-20"/>
      <path d="M 44.28125 53.078125 
L 44.28125 44.578125 
Q 40.484375 46.53125 36.375 47.5 
Q 32.28125 48.484375 27.875 48.484375 
Q 21.1875 48.484375 17.84375 46.4375 
Q 14.5 44.390625 14.5 40.28125 
Q 14.5 37.15625 16.890625 35.375 
Q 19.28125 33.59375 26.515625 31.984375 
L 29.59375 31.296875 
Q 39.15625 29.25 43.1875 25.515625 
Q 47.21875 21.78125 47.21875 15.09375 
Q 47.21875 7.46875 41.1875 3.015625 
Q 35.15625 -1.421875 24.609375 -1.421875 
Q 20.21875 -1.421875 15.453125 -0.5625 
Q 10.6875 0.296875 5.421875 2 
L 5.421875 11.28125 
Q 10.40625 8.6875 15.234375 7.390625 
Q 20.0625 6.109375 24.8125 6.109375 
Q 31.15625 6.109375 34.5625 8.28125 
Q 37.984375 10.453125 37.984375 14.40625 
Q 37.984375 18.0625 35.515625 20.015625 
Q 33.0625 21.96875 24.703125 23.78125 
L 21.578125 24.515625 
Q 13.234375 26.265625 9.515625 29.90625 
Q 5.8125 33.546875 5.8125 39.890625 
Q 5.8125 47.609375 11.28125 51.796875 
Q 16.75 56 26.8125 56 
Q 31.78125 56 36.171875 55.265625 
Q 40.578125 54.546875 44.28125 53.078125 
" id="BitstreamVeraSans-Roman-73"/>
     </defs>
     <g transform="translate(246.799609375 496.919885581)scale(0.17 -0.17)">
      <use xlink:href="#BitstreamVeraSans-Roman-74"/>
      <use x="39.208984375" xlink:href="#BitstreamVeraSans-Roman-69"/>
      <use x="66.9921875" xlink:href="#BitstreamVeraSans-Roman-6d"/>
      <use x="164.404296875" xlink:href="#BitstreamVeraSans-Roman-65"/>
      <use x="225.927734375" xlink:href="#BitstreamVeraSans-Roman-20"/>
      <use x="257.71484375" xlink:href="#BitstreamVeraSans-Roman-28"/>
      <use x="296.728515625" xlink:href="#BitstreamVeraSans-Roman-73"/>
      <use x="348.828125" xlink:href="#BitstreamVeraSans-Roman-29"/>
     </g>
    </g>
   </g>
   <g id="matplotlib.axis_2">
    <g id="ytick_1">
     <g id="line2d_19">
      <path clip-path="url(#paf58967072)" d="M 58.364646 398.145423 
L 501.165354 398.145423 
" style="fill:none;stroke:#000000;stroke-dasharray:1.000000,3.000000;stroke-dashoffset:0.0;stroke-width:0.5;"/>
     </g>
     <g id="line2d_20">
      <defs>
       <path d="M 0 0 
L 4 0 
" id="m2ca2353ef7" style="stroke:#000000;stroke-width:0.5;"/>
      </defs>
      <g>
       <use style="stroke:#000000;stroke-width:0.5;" x="58.3646456693" xlink:href="#m2ca2353ef7" y="398.145422841"/>
      </g>
     </g>
     <g id="line2d_21">
      <defs>
       <path d="M 0 0 
L -4 0 
" id="m42dd5e8ef4" style="stroke:#000000;stroke-width:0.5;"/>
      </defs>
      <g>
       <use style="stroke:#000000;stroke-width:0.5;" x="501.165354331" xlink:href="#m42dd5e8ef4" y="398.145422841"/>
      </g>
     </g>
     <g id="text_8">
      <!-- -0.4 -->
      <defs>
       <path d="M 10.6875 12.40625 
L 21 12.40625 
L 21 0 
L 10.6875 0 
z
" id="BitstreamVeraSans-Roman-2e"/>
       <path d="M 4.890625 31.390625 
L 31.203125 31.390625 
L 31.203125 23.390625 
L 4.890625 23.390625 
z
" id="BitstreamVeraSans-Roman-2d"/>
      </defs>
      <g transform="translate(25.0982394193 402.284485341)scale(0.15 -0.15)">
       <use xlink:href="#BitstreamVeraSans-Roman-2d"/>
       <use x="36.083984375" xlink:href="#BitstreamVeraSans-Roman-30"/>
       <use x="99.70703125" xlink:href="#BitstreamVeraSans-Roman-2e"/>
       <use x="131.494140625" xlink:href="#BitstreamVeraSans-Roman-34"/>
      </g>
     </g>
    </g>
    <g id="ytick_2">
     <g id="line2d_22">
      <path clip-path="url(#paf58967072)" d="M 58.364646 314.902711 
L 501.165354 314.902711 
" style="fill:none;stroke:#000000;stroke-dasharray:1.000000,3.000000;stroke-dashoffset:0.0;stroke-width:0.5;"/>
     </g>
     <g id="line2d_23">
      <g>
       <use style="stroke:#000000;stroke-width:0.5;" x="58.3646456693" xlink:href="#m2ca2353ef7" y="314.902711421"/>
      </g>
     </g>
     <g id="line2d_24">
      <g>
       <use style="stroke:#000000;stroke-width:0.5;" x="501.165354331" xlink:href="#m42dd5e8ef4" y="314.902711421"/>
      </g>
     </g>
     <g id="text_9">
      <!-- -0.2 -->
      <g transform="translate(25.0982394193 319.041773921)scale(0.15 -0.15)">
       <use xlink:href="#BitstreamVeraSans-Roman-2d"/>
       <use x="36.083984375" xlink:href="#BitstreamVeraSans-Roman-30"/>
       <use x="99.70703125" xlink:href="#BitstreamVeraSans-Roman-2e"/>
       <use x="131.494140625" xlink:href="#BitstreamVeraSans-Roman-32"/>
      </g>
     </g>
    </g>
    <g id="ytick_3">
     <g id="line2d_25">
      <path clip-path="url(#paf58967072)" d="M 58.364646 231.66 
L 501.165354 231.66 
" style="fill:none;stroke:#000000;stroke-dasharray:1.000000,3.000000;stroke-dashoffset:0.0;stroke-width:0.5;"/>
     </g>
     <g id="line2d_26">
      <g>
       <use style="stroke:#000000;stroke-width:0.5;" x="58.3646456693" xlink:href="#m2ca2353ef7" y="231.66"/>
      </g>
     </g>
     <g id="line2d_27">
      <g>
       <use style="stroke:#000000;stroke-width:0.5;" x="501.165354331" xlink:href="#m42dd5e8ef4" y="231.66"/>
      </g>
     </g>
     <g id="text_10">
      <!-- 0.0 -->
      <g transform="translate(30.5099581693 235.7990625)scale(0.15 -0.15)">
       <use xlink:href="#BitstreamVeraSans-Roman-30"/>
       <use x="63.623046875" xlink:href="#BitstreamVeraSans-Roman-2e"/>
       <use x="95.41015625" xlink:href="#BitstreamVeraSans-Roman-30"/>
      </g>
     </g>
    </g>
    <g id="ytick_4">
     <g id="line2d_28">
      <path clip-path="url(#paf58967072)" d="M 58.364646 148.417289 
L 501.165354 148.417289 
" style="fill:none;stroke:#000000;stroke-dasharray:1.000000,3.000000;stroke-dashoffset:0.0;stroke-width:0.5;"/>
     </g>
     <g id="line2d_29">
      <g>
       <use style="stroke:#000000;stroke-width:0.5;" x="58.3646456693" xlink:href="#m2ca2353ef7" y="148.417288579"/>
      </g>
     </g>
     <g id="line2d_30">
      <g>
       <use style="stroke:#000000;stroke-width:0.5;" x="501.165354331" xlink:href="#m42dd5e8ef4" y="148.417288579"/>
      </g>
     </g>
     <g id="text_11">
      <!-- 0.2 -->
      <g transform="translate(30.5099581693 152.556351079)scale(0.15 -0.15)">
       <use xlink:href="#BitstreamVeraSans-Roman-30"/>
       <use x="63.623046875" xlink:href="#BitstreamVeraSans-Roman-2e"/>
       <use x="95.41015625" xlink:href="#BitstreamVeraSans-Roman-32"/>
      </g>
     </g>
    </g>
    <g id="ytick_5">
     <g id="line2d_31">
      <path clip-path="url(#paf58967072)" d="M 58.364646 65.174577 
L 501.165354 65.174577 
" style="fill:none;stroke:#000000;stroke-dasharray:1.000000,3.000000;stroke-dashoffset:0.0;stroke-width:0.5;"/>
     </g>
     <g id="line2d_32">
      <g>
       <use style="stroke:#000000;stroke-width:0.5;" x="58.3646456693" xlink:href="#m2ca2353ef7" y="65.1745771589"/>
      </g>
     </g>
     <g id="line2d_33">
      <g>
       <use style="stroke:#000000;stroke-width:0.5;" x="501.165354331" xlink:href="#m42dd5e8ef4" y="65.1745771589"/>
      </g>
     </g>
     <g id="text_12">
      <!-- 0.4 -->
      <g transform="translate(30.5099581693 69.3136396589)scale(0.15 -0.15)">
       <use xlink:href="#BitstreamVeraSans-Roman-30"/>
       <use x="63.623046875" xlink:href="#BitstreamVeraSans-Roman-2e"/>
       <use x="95.41015625" xlink:href="#BitstreamVeraSans-Roman-34"/>
      </g>
     </g>
    </g>
    <g id="text_13">
     <!-- Steering Angle (rad) -->
     <defs>
      <path d="M 34.28125 27.484375 
Q 23.390625 27.484375 19.1875 25 
Q 14.984375 22.515625 14.984375 16.5 
Q 14.984375 11.71875 18.140625 8.90625 
Q 21.296875 6.109375 26.703125 6.109375 
Q 34.1875 6.109375 38.703125 11.40625 
Q 43.21875 16.703125 43.21875 25.484375 
L 43.21875 27.484375 
z
M 52.203125 31.203125 
L 52.203125 0 
L 43.21875 0 
L 43.21875 8.296875 
Q 40.140625 3.328125 35.546875 0.953125 
Q 30.953125 -1.421875 24.3125 -1.421875 
Q 15.921875 -1.421875 10.953125 3.296875 
Q 6 8.015625 6 15.921875 
Q 6 25.140625 12.171875 29.828125 
Q 18.359375 34.515625 30.609375 34.515625 
L 43.21875 34.515625 
L 43.21875 35.40625 
Q 43.21875 41.609375 39.140625 45 
Q 35.0625 48.390625 27.6875 48.390625 
Q 23 48.390625 18.546875 47.265625 
Q 14.109375 46.140625 10.015625 43.890625 
L 10.015625 52.203125 
Q 14.9375 54.109375 19.578125 55.046875 
Q 24.21875 56 28.609375 56 
Q 40.484375 56 46.34375 49.84375 
Q 52.203125 43.703125 52.203125 31.203125 
" id="BitstreamVeraSans-Roman-61"/>
      <path d="M 45.40625 46.390625 
L 45.40625 75.984375 
L 54.390625 75.984375 
L 54.390625 0 
L 45.40625 0 
L 45.40625 8.203125 
Q 42.578125 3.328125 38.25 0.953125 
Q 33.9375 -1.421875 27.875 -1.421875 
Q 17.96875 -1.421875 11.734375 6.484375 
Q 5.515625 14.40625 5.515625 27.296875 
Q 5.515625 40.1875 11.734375 48.09375 
Q 17.96875 56 27.875 56 
Q 33.9375 56 38.25 53.625 
Q 42.578125 51.265625 45.40625 46.390625 
M 14.796875 27.296875 
Q 14.796875 17.390625 18.875 11.75 
Q 22.953125 6.109375 30.078125 6.109375 
Q 37.203125 6.109375 41.296875 11.75 
Q 45.40625 17.390625 45.40625 27.296875 
Q 45.40625 37.203125 41.296875 42.84375 
Q 37.203125 48.484375 30.078125 48.484375 
Q 22.953125 48.484375 18.875 42.84375 
Q 14.796875 37.203125 14.796875 27.296875 
" id="BitstreamVeraSans-Roman-64"/>
      <path d="M 54.890625 33.015625 
L 54.890625 0 
L 45.90625 0 
L 45.90625 32.71875 
Q 45.90625 40.484375 42.875 44.328125 
Q 39.84375 48.1875 33.796875 48.1875 
Q 26.515625 48.1875 22.3125 43.546875 
Q 18.109375 38.921875 18.109375 30.90625 
L 18.109375 0 
L 9.078125 0 
L 9.078125 54.6875 
L 18.109375 54.6875 
L 18.109375 46.1875 
Q 21.34375 51.125 25.703125 53.5625 
Q 30.078125 56 35.796875 56 
Q 45.21875 56 50.046875 50.171875 
Q 54.890625 44.34375 54.890625 33.015625 
" id="BitstreamVeraSans-Roman-6e"/>
      <path d="M 34.1875 63.1875 
L 20.796875 26.90625 
L 47.609375 26.90625 
z
M 28.609375 72.90625 
L 39.796875 72.90625 
L 67.578125 0 
L 57.328125 0 
L 50.6875 18.703125 
L 17.828125 18.703125 
L 11.1875 0 
L 0.78125 0 
z
" id="BitstreamVeraSans-Roman-41"/>
      <path d="M 41.109375 46.296875 
Q 39.59375 47.171875 37.8125 47.578125 
Q 36.03125 48 33.890625 48 
Q 26.265625 48 22.1875 43.046875 
Q 18.109375 38.09375 18.109375 28.8125 
L 18.109375 0 
L 9.078125 0 
L 9.078125 54.6875 
L 18.109375 54.6875 
L 18.109375 46.1875 
Q 20.953125 51.171875 25.484375 53.578125 
Q 30.03125 56 36.53125 56 
Q 37.453125 56 38.578125 55.875 
Q 39.703125 55.765625 41.0625 55.515625 
z
" id="BitstreamVeraSans-Roman-72"/>
      <path d="M 9.421875 75.984375 
L 18.40625 75.984375 
L 18.40625 0 
L 9.421875 0 
z
" id="BitstreamVeraSans-Roman-6c"/>
      <path d="M 45.40625 27.984375 
Q 45.40625 37.75 41.375 43.109375 
Q 37.359375 48.484375 30.078125 48.484375 
Q 22.859375 48.484375 18.828125 43.109375 
Q 14.796875 37.75 14.796875 27.984375 
Q 14.796875 18.265625 18.828125 12.890625 
Q 22.859375 7.515625 30.078125 7.515625 
Q 37.359375 7.515625 41.375 12.890625 
Q 45.40625 18.265625 45.40625 27.984375 
M 54.390625 6.78125 
Q 54.390625 -7.171875 48.1875 -13.984375 
Q 42 -20.796875 29.203125 -20.796875 
Q 24.46875 -20.796875 20.265625 -20.09375 
Q 16.0625 -19.390625 12.109375 -17.921875 
L 12.109375 -9.1875 
Q 16.0625 -11.328125 19.921875 -12.34375 
Q 23.78125 -13.375 27.78125 -13.375 
Q 36.625 -13.375 41.015625 -8.765625 
Q 45.40625 -4.15625 45.40625 5.171875 
L 45.40625 9.625 
Q 42.625 4.78125 38.28125 2.390625 
Q 33.9375 0 27.875 0 
Q 17.828125 0 11.671875 7.65625 
Q 5.515625 15.328125 5.515625 27.984375 
Q 5.515625 40.671875 11.671875 48.328125 
Q 17.828125 56 27.875 56 
Q 33.9375 56 38.28125 53.609375 
Q 42.625 51.21875 45.40625 46.390625 
L 45.40625 54.6875 
L 54.390625 54.6875 
z
" id="BitstreamVeraSans-Roman-67"/>
      <path d="M 53.515625 70.515625 
L 53.515625 60.890625 
Q 47.90625 63.578125 42.921875 64.890625 
Q 37.9375 66.21875 33.296875 66.21875 
Q 25.25 66.21875 20.875 63.09375 
Q 16.5 59.96875 16.5 54.203125 
Q 16.5 49.359375 19.40625 46.890625 
Q 22.3125 44.4375 30.421875 42.921875 
L 36.375 41.703125 
Q 47.40625 39.59375 52.65625 34.296875 
Q 57.90625 29 57.90625 20.125 
Q 57.90625 9.515625 50.796875 4.046875 
Q 43.703125 -1.421875 29.984375 -1.421875 
Q 24.8125 -1.421875 18.96875 -0.25 
Q 13.140625 0.921875 6.890625 3.21875 
L 6.890625 13.375 
Q 12.890625 10.015625 18.65625 8.296875 
Q 24.421875 6.59375 29.984375 6.59375 
Q 38.421875 6.59375 43.015625 9.90625 
Q 47.609375 13.234375 47.609375 19.390625 
Q 47.609375 24.75 44.3125 27.78125 
Q 41.015625 30.8125 33.5 32.328125 
L 27.484375 33.5 
Q 16.453125 35.6875 11.515625 40.375 
Q 6.59375 45.0625 6.59375 53.421875 
Q 6.59375 63.09375 13.40625 68.65625 
Q 20.21875 74.21875 32.171875 74.21875 
Q 37.3125 74.21875 42.625 73.28125 
Q 47.953125 72.359375 53.515625 70.515625 
" id="BitstreamVeraSans-Roman-53"/>
     </defs>
     <g transform="translate(16.5627706693 317.811484375)rotate(-90.0)scale(0.17 -0.17)">
      <use xlink:href="#BitstreamVeraSans-Roman-53"/>
      <use x="63.4765625" xlink:href="#BitstreamVeraSans-Roman-74"/>
      <use x="102.685546875" xlink:href="#BitstreamVeraSans-Roman-65"/>
      <use x="164.208984375" xlink:href="#BitstreamVeraSans-Roman-65"/>
      <use x="225.732421875" xlink:href="#BitstreamVeraSans-Roman-72"/>
      <use x="266.845703125" xlink:href="#BitstreamVeraSans-Roman-69"/>
      <use x="294.62890625" xlink:href="#BitstreamVeraSans-Roman-6e"/>
      <use x="358.0078125" xlink:href="#BitstreamVeraSans-Roman-67"/>
      <use x="421.484375" xlink:href="#BitstreamVeraSans-Roman-20"/>
      <use x="453.271484375" xlink:href="#BitstreamVeraSans-Roman-41"/>
      <use x="521.6796875" xlink:href="#BitstreamVeraSans-Roman-6e"/>
      <use x="585.05859375" xlink:href="#BitstreamVeraSans-Roman-67"/>
      <use x="648.53515625" xlink:href="#BitstreamVeraSans-Roman-6c"/>
      <use x="676.318359375" xlink:href="#BitstreamVeraSans-Roman-65"/>
      <use x="737.841796875" xlink:href="#BitstreamVeraSans-Roman-20"/>
      <use x="769.62890625" xlink:href="#BitstreamVeraSans-Roman-28"/>
      <use x="808.642578125" xlink:href="#BitstreamVeraSans-Roman-72"/>
      <use x="849.755859375" xlink:href="#BitstreamVeraSans-Roman-61"/>
      <use x="911.03515625" xlink:href="#BitstreamVeraSans-Roman-64"/>
      <use x="974.51171875" xlink:href="#BitstreamVeraSans-Roman-29"/>
     </g>
    </g>
   </g>
   <g id="line2d_34">
    <path clip-path="url(#paf58967072)" d="M 58.364646 449.588909 
L 62.83738 449.588909 
L 67.310115 449.588909 
L 71.782849 449.588909 
L 76.255583 449.588909 
L 80.728318 449.588909 
L 85.201052 449.588909 
L 89.673787 449.588909 
L 94.146521 449.588909 
L 98.619256 449.588909 
L 103.09199 449.588909 
L 107.564724 449.588909 
L 112.037459 449.588909 
L 116.510193 449.588909 
L 120.982928 449.588909 
L 125.455662 449.588909 
L 129.928397 449.588909 
L 134.401131 449.588909 
L 138.873865 449.588909 
L 143.3466 449.588909 
L 147.819334 449.588909 
L 152.292069 449.588909 
L 156.764803 449.588909 
L 161.237538 449.588909 
L 165.710272 449.588909 
L 170.183006 449.588909 
L 174.655741 449.588909 
L 179.128475 449.588909 
L 183.60121 449.588909 
L 188.073944 449.588909 
L 192.546679 449.588909 
L 197.019413 449.588909 
L 201.492147 449.588909 
L 205.964882 449.588909 
L 210.437616 449.588909 
L 214.910351 449.588909 
L 219.383085 449.588909 
L 223.85582 449.588909 
L 228.328554 449.588909 
L 232.801288 449.588909 
L 237.274023 449.588909 
L 241.746757 449.588909 
L 246.219492 449.588909 
L 250.692226 449.588909 
L 255.164961 449.588909 
L 259.637695 449.588909 
L 264.110429 449.588909 
L 268.583164 449.588909 
L 273.055898 449.588909 
L 277.528633 449.588909 
L 282.001367 449.588909 
L 286.474102 449.588909 
L 290.946836 449.588909 
L 295.419571 449.588909 
L 299.892305 449.588909 
L 304.365039 449.588909 
L 308.837774 449.588909 
L 313.310508 449.588909 
L 317.783243 449.588909 
L 322.255977 449.588909 
L 326.728712 449.588909 
L 331.201446 449.588909 
L 335.67418 449.588909 
L 340.146915 449.588909 
L 344.619649 449.588909 
L 349.092384 449.588909 
L 353.565118 449.588909 
L 358.037853 449.588909 
L 362.510587 449.588909 
L 366.983321 449.588909 
L 371.456056 449.588909 
L 375.92879 449.588909 
L 380.401525 449.588909 
L 384.874259 449.588909 
L 389.346994 449.588909 
L 393.819728 449.588909 
L 398.292462 449.588909 
L 402.765197 449.588909 
L 407.237931 449.588909 
L 411.710666 449.588909 
L 416.1834 449.588909 
L 420.656135 449.588909 
L 425.128869 449.588909 
L 429.601603 449.588909 
L 434.074338 449.588909 
L 438.547072 449.588909 
L 443.019807 449.588909 
L 447.492541 449.588909 
L 451.965276 449.588909 
L 456.43801 449.588909 
L 460.910744 449.588909 
L 465.383479 449.588909 
L 469.856213 449.588909 
L 474.328948 449.588909 
L 478.801682 449.588909 
L 483.274417 449.588909 
L 487.747151 449.588909 
L 492.219885 449.588909 
L 496.69262 449.588909 
L 501.165354 449.588909 
" style="fill:none;stroke:#009afa;stroke-linecap:round;stroke-width:5.5;"/>
   </g>
   <g id="line2d_35">
    <path clip-path="url(#paf58967072)" d="M 58.364646 13.731091 
L 62.83738 13.731091 
L 67.310115 13.731091 
L 71.782849 13.731091 
L 76.255583 13.731091 
L 80.728318 13.731091 
L 85.201052 13.731091 
L 89.673787 13.731091 
L 94.146521 13.731091 
L 98.619256 13.731091 
L 103.09199 13.731091 
L 107.564724 13.731091 
L 112.037459 13.731091 
L 116.510193 13.731091 
L 120.982928 13.731091 
L 125.455662 13.731091 
L 129.928397 13.731091 
L 134.401131 13.731091 
L 138.873865 13.731091 
L 143.3466 13.731091 
L 147.819334 13.731091 
L 152.292069 13.731091 
L 156.764803 13.731091 
L 161.237538 13.731091 
L 165.710272 13.731091 
L 170.183006 13.731091 
L 174.655741 13.731091 
L 179.128475 13.731091 
L 183.60121 13.731091 
L 188.073944 13.731091 
L 192.546679 13.731091 
L 197.019413 13.731091 
L 201.492147 13.731091 
L 205.964882 13.731091 
L 210.437616 13.731091 
L 214.910351 13.731091 
L 219.383085 13.731091 
L 223.85582 13.731091 
L 228.328554 13.731091 
L 232.801288 13.731091 
L 237.274023 13.731091 
L 241.746757 13.731091 
L 246.219492 13.731091 
L 250.692226 13.731091 
L 255.164961 13.731091 
L 259.637695 13.731091 
L 264.110429 13.731091 
L 268.583164 13.731091 
L 273.055898 13.731091 
L 277.528633 13.731091 
L 282.001367 13.731091 
L 286.474102 13.731091 
L 290.946836 13.731091 
L 295.419571 13.731091 
L 299.892305 13.731091 
L 304.365039 13.731091 
L 308.837774 13.731091 
L 313.310508 13.731091 
L 317.783243 13.731091 
L 322.255977 13.731091 
L 326.728712 13.731091 
L 331.201446 13.731091 
L 335.67418 13.731091 
L 340.146915 13.731091 
L 344.619649 13.731091 
L 349.092384 13.731091 
L 353.565118 13.731091 
L 358.037853 13.731091 
L 362.510587 13.731091 
L 366.983321 13.731091 
L 371.456056 13.731091 
L 375.92879 13.731091 
L 380.401525 13.731091 
L 384.874259 13.731091 
L 389.346994 13.731091 
L 393.819728 13.731091 
L 398.292462 13.731091 
L 402.765197 13.731091 
L 407.237931 13.731091 
L 411.710666 13.731091 
L 416.1834 13.731091 
L 420.656135 13.731091 
L 425.128869 13.731091 
L 429.601603 13.731091 
L 434.074338 13.731091 
L 438.547072 13.731091 
L 443.019807 13.731091 
L 447.492541 13.731091 
L 451.965276 13.731091 
L 456.43801 13.731091 
L 460.910744 13.731091 
L 465.383479 13.731091 
L 469.856213 13.731091 
L 474.328948 13.731091 
L 478.801682 13.731091 
L 483.274417 13.731091 
L 487.747151 13.731091 
L 492.219885 13.731091 
L 496.69262 13.731091 
L 501.165354 13.731091 
" style="fill:none;stroke:#e36f47;stroke-linecap:round;stroke-width:5.5;"/>
   </g>
   <g id="patch_3">
    <path d="M 58.364646 460.485354 
L 58.364646 2.834646 
" style="fill:none;stroke:#000000;stroke-linecap:square;stroke-linejoin:miter;"/>
   </g>
   <g id="patch_4">
    <path d="M 501.165354 460.485354 
L 501.165354 2.834646 
" style="fill:none;stroke:#000000;stroke-linecap:square;stroke-linejoin:miter;"/>
   </g>
   <g id="patch_5">
    <path d="M 58.364646 460.485354 
L 501.165354 460.485354 
" style="fill:none;stroke:#000000;stroke-linecap:square;stroke-linejoin:miter;"/>
   </g>
   <g id="patch_6">
    <path d="M 58.364646 2.834646 
L 501.165354 2.834646 
" style="fill:none;stroke:#000000;stroke-linecap:square;stroke-linejoin:miter;"/>
   </g>
   <g id="line2d_36">
    <path clip-path="url(#paf58967072)" d="M 58.364646 231.66 
L 87.117938 231.764889 
L 98.619256 231.98182 
L 98.619256 231.98182 
L 100.344453 230.748785 
L 103.219782 228.282746 
L 110.695639 221.907843 
L 114.146034 219.282876 
L 117.021363 217.309167 
L 119.321626 215.859438 
L 130.822943 206.004102 
L 133.123207 204.514639 
L 135.42347 203.263393 
L 137.723734 202.292974 
L 138.873865 201.929261 
L 138.873865 201.929261 
L 140.023997 201.195782 
L 141.174129 200.659696 
L 142.899326 200.138674 
L 144.624524 199.926666 
L 146.349722 200.009692 
L 148.649985 200.443661 
L 151.525314 201.222214 
L 157.851039 203.26727 
L 159.00117 203.464529 
L 159.00117 203.464529 
L 160.151302 203.088361 
L 161.301434 203.022891 
L 163.026631 203.022849 
L 164.751829 202.826267 
L 167.627158 202.177181 
L 169.927422 201.7211 
L 171.652619 201.576156 
L 173.377817 201.603243 
L 175.103014 201.821352 
L 177.978344 202.207909 
L 179.703541 202.226339 
L 180.278607 202.060669 
L 182.003805 201.093691 
L 183.153936 200.809298 
L 184.304068 200.860879 
L 185.4542 201.238889 
L 187.179397 201.990063 
L 188.329529 202.279572 
L 189.479661 202.386254 
L 190.629792 202.291235 
L 195.230319 201.515144 
L 196.380451 201.685115 
L 197.530583 202.054743 
L 198.680714 202.624027 
L 199.25578 202.98354 
L 199.25578 202.98354 
L 279.765 275.497972 
L 279.765 275.497972 
L 280.915132 276.186957 
L 283.790461 278.548859 
L 287.240856 281.313176 
L 289.54112 282.917375 
L 291.266317 283.8567 
L 292.991515 284.536471 
L 295.291778 285.089615 
L 298.167107 285.52312 
L 299.892305 285.654564 
L 299.892305 285.654564 
L 302.192568 287.506054 
L 303.3427 287.95544 
L 304.492832 288.110305 
L 305.642963 288.075342 
L 307.368161 287.77705 
L 310.818556 286.901762 
L 313.693885 286.451877 
L 317.144281 286.14419 
L 321.169742 286.037765 
L 326.9204 285.922546 
L 329.795729 285.526273 
L 332.671059 284.895168 
L 337.846651 283.51165 
L 341.872112 282.265997 
L 344.172376 281.034955 
L 349.923034 277.829846 
L 353.373429 276.241452 
L 357.973956 274.365592 
L 360.27422 273.497671 
L 360.27422 273.497671 
L 361.424351 274.165761 
L 364.299681 276.022761 
L 366.024878 276.920883 
L 367.750076 277.543663 
L 369.475273 277.861358 
L 371.200471 277.955251 
L 373.500734 277.847071 
L 377.526195 277.322204 
L 380.401525 276.803023 
L 380.401525 276.803023 
L 380.976591 276.62546 
L 382.701788 275.650357 
L 387.877381 272.243505 
L 394.778171 267.775741 
L 398.803632 265.411108 
L 400.52883 264.477702 
L 400.52883 264.477702 
L 401.678961 265.097621 
L 405.704422 267.504239 
L 408.004686 268.55407 
L 409.729883 269.126175 
L 412.030147 269.618868 
L 414.33041 269.838743 
L 416.630674 269.821373 
L 418.930937 269.606082 
L 421.2312 269.186291 
L 422.956398 268.227925 
L 426.406793 266.014433 
L 433.307583 261.576092 
L 436.182913 259.927898 
L 438.483176 258.851202 
L 440.78344 258.103095 
L 440.78344 258.103095 
L 441.933571 257.888902 
L 444.233835 256.984115 
L 451.134625 254.140694 
L 453.434888 253.512729 
L 458.610481 252.813936 
L 463.786074 251.814003 
L 468.386601 250.622607 
L 472.987127 249.905424 
L 477.012588 249.152306 
L 483.913379 248.653344 
L 494.264564 248.314322 
L 497.714959 248.3433 
L 501.165354 248.62778 
L 501.165354 248.62778 
" style="fill:none;stroke:#3ea44e;stroke-linecap:round;stroke-width:3.0;"/>
   </g>
   <g id="legend_1">
    <g id="patch_7">
     <path d="M 421.350354 65.275896 
L 495.165354 65.275896 
L 495.165354 8.834646 
L 421.350354 8.834646 
z
" style="fill:#ffffff;stroke:#000000;stroke-linejoin:miter;"/>
    </g>
    <g id="line2d_37">
     <path d="M 429.750354 18.552771 
L 446.550354 18.552771 
" style="fill:none;stroke:#009afa;stroke-linecap:round;stroke-width:5.5;"/>
    </g>
    <g id="line2d_38"/>
    <g id="text_14">
     <!-- min -->
     <g transform="translate(459.750354331 22.7527706693)scale(0.12 -0.12)">
      <use xlink:href="#BitstreamVeraSans-Roman-6d"/>
      <use x="97.412109375" xlink:href="#BitstreamVeraSans-Roman-69"/>
      <use x="125.1953125" xlink:href="#BitstreamVeraSans-Roman-6e"/>
     </g>
    </g>
    <g id="line2d_39">
     <path d="M 429.750354 36.166521 
L 446.550354 36.166521 
" style="fill:none;stroke:#e36f47;stroke-linecap:round;stroke-width:5.5;"/>
    </g>
    <g id="line2d_40"/>
    <g id="text_15">
     <!-- max -->
     <defs>
      <path d="M 54.890625 54.6875 
L 35.109375 28.078125 
L 55.90625 0 
L 45.3125 0 
L 29.390625 21.484375 
L 13.484375 0 
L 2.875 0 
L 24.125 28.609375 
L 4.6875 54.6875 
L 15.28125 54.6875 
L 29.78125 35.203125 
L 44.28125 54.6875 
z
" id="BitstreamVeraSans-Roman-78"/>
     </defs>
     <g transform="translate(459.750354331 40.3665206693)scale(0.12 -0.12)">
      <use xlink:href="#BitstreamVeraSans-Roman-6d"/>
      <use x="97.412109375" xlink:href="#BitstreamVeraSans-Roman-61"/>
      <use x="158.69140625" xlink:href="#BitstreamVeraSans-Roman-78"/>
     </g>
    </g>
    <g id="line2d_41">
     <path d="M 429.750354 53.780271 
L 446.550354 53.780271 
" style="fill:none;stroke:#3ea44e;stroke-linecap:round;stroke-width:3.0;"/>
    </g>
    <g id="line2d_42"/>
    <g id="text_16">
     <!-- plant -->
     <defs>
      <path d="M 18.109375 8.203125 
L 18.109375 -20.796875 
L 9.078125 -20.796875 
L 9.078125 54.6875 
L 18.109375 54.6875 
L 18.109375 46.390625 
Q 20.953125 51.265625 25.265625 53.625 
Q 29.59375 56 35.59375 56 
Q 45.5625 56 51.78125 48.09375 
Q 58.015625 40.1875 58.015625 27.296875 
Q 58.015625 14.40625 51.78125 6.484375 
Q 45.5625 -1.421875 35.59375 -1.421875 
Q 29.59375 -1.421875 25.265625 0.953125 
Q 20.953125 3.328125 18.109375 8.203125 
M 48.6875 27.296875 
Q 48.6875 37.203125 44.609375 42.84375 
Q 40.53125 48.484375 33.40625 48.484375 
Q 26.265625 48.484375 22.1875 42.84375 
Q 18.109375 37.203125 18.109375 27.296875 
Q 18.109375 17.390625 22.1875 11.75 
Q 26.265625 6.109375 33.40625 6.109375 
Q 40.53125 6.109375 44.609375 11.75 
Q 48.6875 17.390625 48.6875 27.296875 
" id="BitstreamVeraSans-Roman-70"/>
     </defs>
     <g transform="translate(459.750354331 57.9802706693)scale(0.12 -0.12)">
      <use xlink:href="#BitstreamVeraSans-Roman-70"/>
      <use x="63.4765625" xlink:href="#BitstreamVeraSans-Roman-6c"/>
      <use x="91.259765625" xlink:href="#BitstreamVeraSans-Roman-61"/>
      <use x="152.5390625" xlink:href="#BitstreamVeraSans-Roman-6e"/>
      <use x="215.91796875" xlink:href="#BitstreamVeraSans-Roman-74"/>
     </g>
    </g>
   </g>
  </g>
 </g>
 <defs>
  <clipPath id="paf58967072">
   <rect height="457.650708661" width="442.800708661" x="58.3646456693" y="2.83464566929"/>
  </clipPath>
 </defs>
</svg>
