<?xml version="1.0" encoding="utf-8" standalone="no"?>
<!DOCTYPE svg PUBLIC "-//W3C//DTD SVG 1.1//EN"
  "http://www.w3.org/Graphics/SVG/1.1/DTD/svg11.dtd">
<!-- Created with matplotlib (http://matplotlib.org/) -->
<svg height="504pt" version="1.1" viewBox="0 0 504 504" width="504pt" xmlns="http://www.w3.org/2000/svg" xmlns:xlink="http://www.w3.org/1999/xlink">
 <defs>
  <style type="text/css">
*{stroke-linecap:butt;stroke-linejoin:round;stroke-miterlimit:100000;}
  </style>
 </defs>
 <g id="figure_1">
  <g id="patch_1">
   <path d="M 0 504 
L 504 504 
L 504 0 
L 0 0 
z
" style="fill:#ffffff;"/>
  </g>
  <g id="axes_1">
   <g id="patch_2">
    <path d="M 48.194646 460.485354 
L 501.165354 460.485354 
L 501.165354 2.834646 
L 48.194646 2.834646 
z
" style="fill:#ffffff;"/>
   </g>
   <g id="matplotlib.axis_1">
    <g id="xtick_1">
     <g id="line2d_1">
      <path clip-path="url(#paebfe03fd1)" d="M 48.194646 460.485354 
L 48.194646 2.834646 
" style="fill:none;stroke:#000000;stroke-dasharray:1.000000,3.000000;stroke-dashoffset:0.0;stroke-width:0.5;"/>
     </g>
     <g id="line2d_2">
      <defs>
       <path d="M 0 0 
L 0 -4 
" id="mc23a91fe7b" style="stroke:#000000;stroke-width:0.5;"/>
      </defs>
      <g>
       <use style="stroke:#000000;stroke-width:0.5;" x="48.1946456693" xlink:href="#mc23a91fe7b" y="460.485354331"/>
      </g>
     </g>
     <g id="line2d_3">
      <defs>
       <path d="M 0 0 
L 0 4 
" id="m5cd250e61b" style="stroke:#000000;stroke-width:0.5;"/>
      </defs>
      <g>
       <use style="stroke:#000000;stroke-width:0.5;" x="48.1946456693" xlink:href="#m5cd250e61b" y="2.83464566929"/>
      </g>
     </g>
     <g id="text_1">
      <!-- 0 -->
      <defs>
       <path d="M 31.78125 66.40625 
Q 24.171875 66.40625 20.328125 58.90625 
Q 16.5 51.421875 16.5 36.375 
Q 16.5 21.390625 20.328125 13.890625 
Q 24.171875 6.390625 31.78125 6.390625 
Q 39.453125 6.390625 43.28125 13.890625 
Q 47.125 21.390625 47.125 36.375 
Q 47.125 51.421875 43.28125 58.90625 
Q 39.453125 66.40625 31.78125 66.40625 
M 31.78125 74.21875 
Q 44.046875 74.21875 50.515625 64.515625 
Q 56.984375 54.828125 56.984375 36.375 
Q 56.984375 17.96875 50.515625 8.265625 
Q 44.046875 -1.421875 31.78125 -1.421875 
Q 19.53125 -1.421875 13.0625 8.265625 
Q 6.59375 17.96875 6.59375 36.375 
Q 6.59375 54.828125 13.0625 64.515625 
Q 19.53125 74.21875 31.78125 74.21875 
" id="BitstreamVeraSans-Roman-30"/>
      </defs>
      <g transform="translate(43.4227706693 475.883010581)scale(0.15 -0.15)">
       <use xlink:href="#BitstreamVeraSans-Roman-30"/>
      </g>
     </g>
    </g>
    <g id="xtick_2">
     <g id="line2d_4">
      <path clip-path="url(#paebfe03fd1)" d="M 130.552956 460.485354 
L 130.552956 2.834646 
" style="fill:none;stroke:#000000;stroke-dasharray:1.000000,3.000000;stroke-dashoffset:0.0;stroke-width:0.5;"/>
     </g>
     <g id="line2d_5">
      <g>
       <use style="stroke:#000000;stroke-width:0.5;" x="130.552956335" xlink:href="#mc23a91fe7b" y="460.485354331"/>
      </g>
     </g>
     <g id="line2d_6">
      <g>
       <use style="stroke:#000000;stroke-width:0.5;" x="130.552956335" xlink:href="#m5cd250e61b" y="2.83464566929"/>
      </g>
     </g>
     <g id="text_2">
      <!-- 2 -->
      <defs>
       <path d="M 19.1875 8.296875 
L 53.609375 8.296875 
L 53.609375 0 
L 7.328125 0 
L 7.328125 8.296875 
Q 12.9375 14.109375 22.625 23.890625 
Q 32.328125 33.6875 34.8125 36.53125 
Q 39.546875 41.84375 41.421875 45.53125 
Q 43.3125 49.21875 43.3125 52.78125 
Q 43.3125 58.59375 39.234375 62.25 
Q 35.15625 65.921875 28.609375 65.921875 
Q 23.96875 65.921875 18.8125 64.3125 
Q 13.671875 62.703125 7.8125 59.421875 
L 7.8125 69.390625 
Q 13.765625 71.78125 18.9375 73 
Q 24.125 74.21875 28.421875 74.21875 
Q 39.75 74.21875 46.484375 68.546875 
Q 53.21875 62.890625 53.21875 53.421875 
Q 53.21875 48.921875 51.53125 44.890625 
Q 49.859375 40.875 45.40625 35.40625 
Q 44.1875 33.984375 37.640625 27.21875 
Q 31.109375 20.453125 19.1875 8.296875 
" id="BitstreamVeraSans-Roman-32"/>
      </defs>
      <g transform="translate(125.781081335 475.883010581)scale(0.15 -0.15)">
       <use xlink:href="#BitstreamVeraSans-Roman-32"/>
      </g>
     </g>
    </g>
    <g id="xtick_3">
     <g id="line2d_7">
      <path clip-path="url(#paebfe03fd1)" d="M 212.911267 460.485354 
L 212.911267 2.834646 
" style="fill:none;stroke:#000000;stroke-dasharray:1.000000,3.000000;stroke-dashoffset:0.0;stroke-width:0.5;"/>
     </g>
     <g id="line2d_8">
      <g>
       <use style="stroke:#000000;stroke-width:0.5;" x="212.911267001" xlink:href="#mc23a91fe7b" y="460.485354331"/>
      </g>
     </g>
     <g id="line2d_9">
      <g>
       <use style="stroke:#000000;stroke-width:0.5;" x="212.911267001" xlink:href="#m5cd250e61b" y="2.83464566929"/>
      </g>
     </g>
     <g id="text_3">
      <!-- 4 -->
      <defs>
       <path d="M 37.796875 64.3125 
L 12.890625 25.390625 
L 37.796875 25.390625 
z
M 35.203125 72.90625 
L 47.609375 72.90625 
L 47.609375 25.390625 
L 58.015625 25.390625 
L 58.015625 17.1875 
L 47.609375 17.1875 
L 47.609375 0 
L 37.796875 0 
L 37.796875 17.1875 
L 4.890625 17.1875 
L 4.890625 26.703125 
z
" id="BitstreamVeraSans-Roman-34"/>
      </defs>
      <g transform="translate(208.139392001 475.883010581)scale(0.15 -0.15)">
       <use xlink:href="#BitstreamVeraSans-Roman-34"/>
      </g>
     </g>
    </g>
    <g id="xtick_4">
     <g id="line2d_10">
      <path clip-path="url(#paebfe03fd1)" d="M 295.269578 460.485354 
L 295.269578 2.834646 
" style="fill:none;stroke:#000000;stroke-dasharray:1.000000,3.000000;stroke-dashoffset:0.0;stroke-width:0.5;"/>
     </g>
     <g id="line2d_11">
      <g>
       <use style="stroke:#000000;stroke-width:0.5;" x="295.269577666" xlink:href="#mc23a91fe7b" y="460.485354331"/>
      </g>
     </g>
     <g id="line2d_12">
      <g>
       <use style="stroke:#000000;stroke-width:0.5;" x="295.269577666" xlink:href="#m5cd250e61b" y="2.83464566929"/>
      </g>
     </g>
     <g id="text_4">
      <!-- 6 -->
      <defs>
       <path d="M 33.015625 40.375 
Q 26.375 40.375 22.484375 35.828125 
Q 18.609375 31.296875 18.609375 23.390625 
Q 18.609375 15.53125 22.484375 10.953125 
Q 26.375 6.390625 33.015625 6.390625 
Q 39.65625 6.390625 43.53125 10.953125 
Q 47.40625 15.53125 47.40625 23.390625 
Q 47.40625 31.296875 43.53125 35.828125 
Q 39.65625 40.375 33.015625 40.375 
M 52.59375 71.296875 
L 52.59375 62.3125 
Q 48.875 64.0625 45.09375 64.984375 
Q 41.3125 65.921875 37.59375 65.921875 
Q 27.828125 65.921875 22.671875 59.328125 
Q 17.53125 52.734375 16.796875 39.40625 
Q 19.671875 43.65625 24.015625 45.921875 
Q 28.375 48.1875 33.59375 48.1875 
Q 44.578125 48.1875 50.953125 41.515625 
Q 57.328125 34.859375 57.328125 23.390625 
Q 57.328125 12.15625 50.6875 5.359375 
Q 44.046875 -1.421875 33.015625 -1.421875 
Q 20.359375 -1.421875 13.671875 8.265625 
Q 6.984375 17.96875 6.984375 36.375 
Q 6.984375 53.65625 15.1875 63.9375 
Q 23.390625 74.21875 37.203125 74.21875 
Q 40.921875 74.21875 44.703125 73.484375 
Q 48.484375 72.75 52.59375 71.296875 
" id="BitstreamVeraSans-Roman-36"/>
      </defs>
      <g transform="translate(290.497702666 475.883010581)scale(0.15 -0.15)">
       <use xlink:href="#BitstreamVeraSans-Roman-36"/>
      </g>
     </g>
    </g>
    <g id="xtick_5">
     <g id="line2d_13">
      <path clip-path="url(#paebfe03fd1)" d="M 377.627888 460.485354 
L 377.627888 2.834646 
" style="fill:none;stroke:#000000;stroke-dasharray:1.000000,3.000000;stroke-dashoffset:0.0;stroke-width:0.5;"/>
     </g>
     <g id="line2d_14">
      <g>
       <use style="stroke:#000000;stroke-width:0.5;" x="377.627888332" xlink:href="#mc23a91fe7b" y="460.485354331"/>
      </g>
     </g>
     <g id="line2d_15">
      <g>
       <use style="stroke:#000000;stroke-width:0.5;" x="377.627888332" xlink:href="#m5cd250e61b" y="2.83464566929"/>
      </g>
     </g>
     <g id="text_5">
      <!-- 8 -->
      <defs>
       <path d="M 31.78125 34.625 
Q 24.75 34.625 20.71875 30.859375 
Q 16.703125 27.09375 16.703125 20.515625 
Q 16.703125 13.921875 20.71875 10.15625 
Q 24.75 6.390625 31.78125 6.390625 
Q 38.8125 6.390625 42.859375 10.171875 
Q 46.921875 13.96875 46.921875 20.515625 
Q 46.921875 27.09375 42.890625 30.859375 
Q 38.875 34.625 31.78125 34.625 
M 21.921875 38.8125 
Q 15.578125 40.375 12.03125 44.71875 
Q 8.5 49.078125 8.5 55.328125 
Q 8.5 64.0625 14.71875 69.140625 
Q 20.953125 74.21875 31.78125 74.21875 
Q 42.671875 74.21875 48.875 69.140625 
Q 55.078125 64.0625 55.078125 55.328125 
Q 55.078125 49.078125 51.53125 44.71875 
Q 48 40.375 41.703125 38.8125 
Q 48.828125 37.15625 52.796875 32.3125 
Q 56.78125 27.484375 56.78125 20.515625 
Q 56.78125 9.90625 50.3125 4.234375 
Q 43.84375 -1.421875 31.78125 -1.421875 
Q 19.734375 -1.421875 13.25 4.234375 
Q 6.78125 9.90625 6.78125 20.515625 
Q 6.78125 27.484375 10.78125 32.3125 
Q 14.796875 37.15625 21.921875 38.8125 
M 18.3125 54.390625 
Q 18.3125 48.734375 21.84375 45.5625 
Q 25.390625 42.390625 31.78125 42.390625 
Q 38.140625 42.390625 41.71875 45.5625 
Q 45.3125 48.734375 45.3125 54.390625 
Q 45.3125 60.0625 41.71875 63.234375 
Q 38.140625 66.40625 31.78125 66.40625 
Q 25.390625 66.40625 21.84375 63.234375 
Q 18.3125 60.0625 18.3125 54.390625 
" id="BitstreamVeraSans-Roman-38"/>
      </defs>
      <g transform="translate(372.856013332 475.883010581)scale(0.15 -0.15)">
       <use xlink:href="#BitstreamVeraSans-Roman-38"/>
      </g>
     </g>
    </g>
    <g id="xtick_6">
     <g id="line2d_16">
      <path clip-path="url(#paebfe03fd1)" d="M 459.986199 460.485354 
L 459.986199 2.834646 
" style="fill:none;stroke:#000000;stroke-dasharray:1.000000,3.000000;stroke-dashoffset:0.0;stroke-width:0.5;"/>
     </g>
     <g id="line2d_17">
      <g>
       <use style="stroke:#000000;stroke-width:0.5;" x="459.986198998" xlink:href="#mc23a91fe7b" y="460.485354331"/>
      </g>
     </g>
     <g id="line2d_18">
      <g>
       <use style="stroke:#000000;stroke-width:0.5;" x="459.986198998" xlink:href="#m5cd250e61b" y="2.83464566929"/>
      </g>
     </g>
     <g id="text_6">
      <!-- 10 -->
      <defs>
       <path d="M 12.40625 8.296875 
L 28.515625 8.296875 
L 28.515625 63.921875 
L 10.984375 60.40625 
L 10.984375 69.390625 
L 28.421875 72.90625 
L 38.28125 72.90625 
L 38.28125 8.296875 
L 54.390625 8.296875 
L 54.390625 0 
L 12.40625 0 
z
" id="BitstreamVeraSans-Roman-31"/>
      </defs>
      <g transform="translate(450.442448998 475.883010581)scale(0.15 -0.15)">
       <use xlink:href="#BitstreamVeraSans-Roman-31"/>
       <use x="63.623046875" xlink:href="#BitstreamVeraSans-Roman-30"/>
      </g>
     </g>
    </g>
    <g id="text_7">
     <!-- time (s) -->
     <defs>
      <path d="M 18.3125 70.21875 
L 18.3125 54.6875 
L 36.8125 54.6875 
L 36.8125 47.703125 
L 18.3125 47.703125 
L 18.3125 18.015625 
Q 18.3125 11.328125 20.140625 9.421875 
Q 21.96875 7.515625 27.59375 7.515625 
L 36.8125 7.515625 
L 36.8125 0 
L 27.59375 0 
Q 17.1875 0 13.234375 3.875 
Q 9.28125 7.765625 9.28125 18.015625 
L 9.28125 47.703125 
L 2.6875 47.703125 
L 2.6875 54.6875 
L 9.28125 54.6875 
L 9.28125 70.21875 
z
" id="BitstreamVeraSans-Roman-74"/>
      <path d="M 52 44.1875 
Q 55.375 50.25 60.0625 53.125 
Q 64.75 56 71.09375 56 
Q 79.640625 56 84.28125 50.015625 
Q 88.921875 44.046875 88.921875 33.015625 
L 88.921875 0 
L 79.890625 0 
L 79.890625 32.71875 
Q 79.890625 40.578125 77.09375 44.375 
Q 74.3125 48.1875 68.609375 48.1875 
Q 61.625 48.1875 57.5625 43.546875 
Q 53.515625 38.921875 53.515625 30.90625 
L 53.515625 0 
L 44.484375 0 
L 44.484375 32.71875 
Q 44.484375 40.625 41.703125 44.40625 
Q 38.921875 48.1875 33.109375 48.1875 
Q 26.21875 48.1875 22.15625 43.53125 
Q 18.109375 38.875 18.109375 30.90625 
L 18.109375 0 
L 9.078125 0 
L 9.078125 54.6875 
L 18.109375 54.6875 
L 18.109375 46.1875 
Q 21.1875 51.21875 25.484375 53.609375 
Q 29.78125 56 35.6875 56 
Q 41.65625 56 45.828125 52.96875 
Q 50 49.953125 52 44.1875 
" id="BitstreamVeraSans-Roman-6d"/>
      <path d="M 8.015625 75.875 
L 15.828125 75.875 
Q 23.140625 64.359375 26.78125 53.3125 
Q 30.421875 42.28125 30.421875 31.390625 
Q 30.421875 20.453125 26.78125 9.375 
Q 23.140625 -1.703125 15.828125 -13.1875 
L 8.015625 -13.1875 
Q 14.5 -2 17.703125 9.0625 
Q 20.90625 20.125 20.90625 31.390625 
Q 20.90625 42.671875 17.703125 53.65625 
Q 14.5 64.65625 8.015625 75.875 
" id="BitstreamVeraSans-Roman-29"/>
      <path d="M 9.421875 54.6875 
L 18.40625 54.6875 
L 18.40625 0 
L 9.421875 0 
z
M 9.421875 75.984375 
L 18.40625 75.984375 
L 18.40625 64.59375 
L 9.421875 64.59375 
z
" id="BitstreamVeraSans-Roman-69"/>
      <path d="M 31 75.875 
Q 24.46875 64.65625 21.28125 53.65625 
Q 18.109375 42.671875 18.109375 31.390625 
Q 18.109375 20.125 21.3125 9.0625 
Q 24.515625 -2 31 -13.1875 
L 23.1875 -13.1875 
Q 15.875 -1.703125 12.234375 9.375 
Q 8.59375 20.453125 8.59375 31.390625 
Q 8.59375 42.28125 12.203125 53.3125 
Q 15.828125 64.359375 23.1875 75.875 
z
" id="BitstreamVeraSans-Roman-28"/>
      <path d="M 56.203125 29.59375 
L 56.203125 25.203125 
L 14.890625 25.203125 
Q 15.484375 15.921875 20.484375 11.0625 
Q 25.484375 6.203125 34.421875 6.203125 
Q 39.59375 6.203125 44.453125 7.46875 
Q 49.3125 8.734375 54.109375 11.28125 
L 54.109375 2.78125 
Q 49.265625 0.734375 44.1875 -0.34375 
Q 39.109375 -1.421875 33.890625 -1.421875 
Q 20.796875 -1.421875 13.15625 6.1875 
Q 5.515625 13.8125 5.515625 26.8125 
Q 5.515625 40.234375 12.765625 48.109375 
Q 20.015625 56 32.328125 56 
Q 43.359375 56 49.78125 48.890625 
Q 56.203125 41.796875 56.203125 29.59375 
M 47.21875 32.234375 
Q 47.125 39.59375 43.09375 43.984375 
Q 39.0625 48.390625 32.421875 48.390625 
Q 24.90625 48.390625 20.390625 44.140625 
Q 15.875 39.890625 15.1875 32.171875 
z
" id="BitstreamVeraSans-Roman-65"/>
      <path id="BitstreamVeraSans-Roman-20"/>
      <path d="M 44.28125 53.078125 
L 44.28125 44.578125 
Q 40.484375 46.53125 36.375 47.5 
Q 32.28125 48.484375 27.875 48.484375 
Q 21.1875 48.484375 17.84375 46.4375 
Q 14.5 44.390625 14.5 40.28125 
Q 14.5 37.15625 16.890625 35.375 
Q 19.28125 33.59375 26.515625 31.984375 
L 29.59375 31.296875 
Q 39.15625 29.25 43.1875 25.515625 
Q 47.21875 21.78125 47.21875 15.09375 
Q 47.21875 7.46875 41.1875 3.015625 
Q 35.15625 -1.421875 24.609375 -1.421875 
Q 20.21875 -1.421875 15.453125 -0.5625 
Q 10.6875 0.296875 5.421875 2 
L 5.421875 11.28125 
Q 10.40625 8.6875 15.234375 7.390625 
Q 20.0625 6.109375 24.8125 6.109375 
Q 31.15625 6.109375 34.5625 8.28125 
Q 37.984375 10.453125 37.984375 14.40625 
Q 37.984375 18.0625 35.515625 20.015625 
Q 33.0625 21.96875 24.703125 23.78125 
L 21.578125 24.515625 
Q 13.234375 26.265625 9.515625 29.90625 
Q 5.8125 33.546875 5.8125 39.890625 
Q 5.8125 47.609375 11.28125 51.796875 
Q 16.75 56 26.8125 56 
Q 31.78125 56 36.171875 55.265625 
Q 40.578125 54.546875 44.28125 53.078125 
" id="BitstreamVeraSans-Roman-73"/>
     </defs>
     <g transform="translate(241.714609375 496.919885581)scale(0.17 -0.17)">
      <use xlink:href="#BitstreamVeraSans-Roman-74"/>
      <use x="39.208984375" xlink:href="#BitstreamVeraSans-Roman-69"/>
      <use x="66.9921875" xlink:href="#BitstreamVeraSans-Roman-6d"/>
      <use x="164.404296875" xlink:href="#BitstreamVeraSans-Roman-65"/>
      <use x="225.927734375" xlink:href="#BitstreamVeraSans-Roman-20"/>
      <use x="257.71484375" xlink:href="#BitstreamVeraSans-Roman-28"/>
      <use x="296.728515625" xlink:href="#BitstreamVeraSans-Roman-73"/>
      <use x="348.828125" xlink:href="#BitstreamVeraSans-Roman-29"/>
     </g>
    </g>
   </g>
   <g id="matplotlib.axis_2">
    <g id="ytick_1">
     <g id="line2d_19">
      <path clip-path="url(#paebfe03fd1)" d="M 48.194646 374.221828 
L 501.165354 374.221828 
" style="fill:none;stroke:#000000;stroke-dasharray:1.000000,3.000000;stroke-dashoffset:0.0;stroke-width:0.5;"/>
     </g>
     <g id="line2d_20">
      <defs>
       <path d="M 0 0 
L 4 0 
" id="m16e50f820b" style="stroke:#000000;stroke-width:0.5;"/>
      </defs>
      <g>
       <use style="stroke:#000000;stroke-width:0.5;" x="48.1946456693" xlink:href="#m16e50f820b" y="374.221827897"/>
      </g>
     </g>
     <g id="line2d_21">
      <defs>
       <path d="M 0 0 
L -4 0 
" id="m052d0ce594" style="stroke:#000000;stroke-width:0.5;"/>
      </defs>
      <g>
       <use style="stroke:#000000;stroke-width:0.5;" x="501.165354331" xlink:href="#m052d0ce594" y="374.221827897"/>
      </g>
     </g>
     <g id="text_8">
      <!-- 10 -->
      <g transform="translate(25.1071456693 378.360890397)scale(0.15 -0.15)">
       <use xlink:href="#BitstreamVeraSans-Roman-31"/>
       <use x="63.623046875" xlink:href="#BitstreamVeraSans-Roman-30"/>
      </g>
     </g>
    </g>
    <g id="ytick_2">
     <g id="line2d_22">
      <path clip-path="url(#paebfe03fd1)" d="M 48.194646 192.614404 
L 501.165354 192.614404 
" style="fill:none;stroke:#000000;stroke-dasharray:1.000000,3.000000;stroke-dashoffset:0.0;stroke-width:0.5;"/>
     </g>
     <g id="line2d_23">
      <g>
       <use style="stroke:#000000;stroke-width:0.5;" x="48.1946456693" xlink:href="#m16e50f820b" y="192.614403825"/>
      </g>
     </g>
     <g id="line2d_24">
      <g>
       <use style="stroke:#000000;stroke-width:0.5;" x="501.165354331" xlink:href="#m052d0ce594" y="192.614403825"/>
      </g>
     </g>
     <g id="text_9">
      <!-- 20 -->
      <g transform="translate(25.1071456693 196.753466325)scale(0.15 -0.15)">
       <use xlink:href="#BitstreamVeraSans-Roman-32"/>
       <use x="63.623046875" xlink:href="#BitstreamVeraSans-Roman-30"/>
      </g>
     </g>
    </g>
    <g id="ytick_3">
     <g id="line2d_25">
      <path clip-path="url(#paebfe03fd1)" d="M 48.194646 11.00698 
L 501.165354 11.00698 
" style="fill:none;stroke:#000000;stroke-dasharray:1.000000,3.000000;stroke-dashoffset:0.0;stroke-width:0.5;"/>
     </g>
     <g id="line2d_26">
      <g>
       <use style="stroke:#000000;stroke-width:0.5;" x="48.1946456693" xlink:href="#m16e50f820b" y="11.0069797525"/>
      </g>
     </g>
     <g id="line2d_27">
      <g>
       <use style="stroke:#000000;stroke-width:0.5;" x="501.165354331" xlink:href="#m052d0ce594" y="11.0069797525"/>
      </g>
     </g>
     <g id="text_10">
      <!-- 30 -->
      <defs>
       <path d="M 40.578125 39.3125 
Q 47.65625 37.796875 51.625 33 
Q 55.609375 28.21875 55.609375 21.1875 
Q 55.609375 10.40625 48.1875 4.484375 
Q 40.765625 -1.421875 27.09375 -1.421875 
Q 22.515625 -1.421875 17.65625 -0.515625 
Q 12.796875 0.390625 7.625 2.203125 
L 7.625 11.71875 
Q 11.71875 9.328125 16.59375 8.109375 
Q 21.484375 6.890625 26.8125 6.890625 
Q 36.078125 6.890625 40.9375 10.546875 
Q 45.796875 14.203125 45.796875 21.1875 
Q 45.796875 27.640625 41.28125 31.265625 
Q 36.765625 34.90625 28.71875 34.90625 
L 20.21875 34.90625 
L 20.21875 43.015625 
L 29.109375 43.015625 
Q 36.375 43.015625 40.234375 45.921875 
Q 44.09375 48.828125 44.09375 54.296875 
Q 44.09375 59.90625 40.109375 62.90625 
Q 36.140625 65.921875 28.71875 65.921875 
Q 24.65625 65.921875 20.015625 65.03125 
Q 15.375 64.15625 9.8125 62.3125 
L 9.8125 71.09375 
Q 15.4375 72.65625 20.34375 73.4375 
Q 25.25 74.21875 29.59375 74.21875 
Q 40.828125 74.21875 47.359375 69.109375 
Q 53.90625 64.015625 53.90625 55.328125 
Q 53.90625 49.265625 50.4375 45.09375 
Q 46.96875 40.921875 40.578125 39.3125 
" id="BitstreamVeraSans-Roman-33"/>
      </defs>
      <g transform="translate(25.1071456693 15.1460422525)scale(0.15 -0.15)">
       <use xlink:href="#BitstreamVeraSans-Roman-33"/>
       <use x="63.623046875" xlink:href="#BitstreamVeraSans-Roman-30"/>
      </g>
     </g>
    </g>
    <g id="text_11">
     <!-- Longitudinal Velocity (m/s) -->
     <defs>
      <path d="M 48.78125 52.59375 
L 48.78125 44.1875 
Q 44.96875 46.296875 41.140625 47.34375 
Q 37.3125 48.390625 33.40625 48.390625 
Q 24.65625 48.390625 19.8125 42.84375 
Q 14.984375 37.3125 14.984375 27.296875 
Q 14.984375 17.28125 19.8125 11.734375 
Q 24.65625 6.203125 33.40625 6.203125 
Q 37.3125 6.203125 41.140625 7.25 
Q 44.96875 8.296875 48.78125 10.40625 
L 48.78125 2.09375 
Q 45.015625 0.34375 40.984375 -0.53125 
Q 36.96875 -1.421875 32.421875 -1.421875 
Q 20.0625 -1.421875 12.78125 6.34375 
Q 5.515625 14.109375 5.515625 27.296875 
Q 5.515625 40.671875 12.859375 48.328125 
Q 20.21875 56 33.015625 56 
Q 37.15625 56 41.109375 55.140625 
Q 45.0625 54.296875 48.78125 52.59375 
" id="BitstreamVeraSans-Roman-63"/>
      <path d="M 30.609375 48.390625 
Q 23.390625 48.390625 19.1875 42.75 
Q 14.984375 37.109375 14.984375 27.296875 
Q 14.984375 17.484375 19.15625 11.84375 
Q 23.34375 6.203125 30.609375 6.203125 
Q 37.796875 6.203125 41.984375 11.859375 
Q 46.1875 17.53125 46.1875 27.296875 
Q 46.1875 37.015625 41.984375 42.703125 
Q 37.796875 48.390625 30.609375 48.390625 
M 30.609375 56 
Q 42.328125 56 49.015625 48.375 
Q 55.71875 40.765625 55.71875 27.296875 
Q 55.71875 13.875 49.015625 6.21875 
Q 42.328125 -1.421875 30.609375 -1.421875 
Q 18.84375 -1.421875 12.171875 6.21875 
Q 5.515625 13.875 5.515625 27.296875 
Q 5.515625 40.765625 12.171875 48.375 
Q 18.84375 56 30.609375 56 
" id="BitstreamVeraSans-Roman-6f"/>
      <path d="M 45.40625 46.390625 
L 45.40625 75.984375 
L 54.390625 75.984375 
L 54.390625 0 
L 45.40625 0 
L 45.40625 8.203125 
Q 42.578125 3.328125 38.25 0.953125 
Q 33.9375 -1.421875 27.875 -1.421875 
Q 17.96875 -1.421875 11.734375 6.484375 
Q 5.515625 14.40625 5.515625 27.296875 
Q 5.515625 40.1875 11.734375 48.09375 
Q 17.96875 56 27.875 56 
Q 33.9375 56 38.25 53.625 
Q 42.578125 51.265625 45.40625 46.390625 
M 14.796875 27.296875 
Q 14.796875 17.390625 18.875 11.75 
Q 22.953125 6.109375 30.078125 6.109375 
Q 37.203125 6.109375 41.296875 11.75 
Q 45.40625 17.390625 45.40625 27.296875 
Q 45.40625 37.203125 41.296875 42.84375 
Q 37.203125 48.484375 30.078125 48.484375 
Q 22.953125 48.484375 18.875 42.84375 
Q 14.796875 37.203125 14.796875 27.296875 
" id="BitstreamVeraSans-Roman-64"/>
      <path d="M 32.171875 -5.078125 
Q 28.375 -14.84375 24.75 -17.8125 
Q 21.140625 -20.796875 15.09375 -20.796875 
L 7.90625 -20.796875 
L 7.90625 -13.28125 
L 13.1875 -13.28125 
Q 16.890625 -13.28125 18.9375 -11.515625 
Q 21 -9.765625 23.484375 -3.21875 
L 25.09375 0.875 
L 2.984375 54.6875 
L 12.5 54.6875 
L 29.59375 11.921875 
L 46.6875 54.6875 
L 56.203125 54.6875 
z
" id="BitstreamVeraSans-Roman-79"/>
      <path d="M 8.5 21.578125 
L 8.5 54.6875 
L 17.484375 54.6875 
L 17.484375 21.921875 
Q 17.484375 14.15625 20.5 10.265625 
Q 23.53125 6.390625 29.59375 6.390625 
Q 36.859375 6.390625 41.078125 11.03125 
Q 45.3125 15.671875 45.3125 23.6875 
L 45.3125 54.6875 
L 54.296875 54.6875 
L 54.296875 0 
L 45.3125 0 
L 45.3125 8.40625 
Q 42.046875 3.421875 37.71875 1 
Q 33.40625 -1.421875 27.6875 -1.421875 
Q 18.265625 -1.421875 13.375 4.4375 
Q 8.5 10.296875 8.5 21.578125 
" id="BitstreamVeraSans-Roman-75"/>
      <path d="M 45.40625 27.984375 
Q 45.40625 37.75 41.375 43.109375 
Q 37.359375 48.484375 30.078125 48.484375 
Q 22.859375 48.484375 18.828125 43.109375 
Q 14.796875 37.75 14.796875 27.984375 
Q 14.796875 18.265625 18.828125 12.890625 
Q 22.859375 7.515625 30.078125 7.515625 
Q 37.359375 7.515625 41.375 12.890625 
Q 45.40625 18.265625 45.40625 27.984375 
M 54.390625 6.78125 
Q 54.390625 -7.171875 48.1875 -13.984375 
Q 42 -20.796875 29.203125 -20.796875 
Q 24.46875 -20.796875 20.265625 -20.09375 
Q 16.0625 -19.390625 12.109375 -17.921875 
L 12.109375 -9.1875 
Q 16.0625 -11.328125 19.921875 -12.34375 
Q 23.78125 -13.375 27.78125 -13.375 
Q 36.625 -13.375 41.015625 -8.765625 
Q 45.40625 -4.15625 45.40625 5.171875 
L 45.40625 9.625 
Q 42.625 4.78125 38.28125 2.390625 
Q 33.9375 0 27.875 0 
Q 17.828125 0 11.671875 7.65625 
Q 5.515625 15.328125 5.515625 27.984375 
Q 5.515625 40.671875 11.671875 48.328125 
Q 17.828125 56 27.875 56 
Q 33.9375 56 38.28125 53.609375 
Q 42.625 51.21875 45.40625 46.390625 
L 45.40625 54.6875 
L 54.390625 54.6875 
z
" id="BitstreamVeraSans-Roman-67"/>
      <path d="M 25.390625 72.90625 
L 33.6875 72.90625 
L 8.296875 -9.28125 
L 0 -9.28125 
z
" id="BitstreamVeraSans-Roman-2f"/>
      <path d="M 9.8125 72.90625 
L 19.671875 72.90625 
L 19.671875 8.296875 
L 55.171875 8.296875 
L 55.171875 0 
L 9.8125 0 
z
" id="BitstreamVeraSans-Roman-4c"/>
      <path d="M 54.890625 33.015625 
L 54.890625 0 
L 45.90625 0 
L 45.90625 32.71875 
Q 45.90625 40.484375 42.875 44.328125 
Q 39.84375 48.1875 33.796875 48.1875 
Q 26.515625 48.1875 22.3125 43.546875 
Q 18.109375 38.921875 18.109375 30.90625 
L 18.109375 0 
L 9.078125 0 
L 9.078125 54.6875 
L 18.109375 54.6875 
L 18.109375 46.1875 
Q 21.34375 51.125 25.703125 53.5625 
Q 30.078125 56 35.796875 56 
Q 45.21875 56 50.046875 50.171875 
Q 54.890625 44.34375 54.890625 33.015625 
" id="BitstreamVeraSans-Roman-6e"/>
      <path d="M 34.28125 27.484375 
Q 23.390625 27.484375 19.1875 25 
Q 14.984375 22.515625 14.984375 16.5 
Q 14.984375 11.71875 18.140625 8.90625 
Q 21.296875 6.109375 26.703125 6.109375 
Q 34.1875 6.109375 38.703125 11.40625 
Q 43.21875 16.703125 43.21875 25.484375 
L 43.21875 27.484375 
z
M 52.203125 31.203125 
L 52.203125 0 
L 43.21875 0 
L 43.21875 8.296875 
Q 40.140625 3.328125 35.546875 0.953125 
Q 30.953125 -1.421875 24.3125 -1.421875 
Q 15.921875 -1.421875 10.953125 3.296875 
Q 6 8.015625 6 15.921875 
Q 6 25.140625 12.171875 29.828125 
Q 18.359375 34.515625 30.609375 34.515625 
L 43.21875 34.515625 
L 43.21875 35.40625 
Q 43.21875 41.609375 39.140625 45 
Q 35.0625 48.390625 27.6875 48.390625 
Q 23 48.390625 18.546875 47.265625 
Q 14.109375 46.140625 10.015625 43.890625 
L 10.015625 52.203125 
Q 14.9375 54.109375 19.578125 55.046875 
Q 24.21875 56 28.609375 56 
Q 40.484375 56 46.34375 49.84375 
Q 52.203125 43.703125 52.203125 31.203125 
" id="BitstreamVeraSans-Roman-61"/>
      <path d="M 9.421875 75.984375 
L 18.40625 75.984375 
L 18.40625 0 
L 9.421875 0 
z
" id="BitstreamVeraSans-Roman-6c"/>
      <path d="M 28.609375 0 
L 0.78125 72.90625 
L 11.078125 72.90625 
L 34.1875 11.53125 
L 57.328125 72.90625 
L 67.578125 72.90625 
L 39.796875 0 
z
" id="BitstreamVeraSans-Roman-56"/>
     </defs>
     <g transform="translate(16.5716769193 345.776484375)rotate(-90.0)scale(0.17 -0.17)">
      <use xlink:href="#BitstreamVeraSans-Roman-4c"/>
      <use x="55.697265625" xlink:href="#BitstreamVeraSans-Roman-6f"/>
      <use x="116.87890625" xlink:href="#BitstreamVeraSans-Roman-6e"/>
      <use x="180.2578125" xlink:href="#BitstreamVeraSans-Roman-67"/>
      <use x="243.734375" xlink:href="#BitstreamVeraSans-Roman-69"/>
      <use x="271.517578125" xlink:href="#BitstreamVeraSans-Roman-74"/>
      <use x="310.7265625" xlink:href="#BitstreamVeraSans-Roman-75"/>
      <use x="374.10546875" xlink:href="#BitstreamVeraSans-Roman-64"/>
      <use x="437.58203125" xlink:href="#BitstreamVeraSans-Roman-69"/>
      <use x="465.365234375" xlink:href="#BitstreamVeraSans-Roman-6e"/>
      <use x="528.744140625" xlink:href="#BitstreamVeraSans-Roman-61"/>
      <use x="590.0234375" xlink:href="#BitstreamVeraSans-Roman-6c"/>
      <use x="617.806640625" xlink:href="#BitstreamVeraSans-Roman-20"/>
      <use x="649.59375" xlink:href="#BitstreamVeraSans-Roman-56"/>
      <use x="717.892578125" xlink:href="#BitstreamVeraSans-Roman-65"/>
      <use x="779.416015625" xlink:href="#BitstreamVeraSans-Roman-6c"/>
      <use x="807.19921875" xlink:href="#BitstreamVeraSans-Roman-6f"/>
      <use x="868.380859375" xlink:href="#BitstreamVeraSans-Roman-63"/>
      <use x="923.361328125" xlink:href="#BitstreamVeraSans-Roman-69"/>
      <use x="951.14453125" xlink:href="#BitstreamVeraSans-Roman-74"/>
      <use x="990.353515625" xlink:href="#BitstreamVeraSans-Roman-79"/>
      <use x="1049.533203125" xlink:href="#BitstreamVeraSans-Roman-20"/>
      <use x="1081.3203125" xlink:href="#BitstreamVeraSans-Roman-28"/>
      <use x="1120.333984375" xlink:href="#BitstreamVeraSans-Roman-6d"/>
      <use x="1217.74609375" xlink:href="#BitstreamVeraSans-Roman-2f"/>
      <use x="1251.4375" xlink:href="#BitstreamVeraSans-Roman-73"/>
      <use x="1303.537109375" xlink:href="#BitstreamVeraSans-Roman-29"/>
     </g>
    </g>
   </g>
   <g id="line2d_28">
    <path clip-path="url(#paebfe03fd1)" d="M 48.194646 465.02554 
L 52.770107 465.02554 
L 57.345569 465.02554 
L 61.921031 465.02554 
L 66.496492 465.02554 
L 71.071954 465.02554 
L 75.647416 465.02554 
L 80.222878 465.02554 
L 84.798339 465.02554 
L 89.373801 465.02554 
L 93.949263 465.02554 
L 98.524724 465.02554 
L 103.100186 465.02554 
L 107.675648 465.02554 
L 112.25111 465.02554 
L 116.826571 465.02554 
L 121.402033 465.02554 
L 125.977495 465.02554 
L 130.552956 465.02554 
L 135.128418 465.02554 
L 139.70388 465.02554 
L 144.279341 465.02554 
L 148.854803 465.02554 
L 153.430265 465.02554 
L 158.005727 465.02554 
L 162.581188 465.02554 
L 167.15665 465.02554 
L 171.732112 465.02554 
L 176.307573 465.02554 
L 180.883035 465.02554 
L 185.458497 465.02554 
L 190.033958 465.02554 
L 194.60942 465.02554 
L 199.184882 465.02554 
L 203.760344 465.02554 
L 208.335805 465.02554 
L 212.911267 465.02554 
L 217.486729 465.02554 
L 222.06219 465.02554 
L 226.637652 465.02554 
L 231.213114 465.02554 
L 235.788576 465.02554 
L 240.364037 465.02554 
L 244.939499 465.02554 
L 249.514961 465.02554 
L 254.090422 465.02554 
L 258.665884 465.02554 
L 263.241346 465.02554 
L 267.816807 465.02554 
L 272.392269 465.02554 
L 276.967731 465.02554 
L 281.543193 465.02554 
L 286.118654 465.02554 
L 290.694116 465.02554 
L 295.269578 465.02554 
L 299.845039 465.02554 
L 304.420501 465.02554 
L 308.995963 465.02554 
L 313.571424 465.02554 
L 318.146886 465.02554 
L 322.722348 465.02554 
L 327.29781 465.02554 
L 331.873271 465.02554 
L 336.448733 465.02554 
L 341.024195 465.02554 
L 345.599656 465.02554 
L 350.175118 465.02554 
L 354.75058 465.02554 
L 359.326042 465.02554 
L 363.901503 465.02554 
L 368.476965 465.02554 
L 373.052427 465.02554 
L 377.627888 465.02554 
L 382.20335 465.02554 
L 386.778812 465.02554 
L 391.354273 465.02554 
L 395.929735 465.02554 
L 400.505197 465.02554 
L 405.080659 465.02554 
L 409.65612 465.02554 
L 414.231582 465.02554 
L 418.807044 465.02554 
L 423.382505 465.02554 
L 427.957967 465.02554 
L 432.533429 465.02554 
L 437.10889 465.02554 
L 441.684352 465.02554 
L 446.259814 465.02554 
L 450.835276 465.02554 
L 455.410737 465.02554 
L 459.986199 465.02554 
L 464.561661 465.02554 
L 469.137122 465.02554 
L 473.712584 465.02554 
L 478.288046 465.02554 
L 482.863508 465.02554 
L 487.438969 465.02554 
L 492.014431 465.02554 
L 496.589893 465.02554 
L 501.165354 465.02554 
" style="fill:none;stroke:#009afa;stroke-linecap:round;stroke-width:5.5;"/>
   </g>
   <g id="line2d_29">
    <path clip-path="url(#paebfe03fd1)" d="M 48.194646 29.167722 
L 52.770107 29.167722 
L 57.345569 29.167722 
L 61.921031 29.167722 
L 66.496492 29.167722 
L 71.071954 29.167722 
L 75.647416 29.167722 
L 80.222878 29.167722 
L 84.798339 29.167722 
L 89.373801 29.167722 
L 93.949263 29.167722 
L 98.524724 29.167722 
L 103.100186 29.167722 
L 107.675648 29.167722 
L 112.25111 29.167722 
L 116.826571 29.167722 
L 121.402033 29.167722 
L 125.977495 29.167722 
L 130.552956 29.167722 
L 135.128418 29.167722 
L 139.70388 29.167722 
L 144.279341 29.167722 
L 148.854803 29.167722 
L 153.430265 29.167722 
L 158.005727 29.167722 
L 162.581188 29.167722 
L 167.15665 29.167722 
L 171.732112 29.167722 
L 176.307573 29.167722 
L 180.883035 29.167722 
L 185.458497 29.167722 
L 190.033958 29.167722 
L 194.60942 29.167722 
L 199.184882 29.167722 
L 203.760344 29.167722 
L 208.335805 29.167722 
L 212.911267 29.167722 
L 217.486729 29.167722 
L 222.06219 29.167722 
L 226.637652 29.167722 
L 231.213114 29.167722 
L 235.788576 29.167722 
L 240.364037 29.167722 
L 244.939499 29.167722 
L 249.514961 29.167722 
L 254.090422 29.167722 
L 258.665884 29.167722 
L 263.241346 29.167722 
L 267.816807 29.167722 
L 272.392269 29.167722 
L 276.967731 29.167722 
L 281.543193 29.167722 
L 286.118654 29.167722 
L 290.694116 29.167722 
L 295.269578 29.167722 
L 299.845039 29.167722 
L 304.420501 29.167722 
L 308.995963 29.167722 
L 313.571424 29.167722 
L 318.146886 29.167722 
L 322.722348 29.167722 
L 327.29781 29.167722 
L 331.873271 29.167722 
L 336.448733 29.167722 
L 341.024195 29.167722 
L 345.599656 29.167722 
L 350.175118 29.167722 
L 354.75058 29.167722 
L 359.326042 29.167722 
L 363.901503 29.167722 
L 368.476965 29.167722 
L 373.052427 29.167722 
L 377.627888 29.167722 
L 382.20335 29.167722 
L 386.778812 29.167722 
L 391.354273 29.167722 
L 395.929735 29.167722 
L 400.505197 29.167722 
L 405.080659 29.167722 
L 409.65612 29.167722 
L 414.231582 29.167722 
L 418.807044 29.167722 
L 423.382505 29.167722 
L 427.957967 29.167722 
L 432.533429 29.167722 
L 437.10889 29.167722 
L 441.684352 29.167722 
L 446.259814 29.167722 
L 450.835276 29.167722 
L 455.410737 29.167722 
L 459.986199 29.167722 
L 464.561661 29.167722 
L 469.137122 29.167722 
L 473.712584 29.167722 
L 478.288046 29.167722 
L 482.863508 29.167722 
L 487.438969 29.167722 
L 492.014431 29.167722 
L 496.589893 29.167722 
L 501.165354 29.167722 
" style="fill:none;stroke:#e36f47;stroke-linecap:round;stroke-width:5.5;"/>
   </g>
   <g id="patch_3">
    <path d="M 48.194646 460.485354 
L 48.194646 2.834646 
" style="fill:none;stroke:#000000;stroke-linecap:square;stroke-linejoin:miter;"/>
   </g>
   <g id="patch_4">
    <path d="M 501.165354 460.485354 
L 501.165354 2.834646 
" style="fill:none;stroke:#000000;stroke-linecap:square;stroke-linejoin:miter;"/>
   </g>
   <g id="patch_5">
    <path d="M 48.194646 460.485354 
L 501.165354 460.485354 
" style="fill:none;stroke:#000000;stroke-linecap:square;stroke-linejoin:miter;"/>
   </g>
   <g id="patch_6">
    <path d="M 48.194646 2.834646 
L 501.165354 2.834646 
" style="fill:none;stroke:#000000;stroke-linecap:square;stroke-linejoin:miter;"/>
   </g>
   <g id="line2d_30">
    <path clip-path="url(#paebfe03fd1)" d="M 48.194646 247.096631 
L 72.313865 247.183638 
L 75.843507 247.514344 
L 79.373149 248.094163 
L 83.491065 249.01453 
L 88.785527 250.39409 
L 91.138622 251.143922 
L 93.491717 252.144066 
L 95.844811 253.432385 
L 98.197906 255.010624 
L 100.551 256.879672 
L 102.904095 259.039542 
L 105.257189 261.489892 
L 107.610284 264.230522 
L 110.551652 268.054049 
L 117.022662 276.807113 
L 119.964031 280.335891 
L 122.317125 282.833322 
L 124.67022 285.037867 
L 127.023314 286.947274 
L 129.376409 288.560278 
L 131.729504 289.905705 
L 134.082598 290.999371 
L 136.435693 291.802321 
L 138.788787 292.314035 
L 141.141882 292.575564 
L 148.789439 293.167177 
L 152.907355 293.92989 
L 167.614196 296.929262 
L 178.203122 299.323448 
L 192.909963 302.920323 
L 195.263058 303.746868 
L 199.380973 305.321395 
L 201.145794 305.768427 
L 203.498889 306.105592 
L 205.851983 306.152407 
L 208.205078 305.934407 
L 210.558172 305.505362 
L 213.499541 304.753 
L 216.440909 303.730923 
L 219.382277 302.777732 
L 221.735372 302.315398 
L 224.088466 302.149309 
L 225.853287 302.219219 
L 228.206382 302.57176 
L 230.559476 303.220689 
L 232.912571 304.16602 
L 235.265666 305.406906 
L 237.61876 306.943015 
L 239.971855 308.775134 
L 242.324949 310.903261 
L 244.678044 313.327414 
L 247.031139 316.047571 
L 249.384233 319.063793 
L 252.325601 323.250123 
L 255.26697 327.815036 
L 264.679348 343.010266 
L 267.620716 347.038022 
L 269.973811 349.928183 
L 272.326905 352.523481 
L 274.68 354.823675 
L 274.68 354.823675 
L 278.209642 357.900719 
L 280.562736 359.685523 
L 282.915831 361.226357 
L 285.268926 362.524208 
L 287.62202 363.583884 
L 289.975115 364.412377 
L 292.328209 365.01236 
L 294.681304 365.379355 
L 297.622672 365.563498 
L 299.975767 365.498695 
L 302.328861 365.210609 
L 304.681956 364.658919 
L 307.035051 363.828838 
L 309.388145 362.733142 
L 312.329513 361.073861 
L 321.153618 355.867949 
L 339.978375 346.087324 
L 344.09629 344.318235 
L 349.390753 342.294579 
L 355.27349 340.260181 
L 359.391405 338.811258 
L 361.7445 337.66207 
L 365.274142 335.635286 
L 377.039615 328.786855 
L 380.569257 326.871504 
L 383.510625 325.497864 
L 386.451993 324.349098 
L 389.393361 323.414124 
L 392.923003 322.536606 
L 396.452645 321.893992 
L 400.570561 321.222182 
L 402.923655 320.506696 
L 405.27675 319.514992 
L 408.218118 317.9734 
L 419.983591 311.506819 
L 424.101506 309.447456 
L 427.042875 308.245683 
L 429.984243 307.312746 
L 432.925611 306.620974 
L 436.455253 306.054389 
L 458.221378 303.25533 
L 466.457209 302.235432 
L 473.516493 301.654727 
L 479.987503 301.344516 
L 486.458513 301.219388 
L 494.106071 301.349327 
L 501.165354 301.482896 
L 501.165354 301.482896 
" style="fill:none;stroke:#3ea44e;stroke-linecap:round;stroke-width:3.0;"/>
   </g>
   <g id="legend_1">
    <g id="patch_7">
     <path d="M 54.194646 454.485354 
L 128.009646 454.485354 
L 128.009646 398.044104 
L 54.194646 398.044104 
z
" style="fill:#ffffff;stroke:#000000;stroke-linejoin:miter;"/>
    </g>
    <g id="line2d_31">
     <path d="M 62.594646 407.762229 
L 79.394646 407.762229 
" style="fill:none;stroke:#009afa;stroke-linecap:round;stroke-width:5.5;"/>
    </g>
    <g id="line2d_32"/>
    <g id="text_12">
     <!-- min -->
     <g transform="translate(92.5946456693 411.962229331)scale(0.12 -0.12)">
      <use xlink:href="#BitstreamVeraSans-Roman-6d"/>
      <use x="97.412109375" xlink:href="#BitstreamVeraSans-Roman-69"/>
      <use x="125.1953125" xlink:href="#BitstreamVeraSans-Roman-6e"/>
     </g>
    </g>
    <g id="line2d_33">
     <path d="M 62.594646 425.375979 
L 79.394646 425.375979 
" style="fill:none;stroke:#e36f47;stroke-linecap:round;stroke-width:5.5;"/>
    </g>
    <g id="line2d_34"/>
    <g id="text_13">
     <!-- max -->
     <defs>
      <path d="M 54.890625 54.6875 
L 35.109375 28.078125 
L 55.90625 0 
L 45.3125 0 
L 29.390625 21.484375 
L 13.484375 0 
L 2.875 0 
L 24.125 28.609375 
L 4.6875 54.6875 
L 15.28125 54.6875 
L 29.78125 35.203125 
L 44.28125 54.6875 
z
" id="BitstreamVeraSans-Roman-78"/>
     </defs>
     <g transform="translate(92.5946456693 429.575979331)scale(0.12 -0.12)">
      <use xlink:href="#BitstreamVeraSans-Roman-6d"/>
      <use x="97.412109375" xlink:href="#BitstreamVeraSans-Roman-61"/>
      <use x="158.69140625" xlink:href="#BitstreamVeraSans-Roman-78"/>
     </g>
    </g>
    <g id="line2d_35">
     <path d="M 62.594646 442.989729 
L 79.394646 442.989729 
" style="fill:none;stroke:#3ea44e;stroke-linecap:round;stroke-width:3.0;"/>
    </g>
    <g id="line2d_36"/>
    <g id="text_14">
     <!-- plant -->
     <defs>
      <path d="M 18.109375 8.203125 
L 18.109375 -20.796875 
L 9.078125 -20.796875 
L 9.078125 54.6875 
L 18.109375 54.6875 
L 18.109375 46.390625 
Q 20.953125 51.265625 25.265625 53.625 
Q 29.59375 56 35.59375 56 
Q 45.5625 56 51.78125 48.09375 
Q 58.015625 40.1875 58.015625 27.296875 
Q 58.015625 14.40625 51.78125 6.484375 
Q 45.5625 -1.421875 35.59375 -1.421875 
Q 29.59375 -1.421875 25.265625 0.953125 
Q 20.953125 3.328125 18.109375 8.203125 
M 48.6875 27.296875 
Q 48.6875 37.203125 44.609375 42.84375 
Q 40.53125 48.484375 33.40625 48.484375 
Q 26.265625 48.484375 22.1875 42.84375 
Q 18.109375 37.203125 18.109375 27.296875 
Q 18.109375 17.390625 22.1875 11.75 
Q 26.265625 6.109375 33.40625 6.109375 
Q 40.53125 6.109375 44.609375 11.75 
Q 48.6875 17.390625 48.6875 27.296875 
" id="BitstreamVeraSans-Roman-70"/>
     </defs>
     <g transform="translate(92.5946456693 447.189729331)scale(0.12 -0.12)">
      <use xlink:href="#BitstreamVeraSans-Roman-70"/>
      <use x="63.4765625" xlink:href="#BitstreamVeraSans-Roman-6c"/>
      <use x="91.259765625" xlink:href="#BitstreamVeraSans-Roman-61"/>
      <use x="152.5390625" xlink:href="#BitstreamVeraSans-Roman-6e"/>
      <use x="215.91796875" xlink:href="#BitstreamVeraSans-Roman-74"/>
     </g>
    </g>
   </g>
  </g>
 </g>
 <defs>
  <clipPath id="paebfe03fd1">
   <rect height="457.650708661" width="452.970708661" x="48.1946456693" y="2.83464566929"/>
  </clipPath>
 </defs>
</svg>
