<?xml version="1.0" encoding="utf-8" standalone="no"?>
<!DOCTYPE svg PUBLIC "-//W3C//DTD SVG 1.1//EN"
  "http://www.w3.org/Graphics/SVG/1.1/DTD/svg11.dtd">
<!-- Created with matplotlib (http://matplotlib.org/) -->
<svg height="504pt" version="1.1" viewBox="0 0 504 504" width="504pt" xmlns="http://www.w3.org/2000/svg" xmlns:xlink="http://www.w3.org/1999/xlink">
 <defs>
  <style type="text/css">
*{stroke-linecap:butt;stroke-linejoin:round;stroke-miterlimit:100000;}
  </style>
 </defs>
 <g id="figure_1">
  <g id="patch_1">
   <path d="M 0 504 
L 504 504 
L 504 0 
L 0 0 
z
" style="fill:#ffffff;"/>
  </g>
  <g id="axes_1">
   <g id="patch_2">
    <path d="M 76.814646 460.485354 
L 501.165354 460.485354 
L 501.165354 23.674646 
L 76.814646 23.674646 
z
" style="fill:#ffffff;"/>
   </g>
   <g id="matplotlib.axis_1">
    <g id="xtick_1">
     <g id="line2d_1">
      <path clip-path="url(#pe6d3b389ea)" d="M 76.814646 460.485354 
L 76.814646 23.674646 
" style="fill:none;stroke:#000000;stroke-dasharray:1.000000,3.000000;stroke-dashoffset:0.0;stroke-width:0.5;"/>
     </g>
     <g id="line2d_2">
      <defs>
       <path d="M 0 0 
L 0 -4 
" id="m7e75ae6eb8" style="stroke:#000000;stroke-width:0.5;"/>
      </defs>
      <g>
       <use style="stroke:#000000;stroke-width:0.5;" x="76.8146456693" xlink:href="#m7e75ae6eb8" y="460.485354331"/>
      </g>
     </g>
     <g id="line2d_3">
      <defs>
       <path d="M 0 0 
L 0 4 
" id="m018281e310" style="stroke:#000000;stroke-width:0.5;"/>
      </defs>
      <g>
       <use style="stroke:#000000;stroke-width:0.5;" x="76.8146456693" xlink:href="#m018281e310" y="23.6746456693"/>
      </g>
     </g>
     <g id="text_1">
      <!-- 0 -->
      <defs>
       <path d="M 31.78125 66.40625 
Q 24.171875 66.40625 20.328125 58.90625 
Q 16.5 51.421875 16.5 36.375 
Q 16.5 21.390625 20.328125 13.890625 
Q 24.171875 6.390625 31.78125 6.390625 
Q 39.453125 6.390625 43.28125 13.890625 
Q 47.125 21.390625 47.125 36.375 
Q 47.125 51.421875 43.28125 58.90625 
Q 39.453125 66.40625 31.78125 66.40625 
M 31.78125 74.21875 
Q 44.046875 74.21875 50.515625 64.515625 
Q 56.984375 54.828125 56.984375 36.375 
Q 56.984375 17.96875 50.515625 8.265625 
Q 44.046875 -1.421875 31.78125 -1.421875 
Q 19.53125 -1.421875 13.0625 8.265625 
Q 6.59375 17.96875 6.59375 36.375 
Q 6.59375 54.828125 13.0625 64.515625 
Q 19.53125 74.21875 31.78125 74.21875 
" id="BitstreamVeraSans-Roman-30"/>
      </defs>
      <g transform="translate(72.0427706693 475.883010581)scale(0.15 -0.15)">
       <use xlink:href="#BitstreamVeraSans-Roman-30"/>
      </g>
     </g>
    </g>
    <g id="xtick_2">
     <g id="line2d_4">
      <path clip-path="url(#pe6d3b389ea)" d="M 153.96932 460.485354 
L 153.96932 23.674646 
" style="fill:none;stroke:#000000;stroke-dasharray:1.000000,3.000000;stroke-dashoffset:0.0;stroke-width:0.5;"/>
     </g>
     <g id="line2d_5">
      <g>
       <use style="stroke:#000000;stroke-width:0.5;" x="153.969319971" xlink:href="#m7e75ae6eb8" y="460.485354331"/>
      </g>
     </g>
     <g id="line2d_6">
      <g>
       <use style="stroke:#000000;stroke-width:0.5;" x="153.969319971" xlink:href="#m018281e310" y="23.6746456693"/>
      </g>
     </g>
     <g id="text_2">
      <!-- 2 -->
      <defs>
       <path d="M 19.1875 8.296875 
L 53.609375 8.296875 
L 53.609375 0 
L 7.328125 0 
L 7.328125 8.296875 
Q 12.9375 14.109375 22.625 23.890625 
Q 32.328125 33.6875 34.8125 36.53125 
Q 39.546875 41.84375 41.421875 45.53125 
Q 43.3125 49.21875 43.3125 52.78125 
Q 43.3125 58.59375 39.234375 62.25 
Q 35.15625 65.921875 28.609375 65.921875 
Q 23.96875 65.921875 18.8125 64.3125 
Q 13.671875 62.703125 7.8125 59.421875 
L 7.8125 69.390625 
Q 13.765625 71.78125 18.9375 73 
Q 24.125 74.21875 28.421875 74.21875 
Q 39.75 74.21875 46.484375 68.546875 
Q 53.21875 62.890625 53.21875 53.421875 
Q 53.21875 48.921875 51.53125 44.890625 
Q 49.859375 40.875 45.40625 35.40625 
Q 44.1875 33.984375 37.640625 27.21875 
Q 31.109375 20.453125 19.1875 8.296875 
" id="BitstreamVeraSans-Roman-32"/>
      </defs>
      <g transform="translate(149.197444971 475.883010581)scale(0.15 -0.15)">
       <use xlink:href="#BitstreamVeraSans-Roman-32"/>
      </g>
     </g>
    </g>
    <g id="xtick_3">
     <g id="line2d_7">
      <path clip-path="url(#pe6d3b389ea)" d="M 231.123994 460.485354 
L 231.123994 23.674646 
" style="fill:none;stroke:#000000;stroke-dasharray:1.000000,3.000000;stroke-dashoffset:0.0;stroke-width:0.5;"/>
     </g>
     <g id="line2d_8">
      <g>
       <use style="stroke:#000000;stroke-width:0.5;" x="231.123994273" xlink:href="#m7e75ae6eb8" y="460.485354331"/>
      </g>
     </g>
     <g id="line2d_9">
      <g>
       <use style="stroke:#000000;stroke-width:0.5;" x="231.123994273" xlink:href="#m018281e310" y="23.6746456693"/>
      </g>
     </g>
     <g id="text_3">
      <!-- 4 -->
      <defs>
       <path d="M 37.796875 64.3125 
L 12.890625 25.390625 
L 37.796875 25.390625 
z
M 35.203125 72.90625 
L 47.609375 72.90625 
L 47.609375 25.390625 
L 58.015625 25.390625 
L 58.015625 17.1875 
L 47.609375 17.1875 
L 47.609375 0 
L 37.796875 0 
L 37.796875 17.1875 
L 4.890625 17.1875 
L 4.890625 26.703125 
z
" id="BitstreamVeraSans-Roman-34"/>
      </defs>
      <g transform="translate(226.352119273 475.883010581)scale(0.15 -0.15)">
       <use xlink:href="#BitstreamVeraSans-Roman-34"/>
      </g>
     </g>
    </g>
    <g id="xtick_4">
     <g id="line2d_10">
      <path clip-path="url(#pe6d3b389ea)" d="M 308.278669 460.485354 
L 308.278669 23.674646 
" style="fill:none;stroke:#000000;stroke-dasharray:1.000000,3.000000;stroke-dashoffset:0.0;stroke-width:0.5;"/>
     </g>
     <g id="line2d_11">
      <g>
       <use style="stroke:#000000;stroke-width:0.5;" x="308.278668576" xlink:href="#m7e75ae6eb8" y="460.485354331"/>
      </g>
     </g>
     <g id="line2d_12">
      <g>
       <use style="stroke:#000000;stroke-width:0.5;" x="308.278668576" xlink:href="#m018281e310" y="23.6746456693"/>
      </g>
     </g>
     <g id="text_4">
      <!-- 6 -->
      <defs>
       <path d="M 33.015625 40.375 
Q 26.375 40.375 22.484375 35.828125 
Q 18.609375 31.296875 18.609375 23.390625 
Q 18.609375 15.53125 22.484375 10.953125 
Q 26.375 6.390625 33.015625 6.390625 
Q 39.65625 6.390625 43.53125 10.953125 
Q 47.40625 15.53125 47.40625 23.390625 
Q 47.40625 31.296875 43.53125 35.828125 
Q 39.65625 40.375 33.015625 40.375 
M 52.59375 71.296875 
L 52.59375 62.3125 
Q 48.875 64.0625 45.09375 64.984375 
Q 41.3125 65.921875 37.59375 65.921875 
Q 27.828125 65.921875 22.671875 59.328125 
Q 17.53125 52.734375 16.796875 39.40625 
Q 19.671875 43.65625 24.015625 45.921875 
Q 28.375 48.1875 33.59375 48.1875 
Q 44.578125 48.1875 50.953125 41.515625 
Q 57.328125 34.859375 57.328125 23.390625 
Q 57.328125 12.15625 50.6875 5.359375 
Q 44.046875 -1.421875 33.015625 -1.421875 
Q 20.359375 -1.421875 13.671875 8.265625 
Q 6.984375 17.96875 6.984375 36.375 
Q 6.984375 53.65625 15.1875 63.9375 
Q 23.390625 74.21875 37.203125 74.21875 
Q 40.921875 74.21875 44.703125 73.484375 
Q 48.484375 72.75 52.59375 71.296875 
" id="BitstreamVeraSans-Roman-36"/>
      </defs>
      <g transform="translate(303.506793576 475.883010581)scale(0.15 -0.15)">
       <use xlink:href="#BitstreamVeraSans-Roman-36"/>
      </g>
     </g>
    </g>
    <g id="xtick_5">
     <g id="line2d_13">
      <path clip-path="url(#pe6d3b389ea)" d="M 385.433343 460.485354 
L 385.433343 23.674646 
" style="fill:none;stroke:#000000;stroke-dasharray:1.000000,3.000000;stroke-dashoffset:0.0;stroke-width:0.5;"/>
     </g>
     <g id="line2d_14">
      <g>
       <use style="stroke:#000000;stroke-width:0.5;" x="385.433342878" xlink:href="#m7e75ae6eb8" y="460.485354331"/>
      </g>
     </g>
     <g id="line2d_15">
      <g>
       <use style="stroke:#000000;stroke-width:0.5;" x="385.433342878" xlink:href="#m018281e310" y="23.6746456693"/>
      </g>
     </g>
     <g id="text_5">
      <!-- 8 -->
      <defs>
       <path d="M 31.78125 34.625 
Q 24.75 34.625 20.71875 30.859375 
Q 16.703125 27.09375 16.703125 20.515625 
Q 16.703125 13.921875 20.71875 10.15625 
Q 24.75 6.390625 31.78125 6.390625 
Q 38.8125 6.390625 42.859375 10.171875 
Q 46.921875 13.96875 46.921875 20.515625 
Q 46.921875 27.09375 42.890625 30.859375 
Q 38.875 34.625 31.78125 34.625 
M 21.921875 38.8125 
Q 15.578125 40.375 12.03125 44.71875 
Q 8.5 49.078125 8.5 55.328125 
Q 8.5 64.0625 14.71875 69.140625 
Q 20.953125 74.21875 31.78125 74.21875 
Q 42.671875 74.21875 48.875 69.140625 
Q 55.078125 64.0625 55.078125 55.328125 
Q 55.078125 49.078125 51.53125 44.71875 
Q 48 40.375 41.703125 38.8125 
Q 48.828125 37.15625 52.796875 32.3125 
Q 56.78125 27.484375 56.78125 20.515625 
Q 56.78125 9.90625 50.3125 4.234375 
Q 43.84375 -1.421875 31.78125 -1.421875 
Q 19.734375 -1.421875 13.25 4.234375 
Q 6.78125 9.90625 6.78125 20.515625 
Q 6.78125 27.484375 10.78125 32.3125 
Q 14.796875 37.15625 21.921875 38.8125 
M 18.3125 54.390625 
Q 18.3125 48.734375 21.84375 45.5625 
Q 25.390625 42.390625 31.78125 42.390625 
Q 38.140625 42.390625 41.71875 45.5625 
Q 45.3125 48.734375 45.3125 54.390625 
Q 45.3125 60.0625 41.71875 63.234375 
Q 38.140625 66.40625 31.78125 66.40625 
Q 25.390625 66.40625 21.84375 63.234375 
Q 18.3125 60.0625 18.3125 54.390625 
" id="BitstreamVeraSans-Roman-38"/>
      </defs>
      <g transform="translate(380.661467878 475.883010581)scale(0.15 -0.15)">
       <use xlink:href="#BitstreamVeraSans-Roman-38"/>
      </g>
     </g>
    </g>
    <g id="xtick_6">
     <g id="line2d_16">
      <path clip-path="url(#pe6d3b389ea)" d="M 462.588017 460.485354 
L 462.588017 23.674646 
" style="fill:none;stroke:#000000;stroke-dasharray:1.000000,3.000000;stroke-dashoffset:0.0;stroke-width:0.5;"/>
     </g>
     <g id="line2d_17">
      <g>
       <use style="stroke:#000000;stroke-width:0.5;" x="462.58801718" xlink:href="#m7e75ae6eb8" y="460.485354331"/>
      </g>
     </g>
     <g id="line2d_18">
      <g>
       <use style="stroke:#000000;stroke-width:0.5;" x="462.58801718" xlink:href="#m018281e310" y="23.6746456693"/>
      </g>
     </g>
     <g id="text_6">
      <!-- 10 -->
      <defs>
       <path d="M 12.40625 8.296875 
L 28.515625 8.296875 
L 28.515625 63.921875 
L 10.984375 60.40625 
L 10.984375 69.390625 
L 28.421875 72.90625 
L 38.28125 72.90625 
L 38.28125 8.296875 
L 54.390625 8.296875 
L 54.390625 0 
L 12.40625 0 
z
" id="BitstreamVeraSans-Roman-31"/>
      </defs>
      <g transform="translate(453.04426718 475.883010581)scale(0.15 -0.15)">
       <use xlink:href="#BitstreamVeraSans-Roman-31"/>
       <use x="63.623046875" xlink:href="#BitstreamVeraSans-Roman-30"/>
      </g>
     </g>
    </g>
    <g id="text_7">
     <!-- time (s) -->
     <defs>
      <path d="M 18.3125 70.21875 
L 18.3125 54.6875 
L 36.8125 54.6875 
L 36.8125 47.703125 
L 18.3125 47.703125 
L 18.3125 18.015625 
Q 18.3125 11.328125 20.140625 9.421875 
Q 21.96875 7.515625 27.59375 7.515625 
L 36.8125 7.515625 
L 36.8125 0 
L 27.59375 0 
Q 17.1875 0 13.234375 3.875 
Q 9.28125 7.765625 9.28125 18.015625 
L 9.28125 47.703125 
L 2.6875 47.703125 
L 2.6875 54.6875 
L 9.28125 54.6875 
L 9.28125 70.21875 
z
" id="BitstreamVeraSans-Roman-74"/>
      <path d="M 52 44.1875 
Q 55.375 50.25 60.0625 53.125 
Q 64.75 56 71.09375 56 
Q 79.640625 56 84.28125 50.015625 
Q 88.921875 44.046875 88.921875 33.015625 
L 88.921875 0 
L 79.890625 0 
L 79.890625 32.71875 
Q 79.890625 40.578125 77.09375 44.375 
Q 74.3125 48.1875 68.609375 48.1875 
Q 61.625 48.1875 57.5625 43.546875 
Q 53.515625 38.921875 53.515625 30.90625 
L 53.515625 0 
L 44.484375 0 
L 44.484375 32.71875 
Q 44.484375 40.625 41.703125 44.40625 
Q 38.921875 48.1875 33.109375 48.1875 
Q 26.21875 48.1875 22.15625 43.53125 
Q 18.109375 38.875 18.109375 30.90625 
L 18.109375 0 
L 9.078125 0 
L 9.078125 54.6875 
L 18.109375 54.6875 
L 18.109375 46.1875 
Q 21.1875 51.21875 25.484375 53.609375 
Q 29.78125 56 35.6875 56 
Q 41.65625 56 45.828125 52.96875 
Q 50 49.953125 52 44.1875 
" id="BitstreamVeraSans-Roman-6d"/>
      <path d="M 8.015625 75.875 
L 15.828125 75.875 
Q 23.140625 64.359375 26.78125 53.3125 
Q 30.421875 42.28125 30.421875 31.390625 
Q 30.421875 20.453125 26.78125 9.375 
Q 23.140625 -1.703125 15.828125 -13.1875 
L 8.015625 -13.1875 
Q 14.5 -2 17.703125 9.0625 
Q 20.90625 20.125 20.90625 31.390625 
Q 20.90625 42.671875 17.703125 53.65625 
Q 14.5 64.65625 8.015625 75.875 
" id="BitstreamVeraSans-Roman-29"/>
      <path d="M 9.421875 54.6875 
L 18.40625 54.6875 
L 18.40625 0 
L 9.421875 0 
z
M 9.421875 75.984375 
L 18.40625 75.984375 
L 18.40625 64.59375 
L 9.421875 64.59375 
z
" id="BitstreamVeraSans-Roman-69"/>
      <path d="M 31 75.875 
Q 24.46875 64.65625 21.28125 53.65625 
Q 18.109375 42.671875 18.109375 31.390625 
Q 18.109375 20.125 21.3125 9.0625 
Q 24.515625 -2 31 -13.1875 
L 23.1875 -13.1875 
Q 15.875 -1.703125 12.234375 9.375 
Q 8.59375 20.453125 8.59375 31.390625 
Q 8.59375 42.28125 12.203125 53.3125 
Q 15.828125 64.359375 23.1875 75.875 
z
" id="BitstreamVeraSans-Roman-28"/>
      <path d="M 56.203125 29.59375 
L 56.203125 25.203125 
L 14.890625 25.203125 
Q 15.484375 15.921875 20.484375 11.0625 
Q 25.484375 6.203125 34.421875 6.203125 
Q 39.59375 6.203125 44.453125 7.46875 
Q 49.3125 8.734375 54.109375 11.28125 
L 54.109375 2.78125 
Q 49.265625 0.734375 44.1875 -0.34375 
Q 39.109375 -1.421875 33.890625 -1.421875 
Q 20.796875 -1.421875 13.15625 6.1875 
Q 5.515625 13.8125 5.515625 26.8125 
Q 5.515625 40.234375 12.765625 48.109375 
Q 20.015625 56 32.328125 56 
Q 43.359375 56 49.78125 48.890625 
Q 56.203125 41.796875 56.203125 29.59375 
M 47.21875 32.234375 
Q 47.125 39.59375 43.09375 43.984375 
Q 39.0625 48.390625 32.421875 48.390625 
Q 24.90625 48.390625 20.390625 44.140625 
Q 15.875 39.890625 15.1875 32.171875 
z
" id="BitstreamVeraSans-Roman-65"/>
      <path id="BitstreamVeraSans-Roman-20"/>
      <path d="M 44.28125 53.078125 
L 44.28125 44.578125 
Q 40.484375 46.53125 36.375 47.5 
Q 32.28125 48.484375 27.875 48.484375 
Q 21.1875 48.484375 17.84375 46.4375 
Q 14.5 44.390625 14.5 40.28125 
Q 14.5 37.15625 16.890625 35.375 
Q 19.28125 33.59375 26.515625 31.984375 
L 29.59375 31.296875 
Q 39.15625 29.25 43.1875 25.515625 
Q 47.21875 21.78125 47.21875 15.09375 
Q 47.21875 7.46875 41.1875 3.015625 
Q 35.15625 -1.421875 24.609375 -1.421875 
Q 20.21875 -1.421875 15.453125 -0.5625 
Q 10.6875 0.296875 5.421875 2 
L 5.421875 11.28125 
Q 10.40625 8.6875 15.234375 7.390625 
Q 20.0625 6.109375 24.8125 6.109375 
Q 31.15625 6.109375 34.5625 8.28125 
Q 37.984375 10.453125 37.984375 14.40625 
Q 37.984375 18.0625 35.515625 20.015625 
Q 33.0625 21.96875 24.703125 23.78125 
L 21.578125 24.515625 
Q 13.234375 26.265625 9.515625 29.90625 
Q 5.8125 33.546875 5.8125 39.890625 
Q 5.8125 47.609375 11.28125 51.796875 
Q 16.75 56 26.8125 56 
Q 31.78125 56 36.171875 55.265625 
Q 40.578125 54.546875 44.28125 53.078125 
" id="BitstreamVeraSans-Roman-73"/>
     </defs>
     <g transform="translate(256.024609375 496.919885581)scale(0.17 -0.17)">
      <use xlink:href="#BitstreamVeraSans-Roman-74"/>
      <use x="39.208984375" xlink:href="#BitstreamVeraSans-Roman-69"/>
      <use x="66.9921875" xlink:href="#BitstreamVeraSans-Roman-6d"/>
      <use x="164.404296875" xlink:href="#BitstreamVeraSans-Roman-65"/>
      <use x="225.927734375" xlink:href="#BitstreamVeraSans-Roman-20"/>
      <use x="257.71484375" xlink:href="#BitstreamVeraSans-Roman-28"/>
      <use x="296.728515625" xlink:href="#BitstreamVeraSans-Roman-73"/>
      <use x="348.828125" xlink:href="#BitstreamVeraSans-Roman-29"/>
     </g>
    </g>
   </g>
   <g id="matplotlib.axis_2">
    <g id="ytick_1">
     <g id="line2d_19">
      <path clip-path="url(#pe6d3b389ea)" d="M 76.814646 386.263369 
L 501.165354 386.263369 
" style="fill:none;stroke:#000000;stroke-dasharray:1.000000,3.000000;stroke-dashoffset:0.0;stroke-width:0.5;"/>
     </g>
     <g id="line2d_20">
      <defs>
       <path d="M 0 0 
L 4 0 
" id="m391e27162c" style="stroke:#000000;stroke-width:0.5;"/>
      </defs>
      <g>
       <use style="stroke:#000000;stroke-width:0.5;" x="76.8146456693" xlink:href="#m391e27162c" y="386.263368738"/>
      </g>
     </g>
     <g id="line2d_21">
      <defs>
       <path d="M 0 0 
L -4 0 
" id="m55700f8e08" style="stroke:#000000;stroke-width:0.5;"/>
      </defs>
      <g>
       <use style="stroke:#000000;stroke-width:0.5;" x="501.165354331" xlink:href="#m55700f8e08" y="386.263368738"/>
      </g>
     </g>
     <g id="text_8">
      <!-- 2500 -->
      <defs>
       <path d="M 10.796875 72.90625 
L 49.515625 72.90625 
L 49.515625 64.59375 
L 19.828125 64.59375 
L 19.828125 46.734375 
Q 21.96875 47.46875 24.109375 47.828125 
Q 26.265625 48.1875 28.421875 48.1875 
Q 40.625 48.1875 47.75 41.5 
Q 54.890625 34.8125 54.890625 23.390625 
Q 54.890625 11.625 47.5625 5.09375 
Q 40.234375 -1.421875 26.90625 -1.421875 
Q 22.3125 -1.421875 17.546875 -0.640625 
Q 12.796875 0.140625 7.71875 1.703125 
L 7.71875 11.625 
Q 12.109375 9.234375 16.796875 8.0625 
Q 21.484375 6.890625 26.703125 6.890625 
Q 35.15625 6.890625 40.078125 11.328125 
Q 45.015625 15.765625 45.015625 23.390625 
Q 45.015625 31 40.078125 35.4375 
Q 35.15625 39.890625 26.703125 39.890625 
Q 22.75 39.890625 18.8125 39.015625 
Q 14.890625 38.140625 10.796875 36.28125 
z
" id="BitstreamVeraSans-Roman-35"/>
      </defs>
      <g transform="translate(34.6396456693 390.402431238)scale(0.15 -0.15)">
       <use xlink:href="#BitstreamVeraSans-Roman-32"/>
       <use x="63.623046875" xlink:href="#BitstreamVeraSans-Roman-35"/>
       <use x="127.24609375" xlink:href="#BitstreamVeraSans-Roman-30"/>
       <use x="190.869140625" xlink:href="#BitstreamVeraSans-Roman-30"/>
      </g>
     </g>
    </g>
    <g id="ytick_2">
     <g id="line2d_22">
      <path clip-path="url(#pe6d3b389ea)" d="M 76.814646 291.106977 
L 501.165354 291.106977 
" style="fill:none;stroke:#000000;stroke-dasharray:1.000000,3.000000;stroke-dashoffset:0.0;stroke-width:0.5;"/>
     </g>
     <g id="line2d_23">
      <g>
       <use style="stroke:#000000;stroke-width:0.5;" x="76.8146456693" xlink:href="#m391e27162c" y="291.106976952"/>
      </g>
     </g>
     <g id="line2d_24">
      <g>
       <use style="stroke:#000000;stroke-width:0.5;" x="501.165354331" xlink:href="#m55700f8e08" y="291.106976952"/>
      </g>
     </g>
     <g id="text_9">
      <!-- 5000 -->
      <g transform="translate(34.6396456693 295.246039452)scale(0.15 -0.15)">
       <use xlink:href="#BitstreamVeraSans-Roman-35"/>
       <use x="63.623046875" xlink:href="#BitstreamVeraSans-Roman-30"/>
       <use x="127.24609375" xlink:href="#BitstreamVeraSans-Roman-30"/>
       <use x="190.869140625" xlink:href="#BitstreamVeraSans-Roman-30"/>
      </g>
     </g>
    </g>
    <g id="ytick_3">
     <g id="line2d_25">
      <path clip-path="url(#pe6d3b389ea)" d="M 76.814646 195.950585 
L 501.165354 195.950585 
" style="fill:none;stroke:#000000;stroke-dasharray:1.000000,3.000000;stroke-dashoffset:0.0;stroke-width:0.5;"/>
     </g>
     <g id="line2d_26">
      <g>
       <use style="stroke:#000000;stroke-width:0.5;" x="76.8146456693" xlink:href="#m391e27162c" y="195.950585167"/>
      </g>
     </g>
     <g id="line2d_27">
      <g>
       <use style="stroke:#000000;stroke-width:0.5;" x="501.165354331" xlink:href="#m55700f8e08" y="195.950585167"/>
      </g>
     </g>
     <g id="text_10">
      <!-- 7500 -->
      <defs>
       <path d="M 8.203125 72.90625 
L 55.078125 72.90625 
L 55.078125 68.703125 
L 28.609375 0 
L 18.3125 0 
L 43.21875 64.59375 
L 8.203125 64.59375 
z
" id="BitstreamVeraSans-Roman-37"/>
      </defs>
      <g transform="translate(34.6396456693 200.089647667)scale(0.15 -0.15)">
       <use xlink:href="#BitstreamVeraSans-Roman-37"/>
       <use x="63.623046875" xlink:href="#BitstreamVeraSans-Roman-35"/>
       <use x="127.24609375" xlink:href="#BitstreamVeraSans-Roman-30"/>
       <use x="190.869140625" xlink:href="#BitstreamVeraSans-Roman-30"/>
      </g>
     </g>
    </g>
    <g id="ytick_4">
     <g id="line2d_28">
      <path clip-path="url(#pe6d3b389ea)" d="M 76.814646 100.794193 
L 501.165354 100.794193 
" style="fill:none;stroke:#000000;stroke-dasharray:1.000000,3.000000;stroke-dashoffset:0.0;stroke-width:0.5;"/>
     </g>
     <g id="line2d_29">
      <g>
       <use style="stroke:#000000;stroke-width:0.5;" x="76.8146456693" xlink:href="#m391e27162c" y="100.794193381"/>
      </g>
     </g>
     <g id="line2d_30">
      <g>
       <use style="stroke:#000000;stroke-width:0.5;" x="501.165354331" xlink:href="#m55700f8e08" y="100.794193381"/>
      </g>
     </g>
     <g id="text_11">
      <!-- 10000 -->
      <g transform="translate(25.0958956693 104.933255881)scale(0.15 -0.15)">
       <use xlink:href="#BitstreamVeraSans-Roman-31"/>
       <use x="63.623046875" xlink:href="#BitstreamVeraSans-Roman-30"/>
       <use x="127.24609375" xlink:href="#BitstreamVeraSans-Roman-30"/>
       <use x="190.869140625" xlink:href="#BitstreamVeraSans-Roman-30"/>
       <use x="254.4921875" xlink:href="#BitstreamVeraSans-Roman-30"/>
      </g>
     </g>
    </g>
    <g id="text_12">
     <!-- Force (N) -->
     <defs>
      <path d="M 41.109375 46.296875 
Q 39.59375 47.171875 37.8125 47.578125 
Q 36.03125 48 33.890625 48 
Q 26.265625 48 22.1875 43.046875 
Q 18.109375 38.09375 18.109375 28.8125 
L 18.109375 0 
L 9.078125 0 
L 9.078125 54.6875 
L 18.109375 54.6875 
L 18.109375 46.1875 
Q 20.953125 51.171875 25.484375 53.578125 
Q 30.03125 56 36.53125 56 
Q 37.453125 56 38.578125 55.875 
Q 39.703125 55.765625 41.0625 55.515625 
z
" id="BitstreamVeraSans-Roman-72"/>
      <path d="M 30.609375 48.390625 
Q 23.390625 48.390625 19.1875 42.75 
Q 14.984375 37.109375 14.984375 27.296875 
Q 14.984375 17.484375 19.15625 11.84375 
Q 23.34375 6.203125 30.609375 6.203125 
Q 37.796875 6.203125 41.984375 11.859375 
Q 46.1875 17.53125 46.1875 27.296875 
Q 46.1875 37.015625 41.984375 42.703125 
Q 37.796875 48.390625 30.609375 48.390625 
M 30.609375 56 
Q 42.328125 56 49.015625 48.375 
Q 55.71875 40.765625 55.71875 27.296875 
Q 55.71875 13.875 49.015625 6.21875 
Q 42.328125 -1.421875 30.609375 -1.421875 
Q 18.84375 -1.421875 12.171875 6.21875 
Q 5.515625 13.875 5.515625 27.296875 
Q 5.515625 40.765625 12.171875 48.375 
Q 18.84375 56 30.609375 56 
" id="BitstreamVeraSans-Roman-6f"/>
      <path d="M 9.8125 72.90625 
L 51.703125 72.90625 
L 51.703125 64.59375 
L 19.671875 64.59375 
L 19.671875 43.109375 
L 48.578125 43.109375 
L 48.578125 34.8125 
L 19.671875 34.8125 
L 19.671875 0 
L 9.8125 0 
z
" id="BitstreamVeraSans-Roman-46"/>
      <path d="M 48.78125 52.59375 
L 48.78125 44.1875 
Q 44.96875 46.296875 41.140625 47.34375 
Q 37.3125 48.390625 33.40625 48.390625 
Q 24.65625 48.390625 19.8125 42.84375 
Q 14.984375 37.3125 14.984375 27.296875 
Q 14.984375 17.28125 19.8125 11.734375 
Q 24.65625 6.203125 33.40625 6.203125 
Q 37.3125 6.203125 41.140625 7.25 
Q 44.96875 8.296875 48.78125 10.40625 
L 48.78125 2.09375 
Q 45.015625 0.34375 40.984375 -0.53125 
Q 36.96875 -1.421875 32.421875 -1.421875 
Q 20.0625 -1.421875 12.78125 6.34375 
Q 5.515625 14.109375 5.515625 27.296875 
Q 5.515625 40.671875 12.859375 48.328125 
Q 20.21875 56 33.015625 56 
Q 37.15625 56 41.109375 55.140625 
Q 45.0625 54.296875 48.78125 52.59375 
" id="BitstreamVeraSans-Roman-63"/>
      <path d="M 9.8125 72.90625 
L 23.09375 72.90625 
L 55.421875 11.921875 
L 55.421875 72.90625 
L 64.984375 72.90625 
L 64.984375 0 
L 51.703125 0 
L 19.390625 60.984375 
L 19.390625 0 
L 9.8125 0 
z
" id="BitstreamVeraSans-Roman-4e"/>
     </defs>
     <g transform="translate(16.5604269193 281.254375)rotate(-90.0)scale(0.17 -0.17)">
      <use xlink:href="#BitstreamVeraSans-Roman-46"/>
      <use x="57.47265625" xlink:href="#BitstreamVeraSans-Roman-6f"/>
      <use x="118.654296875" xlink:href="#BitstreamVeraSans-Roman-72"/>
      <use x="159.736328125" xlink:href="#BitstreamVeraSans-Roman-63"/>
      <use x="214.716796875" xlink:href="#BitstreamVeraSans-Roman-65"/>
      <use x="276.240234375" xlink:href="#BitstreamVeraSans-Roman-20"/>
      <use x="308.02734375" xlink:href="#BitstreamVeraSans-Roman-28"/>
      <use x="347.041015625" xlink:href="#BitstreamVeraSans-Roman-4e"/>
      <use x="421.845703125" xlink:href="#BitstreamVeraSans-Roman-29"/>
     </g>
    </g>
   </g>
   <g id="line2d_31">
    <path clip-path="url(#pe6d3b389ea)" d="M 76.814646 443.357204 
L 81.101016 443.357204 
L 85.387387 443.357204 
L 89.673758 443.357204 
L 93.960129 443.357204 
L 98.2465 443.357204 
L 102.53287 443.357204 
L 106.819241 443.357204 
L 111.105612 443.357204 
L 115.391983 443.357204 
L 119.678354 443.357204 
L 123.964724 443.357204 
L 128.251095 443.357204 
L 132.537466 443.357204 
L 136.823837 443.357204 
L 141.110208 443.357204 
L 145.396578 443.357204 
L 149.682949 443.357204 
L 153.96932 443.357204 
L 158.255691 443.357204 
L 162.542062 443.357204 
L 166.828432 443.357204 
L 171.114803 443.357204 
L 175.401174 443.357204 
L 179.687545 443.357204 
L 183.973916 443.357204 
L 188.260286 443.357204 
L 192.546657 443.357204 
L 196.833028 443.357204 
L 201.119399 443.357204 
L 205.40577 443.357204 
L 209.69214 443.357204 
L 213.978511 443.357204 
L 218.264882 443.357204 
L 222.551253 443.357204 
L 226.837623 443.357204 
L 231.123994 443.357204 
L 235.410365 443.357204 
L 239.696736 443.357204 
L 243.983107 443.357204 
L 248.269477 443.357204 
L 252.555848 443.357204 
L 256.842219 443.357204 
L 261.12859 443.357204 
L 265.414961 443.357204 
L 269.701331 443.357204 
L 273.987702 443.357204 
L 278.274073 443.357204 
L 282.560444 443.357204 
L 286.846815 443.357204 
L 291.133185 443.357204 
L 295.419556 443.357204 
L 299.705927 443.357204 
L 303.992298 443.357204 
L 308.278669 443.357204 
L 312.565039 443.357204 
L 316.85141 443.357204 
L 321.137781 443.357204 
L 325.424152 443.357204 
L 329.710523 443.357204 
L 333.996893 443.357204 
L 338.283264 443.357204 
L 342.569635 443.357204 
L 346.856006 443.357204 
L 351.142377 443.357204 
L 355.428747 443.357204 
L 359.715118 443.357204 
L 364.001489 443.357204 
L 368.28786 443.357204 
L 372.57423 443.357204 
L 376.860601 443.357204 
L 381.146972 443.357204 
L 385.433343 443.357204 
L 389.719714 443.357204 
L 394.006084 443.357204 
L 398.292455 443.357204 
L 402.578826 443.357204 
L 406.865197 443.357204 
L 411.151568 443.357204 
L 415.437938 443.357204 
L 419.724309 443.357204 
L 424.01068 443.357204 
L 428.297051 443.357204 
L 432.583422 443.357204 
L 436.869792 443.357204 
L 441.156163 443.357204 
L 445.442534 443.357204 
L 449.728905 443.357204 
L 454.015276 443.357204 
L 458.301646 443.357204 
L 462.588017 443.357204 
L 466.874388 443.357204 
L 471.160759 443.357204 
L 475.44713 443.357204 
L 479.7335 443.357204 
L 484.019871 443.357204 
L 488.306242 443.357204 
L 492.592613 443.357204 
L 496.878984 443.357204 
L 501.165354 443.357204 
" style="fill:none;stroke:#009afa;stroke-linecap:round;stroke-width:3.0;"/>
   </g>
   <g id="line2d_32">
    <path clip-path="url(#pe6d3b389ea)" d="M 76.814646 231.873299 
L 79.019065 233.319479 
L 81.223484 234.512735 
L 83.979008 235.711089 
L 86.734532 236.646559 
L 90.041161 237.49939 
L 93.34779 238.128433 
L 96.654419 238.737496 
L 98.307734 239.782315 
L 104.369886 243.974884 
L 106.574306 245.190308 
L 108.22762 245.875687 
L 109.32983 246.152595 
L 111.534249 246.459331 
L 115.391983 247.400897 
L 115.391983 247.400897 
L 117.045297 253.143098 
L 118.698612 259.888328 
L 122.005241 274.28635 
L 124.20966 284.881686 
L 126.965184 299.30879 
L 129.720708 314.934031 
L 133.578442 338.386321 
L 137.98728 364.600235 
L 140.1917 375.726668 
L 142.396119 385.668558 
L 144.600538 394.462265 
L 146.804957 402.283574 
L 148.458272 407.468487 
L 150.111586 411.961739 
L 151.764901 415.778169 
L 153.418215 419.03087 
L 153.96932 419.991577 
L 155.07153 422.951157 
L 155.622634 424.010923 
L 156.724844 425.498455 
L 157.827054 426.481295 
L 158.929263 426.988403 
L 160.031473 427.039997 
L 161.133683 426.717349 
L 163.889207 425.537936 
L 164.991416 425.358009 
L 166.093626 425.373381 
L 167.195836 425.640695 
L 168.84915 426.388725 
L 172.155779 428.040812 
L 173.257989 428.437312 
L 173.257989 428.437312 
L 173.809093 428.982845 
L 174.360198 429.350334 
L 174.911303 429.515319 
L 177.666827 429.555604 
L 179.320142 429.934064 
L 183.177875 431.119694 
L 184.83119 431.252617 
L 186.484504 431.121814 
L 188.137819 430.736767 
L 192.546657 429.238692 
L 192.546657 429.238692 
L 193.097762 429.554339 
L 193.648867 430.095056 
L 194.751076 431.708606 
L 195.302181 432.265501 
L 195.853286 432.606234 
L 196.404391 432.747662 
L 196.955496 432.70678 
L 197.5066 432.473172 
L 198.057705 432.058289 
L 200.813229 429.410805 
L 201.915439 429.033666 
L 202.466544 428.997651 
L 203.568753 429.248439 
L 205.222068 430.07187 
L 206.324278 430.58294 
L 207.426487 430.786296 
L 208.528697 430.542193 
L 209.630906 429.899214 
L 210.733116 428.868013 
L 211.835326 427.446413 
L 211.835326 427.446413 
L 214.039745 426.360847 
L 214.59085 425.849105 
L 215.141955 425.077403 
L 215.693059 424.052249 
L 216.244164 422.770145 
L 217.346374 419.339534 
L 218.999688 412.991412 
L 221.204108 403.754317 
L 222.857422 395.982639 
L 225.061841 384.477245 
L 227.817365 368.860551 
L 231.123994 348.840504 
L 231.123994 348.840504 
L 233.879518 329.962969 
L 234.981728 323.579321 
L 236.635042 315.496003 
L 239.390567 303.514098 
L 242.697195 290.039745 
L 246.003824 277.478075 
L 250.412663 261.658301 
L 250.412663 261.658301 
L 260.33255 227.053939 
L 268.599122 198.033386 
L 270.252436 191.719169 
L 271.905751 185.890405 
L 273.00796 181.087082 
L 274.661275 172.313615 
L 277.967904 152.742885 
L 281.274533 132.953775 
L 284.030057 117.936077 
L 286.234476 106.998837 
L 288.438895 96.991161 
L 288.99 94.629676 
L 288.99 94.629676 
L 289.541105 93.568066 
L 290.643314 90.41745 
L 295.052153 76.387262 
L 297.256572 70.367963 
L 298.909887 66.571788 
L 300.563201 63.472859 
L 301.665411 61.781212 
L 303.318725 59.729068 
L 305.523144 57.455384 
L 307.176459 56.05372 
L 308.829773 54.751684 
L 309.931983 52.929497 
L 310.483088 52.235129 
L 311.585297 51.375418 
L 312.687507 50.94014 
L 314.891926 50.429105 
L 319.85187 49.355367 
L 321.505184 49.097037 
L 322.607394 49.19615 
L 323.709603 49.571076 
L 324.811813 50.184316 
L 327.567337 52.25037 
L 327.567337 52.25037 
L 331.425071 56.414676 
L 332.52728 57.13607 
L 333.62949 57.584047 
L 335.282805 57.835066 
L 337.487224 57.875588 
L 344.651586 57.553637 
L 346.856006 57.580099 
L 346.856006 57.580099 
L 347.407111 57.698411 
L 348.50932 58.583935 
L 352.918159 62.772132 
L 355.122578 64.368393 
L 357.326997 65.678927 
L 361.735836 68.199718 
L 365.593569 70.732257 
L 366.144674 71.113682 
L 366.144674 71.113682 
L 367.797989 66.366738 
L 369.451303 62.041594 
L 370.553513 59.853986 
L 371.655722 58.248412 
L 372.757932 57.237316 
L 373.309037 56.94972 
L 374.411247 56.748376 
L 377.166771 56.839707 
L 379.37119 56.575235 
L 381.024504 56.436805 
L 384.331133 56.372414 
L 385.433343 56.127208 
L 385.433343 56.127208 
L 385.984448 56.410589 
L 391.495496 63.261865 
L 398.108754 71.795788 
L 403.068697 78.275569 
L 404.722011 80.484354 
L 404.722011 80.484354 
L 408.579745 69.930113 
L 410.23306 66.438231 
L 411.335269 64.522415 
L 412.437479 63.149078 
L 413.539689 62.337133 
L 414.090793 62.131507 
L 414.641898 62.072153 
L 415.744108 62.314486 
L 417.397422 62.922716 
L 418.499632 63.047909 
L 420.152946 63.044229 
L 421.255156 63.34991 
L 422.357366 63.70549 
L 424.01068 63.722242 
L 424.01068 63.722242 
L 424.561785 64.057821 
L 426.766204 66.61279 
L 427.868414 68.005043 
L 428.970623 69.822549 
L 432.828357 76.744207 
L 436.686091 83.210678 
L 438.89051 86.602529 
L 440.543825 88.815154 
L 441.646034 89.970964 
L 443.299349 91.09984 
L 443.299349 91.09984 
L 443.850453 91.20988 
L 444.952663 91.852327 
L 446.605978 93.118525 
L 448.259292 94.744032 
L 449.912606 96.669393 
L 451.565921 98.922747 
L 454.87255 103.806097 
L 455.974759 105.112768 
L 458.179179 107.218601 
L 460.383598 109.714268 
L 464.241332 114.515092 
L 466.996856 118.83108 
L 469.201275 122.275834 
L 470.303485 123.584424 
L 471.956799 125.192816 
L 474.161218 127.91398 
L 477.467847 132.10403 
L 478.570057 133.192016 
L 480.223371 134.323461 
L 482.427791 136.265002 
L 485.734419 138.964127 
L 489.592153 141.526351 
L 492.347677 143.076817 
L 496.205411 144.500813 
L 497.307621 144.597939 
L 498.40983 144.498425 
L 499.51204 144.207381 
L 500.61425 143.728834 
L 501.165354 143.420262 
L 501.165354 143.420262 
" style="fill:none;stroke:#e36f47;stroke-linecap:round;stroke-width:3.0;"/>
   </g>
   <g id="patch_3">
    <path d="M 76.814646 460.485354 
L 76.814646 23.674646 
" style="fill:none;stroke:#000000;stroke-linecap:square;stroke-linejoin:miter;"/>
   </g>
   <g id="patch_4">
    <path d="M 501.165354 460.485354 
L 501.165354 23.674646 
" style="fill:none;stroke:#000000;stroke-linecap:square;stroke-linejoin:miter;"/>
   </g>
   <g id="patch_5">
    <path d="M 76.814646 460.485354 
L 501.165354 460.485354 
" style="fill:none;stroke:#000000;stroke-linecap:square;stroke-linejoin:miter;"/>
   </g>
   <g id="patch_6">
    <path d="M 76.814646 23.674646 
L 501.165354 23.674646 
" style="fill:none;stroke:#000000;stroke-linecap:square;stroke-linejoin:miter;"/>
   </g>
   <g id="line2d_33">
    <path clip-path="url(#pe6d3b389ea)" d="M 76.814646 247.724002 
L 79.019065 246.277794 
L 81.223484 245.084486 
L 83.979008 243.886072 
L 86.734532 242.950562 
L 90.041161 242.097707 
L 93.34779 241.46866 
L 96.103314 241.073529 
L 96.103314 241.073529 
L 97.205524 241.346795 
L 98.858838 242.184339 
L 101.614362 243.892459 
L 106.023201 246.623272 
L 107.676515 247.447211 
L 108.778725 247.855578 
L 109.880935 248.039811 
L 110.983144 248.224718 
L 112.636459 248.82883 
L 115.391983 250.030824 
L 115.391983 250.030824 
L 120.903031 245.430001 
L 122.556345 243.529497 
L 123.658555 241.97692 
L 125.31187 239.221101 
L 126.965184 236.016153 
L 128.618498 232.346304 
L 130.822918 226.762449 
L 133.578442 218.902832 
L 134.680651 215.757593 
L 134.680651 215.757593 
L 135.782861 210.425876 
L 136.885071 204.253876 
L 139.08949 189.874008 
L 141.293909 174.038232 
L 147.356062 128.758019 
L 150.111586 110.432383 
L 152.316006 97.181942 
L 155.622634 79.582647 
L 157.275949 71.56363 
L 158.929263 64.643753 
L 160.582578 58.801988 
L 161.684787 55.561081 
L 162.786997 52.936493 
L 163.889207 51.037677 
L 164.440311 50.367306 
L 164.991416 49.879768 
L 165.542521 49.573188 
L 166.093626 49.446687 
L 166.644731 49.535255 
L 167.195836 49.819393 
L 168.298045 50.799872 
L 172.155779 55.09995 
L 173.257989 55.899148 
L 173.257989 55.899148 
L 173.809093 55.339048 
L 174.360198 54.97466 
L 174.911303 54.835378 
L 178.217932 54.999084 
L 179.871246 54.658424 
L 182.62677 53.957366 
L 183.72898 53.855339 
L 185.382295 53.979291 
L 187.035609 54.396394 
L 188.137819 54.864471 
L 189.791133 55.68206 
L 190.893343 55.993238 
L 191.995552 56.03142 
L 192.546657 55.967507 
L 192.546657 55.967507 
L 193.097762 56.242584 
L 193.648867 56.171583 
L 195.302181 54.784108 
L 195.853286 54.583116 
L 196.404391 54.528953 
L 196.955496 54.607644 
L 197.5066 54.826725 
L 198.60881 55.632887 
L 200.262125 57.034548 
L 201.364334 57.545109 
L 202.466544 57.753783 
L 203.568753 57.658468 
L 206.324278 57.043472 
L 207.426487 57.157919 
L 208.528697 57.692451 
L 209.630906 58.605812 
L 210.733116 59.891872 
L 211.835326 61.557483 
L 211.835326 61.557483 
L 214.039745 69.756151 
L 215.141955 72.984307 
L 216.244164 75.12479 
L 216.795269 75.760309 
L 217.897479 76.415676 
L 218.999688 76.951684 
L 220.101898 77.83417 
L 221.204108 79.097052 
L 222.306317 80.695073 
L 223.408527 82.681726 
L 224.510736 85.182249 
L 225.612946 88.266717 
L 226.715156 91.921898 
L 228.36847 98.427045 
L 230.021785 106.067045 
L 233.879518 125.494594 
L 234.981728 132.753099 
L 236.635042 145.326013 
L 242.146091 188.410906 
L 246.554929 220.871939 
L 252.617082 263.729669 
L 266.394703 359.228497 
L 268.599122 373.657815 
L 273.00796 400.319812 
L 274.11017 405.306645 
L 275.763484 411.639009 
L 277.416799 417.078697 
L 279.070113 421.604775 
L 280.723428 425.509821 
L 282.376742 428.912456 
L 284.030057 431.810467 
L 285.683371 434.196206 
L 287.336686 436.087768 
L 288.438895 437.083829 
L 288.99 437.504366 
L 288.99 437.504366 
L 290.643314 439.282831 
L 291.745524 440.197857 
L 292.847734 440.825623 
L 293.949943 441.182431 
L 295.052153 441.324868 
L 296.154363 441.294859 
L 297.256572 441.059602 
L 298.358782 440.578149 
L 299.460992 439.834415 
L 300.563201 438.83455 
L 301.665411 437.592734 
L 303.318725 435.324209 
L 305.523144 431.787314 
L 307.176459 428.76295 
L 308.278669 426.557763 
L 308.278669 426.557763 
L 308.829773 426.813439 
L 309.380878 426.735507 
L 309.931983 426.398967 
L 310.483088 425.856506 
L 311.585297 424.212892 
L 312.687507 422.000879 
L 313.789717 419.371907 
L 315.443031 414.817173 
L 318.74966 404.958087 
L 320.954079 398.877062 
L 322.607394 394.940077 
L 323.709603 392.79025 
L 324.811813 391.051921 
L 325.914023 389.749177 
L 327.567337 388.316757 
L 327.567337 388.316757 
L 328.118442 388.19341 
L 329.220652 388.312298 
L 330.873966 388.819303 
L 332.52728 389.298022 
L 333.62949 389.402951 
L 336.385014 389.164703 
L 338.589433 388.826518 
L 340.793853 388.486506 
L 343.549377 388.364336 
L 346.856006 388.289901 
L 346.856006 388.289901 
L 348.50932 389.125131 
L 349.61153 389.465974 
L 351.264844 389.693759 
L 352.918159 389.685742 
L 357.878102 389.018353 
L 361.735836 388.254956 
L 365.042465 387.398811 
L 367.797989 386.503427 
L 371.104618 384.834044 
L 372.206827 384.574545 
L 373.309037 384.529448 
L 374.411247 384.715177 
L 376.064561 385.133636 
L 377.717875 385.239903 
L 380.4734 385.223005 
L 381.575609 385.455363 
L 384.331133 386.228655 
L 385.433343 386.334479 
L 385.433343 386.334479 
L 387.086657 387.148372 
L 395.35323 389.484128 
L 397.006544 389.663294 
L 399.210963 389.643107 
L 401.415383 389.397771 
L 403.619802 388.903428 
L 406.375326 387.980495 
L 407.477536 387.320189 
L 408.579745 386.40004 
L 409.681955 385.236888 
L 412.437479 382.017449 
L 413.539689 381.134834 
L 414.641898 380.647677 
L 415.744108 380.605975 
L 417.397422 380.750348 
L 417.948527 380.702664 
L 420.704051 379.995632 
L 422.357366 380.140883 
L 424.561785 379.814286 
L 425.11289 379.811399 
L 425.663994 379.686236 
L 427.317309 378.950965 
L 427.868414 378.842131 
L 428.419519 378.849718 
L 429.521728 379.148733 
L 431.175043 379.631031 
L 433.930567 380.17787 
L 435.583881 380.341575 
L 437.7883 380.323025 
L 439.441615 380.129475 
L 442.197139 379.597083 
L 444.401558 378.558254 
L 445.503768 377.315001 
L 449.361502 372.18642 
L 453.219235 367.158745 
L 455.423655 364.875708 
L 456.525864 363.951635 
L 458.179179 362.148973 
L 462.588017 357.000847 
L 462.588017 357.000847 
L 463.690227 355.871483 
L 466.996856 352.012115 
L 468.65017 350.348693 
L 470.303485 348.987781 
L 471.405694 348.156015 
L 476.916742 343.42066 
L 478.570057 342.343215 
L 480.223371 341.370138 
L 481.876686 340.196657 
L 481.876686 340.196657 
L 483.53 339.518023 
L 489.041048 337.709187 
L 492.347677 336.770639 
L 495.103201 336.090471 
L 497.858725 335.399572 
L 500.063145 334.663898 
L 501.165354 334.222511 
L 501.165354 334.222511 
" style="fill:none;stroke:#3ea44e;stroke-linecap:round;stroke-width:3.0;"/>
   </g>
   <g id="text_13">
    <!-- Vertical Tire Forces -->
    <defs>
     <path d="M 34.28125 27.484375 
Q 23.390625 27.484375 19.1875 25 
Q 14.984375 22.515625 14.984375 16.5 
Q 14.984375 11.71875 18.140625 8.90625 
Q 21.296875 6.109375 26.703125 6.109375 
Q 34.1875 6.109375 38.703125 11.40625 
Q 43.21875 16.703125 43.21875 25.484375 
L 43.21875 27.484375 
z
M 52.203125 31.203125 
L 52.203125 0 
L 43.21875 0 
L 43.21875 8.296875 
Q 40.140625 3.328125 35.546875 0.953125 
Q 30.953125 -1.421875 24.3125 -1.421875 
Q 15.921875 -1.421875 10.953125 3.296875 
Q 6 8.015625 6 15.921875 
Q 6 25.140625 12.171875 29.828125 
Q 18.359375 34.515625 30.609375 34.515625 
L 43.21875 34.515625 
L 43.21875 35.40625 
Q 43.21875 41.609375 39.140625 45 
Q 35.0625 48.390625 27.6875 48.390625 
Q 23 48.390625 18.546875 47.265625 
Q 14.109375 46.140625 10.015625 43.890625 
L 10.015625 52.203125 
Q 14.9375 54.109375 19.578125 55.046875 
Q 24.21875 56 28.609375 56 
Q 40.484375 56 46.34375 49.84375 
Q 52.203125 43.703125 52.203125 31.203125 
" id="BitstreamVeraSans-Roman-61"/>
     <path d="M -0.296875 72.90625 
L 61.375 72.90625 
L 61.375 64.59375 
L 35.5 64.59375 
L 35.5 0 
L 25.59375 0 
L 25.59375 64.59375 
L -0.296875 64.59375 
z
" id="BitstreamVeraSans-Roman-54"/>
     <path d="M 9.421875 75.984375 
L 18.40625 75.984375 
L 18.40625 0 
L 9.421875 0 
z
" id="BitstreamVeraSans-Roman-6c"/>
     <path d="M 28.609375 0 
L 0.78125 72.90625 
L 11.078125 72.90625 
L 34.1875 11.53125 
L 57.328125 72.90625 
L 67.578125 72.90625 
L 39.796875 0 
z
" id="BitstreamVeraSans-Roman-56"/>
    </defs>
    <g transform="translate(192.4603125 18.6746456693)scale(0.2 -0.2)">
     <use xlink:href="#BitstreamVeraSans-Roman-56"/>
     <use x="68.298828125" xlink:href="#BitstreamVeraSans-Roman-65"/>
     <use x="129.822265625" xlink:href="#BitstreamVeraSans-Roman-72"/>
     <use x="170.935546875" xlink:href="#BitstreamVeraSans-Roman-74"/>
     <use x="210.14453125" xlink:href="#BitstreamVeraSans-Roman-69"/>
     <use x="237.927734375" xlink:href="#BitstreamVeraSans-Roman-63"/>
     <use x="292.908203125" xlink:href="#BitstreamVeraSans-Roman-61"/>
     <use x="354.1875" xlink:href="#BitstreamVeraSans-Roman-6c"/>
     <use x="381.970703125" xlink:href="#BitstreamVeraSans-Roman-20"/>
     <use x="413.7578125" xlink:href="#BitstreamVeraSans-Roman-54"/>
     <use x="474.794921875" xlink:href="#BitstreamVeraSans-Roman-69"/>
     <use x="502.578125" xlink:href="#BitstreamVeraSans-Roman-72"/>
     <use x="543.66015625" xlink:href="#BitstreamVeraSans-Roman-65"/>
     <use x="605.18359375" xlink:href="#BitstreamVeraSans-Roman-20"/>
     <use x="636.970703125" xlink:href="#BitstreamVeraSans-Roman-46"/>
     <use x="694.443359375" xlink:href="#BitstreamVeraSans-Roman-6f"/>
     <use x="755.625" xlink:href="#BitstreamVeraSans-Roman-72"/>
     <use x="796.70703125" xlink:href="#BitstreamVeraSans-Roman-63"/>
     <use x="851.6875" xlink:href="#BitstreamVeraSans-Roman-65"/>
     <use x="913.2109375" xlink:href="#BitstreamVeraSans-Roman-73"/>
    </g>
   </g>
   <g id="legend_1">
    <g id="patch_7">
     <path d="M 400.352229 270.300625 
L 495.165354 270.300625 
L 495.165354 213.859375 
L 400.352229 213.859375 
z
" style="fill:#ffffff;stroke:#000000;stroke-linejoin:miter;"/>
    </g>
    <g id="line2d_34">
     <path d="M 408.752229 223.5775 
L 425.552229 223.5775 
" style="fill:none;stroke:#009afa;stroke-linecap:round;stroke-width:3.0;"/>
    </g>
    <g id="line2d_35"/>
    <g id="text_14">
     <!-- min -->
     <defs>
      <path d="M 54.890625 33.015625 
L 54.890625 0 
L 45.90625 0 
L 45.90625 32.71875 
Q 45.90625 40.484375 42.875 44.328125 
Q 39.84375 48.1875 33.796875 48.1875 
Q 26.515625 48.1875 22.3125 43.546875 
Q 18.109375 38.921875 18.109375 30.90625 
L 18.109375 0 
L 9.078125 0 
L 9.078125 54.6875 
L 18.109375 54.6875 
L 18.109375 46.1875 
Q 21.34375 51.125 25.703125 53.5625 
Q 30.078125 56 35.796875 56 
Q 45.21875 56 50.046875 50.171875 
Q 54.890625 44.34375 54.890625 33.015625 
" id="BitstreamVeraSans-Roman-6e"/>
     </defs>
     <g transform="translate(438.752229331 227.7775)scale(0.12 -0.12)">
      <use xlink:href="#BitstreamVeraSans-Roman-6d"/>
      <use x="97.412109375" xlink:href="#BitstreamVeraSans-Roman-69"/>
      <use x="125.1953125" xlink:href="#BitstreamVeraSans-Roman-6e"/>
     </g>
    </g>
    <g id="line2d_36">
     <path d="M 408.752229 241.19125 
L 425.552229 241.19125 
" style="fill:none;stroke:#e36f47;stroke-linecap:round;stroke-width:3.0;"/>
    </g>
    <g id="line2d_37"/>
    <g id="text_15">
     <!-- RL-plant -->
     <defs>
      <path d="M 9.8125 72.90625 
L 19.671875 72.90625 
L 19.671875 8.296875 
L 55.171875 8.296875 
L 55.171875 0 
L 9.8125 0 
z
" id="BitstreamVeraSans-Roman-4c"/>
      <path d="M 44.390625 34.1875 
Q 47.5625 33.109375 50.5625 29.59375 
Q 53.5625 26.078125 56.59375 19.921875 
L 66.609375 0 
L 56 0 
L 46.6875 18.703125 
Q 43.0625 26.03125 39.671875 28.421875 
Q 36.28125 30.8125 30.421875 30.8125 
L 19.671875 30.8125 
L 19.671875 0 
L 9.8125 0 
L 9.8125 72.90625 
L 32.078125 72.90625 
Q 44.578125 72.90625 50.734375 67.671875 
Q 56.890625 62.453125 56.890625 51.90625 
Q 56.890625 45.015625 53.6875 40.46875 
Q 50.484375 35.9375 44.390625 34.1875 
M 19.671875 64.796875 
L 19.671875 38.921875 
L 32.078125 38.921875 
Q 39.203125 38.921875 42.84375 42.21875 
Q 46.484375 45.515625 46.484375 51.90625 
Q 46.484375 58.296875 42.84375 61.546875 
Q 39.203125 64.796875 32.078125 64.796875 
z
" id="BitstreamVeraSans-Roman-52"/>
      <path d="M 18.109375 8.203125 
L 18.109375 -20.796875 
L 9.078125 -20.796875 
L 9.078125 54.6875 
L 18.109375 54.6875 
L 18.109375 46.390625 
Q 20.953125 51.265625 25.265625 53.625 
Q 29.59375 56 35.59375 56 
Q 45.5625 56 51.78125 48.09375 
Q 58.015625 40.1875 58.015625 27.296875 
Q 58.015625 14.40625 51.78125 6.484375 
Q 45.5625 -1.421875 35.59375 -1.421875 
Q 29.59375 -1.421875 25.265625 0.953125 
Q 20.953125 3.328125 18.109375 8.203125 
M 48.6875 27.296875 
Q 48.6875 37.203125 44.609375 42.84375 
Q 40.53125 48.484375 33.40625 48.484375 
Q 26.265625 48.484375 22.1875 42.84375 
Q 18.109375 37.203125 18.109375 27.296875 
Q 18.109375 17.390625 22.1875 11.75 
Q 26.265625 6.109375 33.40625 6.109375 
Q 40.53125 6.109375 44.609375 11.75 
Q 48.6875 17.390625 48.6875 27.296875 
" id="BitstreamVeraSans-Roman-70"/>
      <path d="M 4.890625 31.390625 
L 31.203125 31.390625 
L 31.203125 23.390625 
L 4.890625 23.390625 
z
" id="BitstreamVeraSans-Roman-2d"/>
     </defs>
     <g transform="translate(438.752229331 245.39125)scale(0.12 -0.12)">
      <use xlink:href="#BitstreamVeraSans-Roman-52"/>
      <use x="69.482421875" xlink:href="#BitstreamVeraSans-Roman-4c"/>
      <use x="125.1796875" xlink:href="#BitstreamVeraSans-Roman-2d"/>
      <use x="161.263671875" xlink:href="#BitstreamVeraSans-Roman-70"/>
      <use x="224.740234375" xlink:href="#BitstreamVeraSans-Roman-6c"/>
      <use x="252.5234375" xlink:href="#BitstreamVeraSans-Roman-61"/>
      <use x="313.802734375" xlink:href="#BitstreamVeraSans-Roman-6e"/>
      <use x="377.181640625" xlink:href="#BitstreamVeraSans-Roman-74"/>
     </g>
    </g>
    <g id="line2d_38">
     <path d="M 408.752229 258.805 
L 425.552229 258.805 
" style="fill:none;stroke:#3ea44e;stroke-linecap:round;stroke-width:3.0;"/>
    </g>
    <g id="line2d_39"/>
    <g id="text_16">
     <!-- RR-plant -->
     <g transform="translate(438.752229331 263.005)scale(0.12 -0.12)">
      <use xlink:href="#BitstreamVeraSans-Roman-52"/>
      <use x="69.482421875" xlink:href="#BitstreamVeraSans-Roman-52"/>
      <use x="138.90234375" xlink:href="#BitstreamVeraSans-Roman-2d"/>
      <use x="174.986328125" xlink:href="#BitstreamVeraSans-Roman-70"/>
      <use x="238.462890625" xlink:href="#BitstreamVeraSans-Roman-6c"/>
      <use x="266.24609375" xlink:href="#BitstreamVeraSans-Roman-61"/>
      <use x="327.525390625" xlink:href="#BitstreamVeraSans-Roman-6e"/>
      <use x="390.904296875" xlink:href="#BitstreamVeraSans-Roman-74"/>
     </g>
    </g>
   </g>
  </g>
 </g>
 <defs>
  <clipPath id="pe6d3b389ea">
   <rect height="436.810708661" width="424.350708661" x="76.8146456693" y="23.6746456693"/>
  </clipPath>
 </defs>
</svg>
